<mxfile host="65bd71144e">
    <diagram id="qUfi3ybBzITPxwucqCjx" name="Page-1">
        <mxGraphModel dx="1408" dy="741" grid="1" gridSize="10" guides="1" tooltips="1" connect="1" arrows="1" fold="1" page="1" pageScale="1" pageWidth="850" pageHeight="1100" math="0" shadow="0">
            <root>
                <mxCell id="0"/>
                <mxCell id="1" parent="0"/>
                <mxCell id="2" value="" style="shape=image;verticalLabelPosition=bottom;labelBackgroundColor=default;verticalAlign=top;aspect=fixed;imageAspect=0;image=data:image/png,iVBORw0KGgoAAAANSUhEUgAAAY0AAAJFCAYAAAAh9KuVAAAgAElEQVR4nOydeXhTVfr4PzdJF7aWnZYiUBQFVFCmgAGkWHTAUYqloCOgSF1GERfUHzi2jootCqN+FRV1lCIKKAgUizOCMxQRbSmtG8omVJbSBZCtLE2X5P7+uEmapFnbm6SF83me+0BzT855c3Pzvvec9z3vK+3bt0/GBbIsYzKZ0Gg0SJLkqhkABoOB8PBwl+e97cvSpqnJBDRJuZqiTCCulbhW6ssE4lo1hWslybLs1mhY3uCp40OHDtG9e3e3QnrTV01NDSEhIY3uxyeZjh5FOnMGrrpKOfHrr/Dll3DyJERFYaytBUlCO3Omcn7BgrpOxo2DHj2QT5+m9oMP0Ol0ilyPPqqcf/ddqK5W/t+hA0yerMi1dm1dH488ApKkjJuTgyzL1NbWonviCaUv2/GuvRauvx4A4//9H1qtVnndMt5//gP79tV9vgceUK7Vm2/W9ZGYCD17wpkzsHgxACdPnqTdc88p5997D6qq7GSWZZna116r+3wzZoBGAzt2wMaN1q6rH3wQSZIIeeeduvGuuQZGjLBeu3qf78svYe/euvaWz7JggSJXu3ZOZQaQH3lE+Q4/+gjJQWbb78poNKJ97DGnMvPoo/U/34ABEB9f//t+9FHl+9u5E377zanM1s+XlITUqxecPQuZmfXa1r7zDpLBoHyH7dvDlCn1xpOnT8dQU0P4778jOcjs2PZIdDRdJk50KjOA/OWX1O7cWf8etW17663UXHIJIdXVsGhR/fHefx/5/Hnl83XqhHT33fX7mD4ddDrYtYuTK1cq358LmeX+/TEMGVL/HrW03bAB9uxx/xu89Vbo1Qv57Flq33uv/ud7/33YvRs6d1a+0+uuU77DI0eUe6VXLxxp0vrKQ1/V1dXKb9BPcunctr7QOHMG8vIUhdClCwBh06YhhYVBy5ZgUXSnTsHRo1BbC8ePowVo0aKun+PH63UtSRIhFRXOx7W079ABgEsuucRpH5a2EhCidOpyPADtqVNux5NatKCFRW434wG08yCzV58PCA0N9Thevc9n2972Sev4cUUux75s/pYkqf5nNMts+5rWjcyWfrz5fGD+/nburHs9LMyurdvPZ4NOq1XuNVCMhpO21s8nSc6vqc1rnQcMcDue3Wd0kNmWkJAQ5UHHxXconTihfL7Ond2OB9DOZPL9+3PE8hu03Fsu2rr9Dk+eBK0W/vgDgC5dukB6el0/q1cr/+7fD9u3Q1yc/XcisHLxzDQWLoT166FtW+WJ7s9/Vl4/dw5atXLbj0AguICprVVmRgCFhfDxx3DwIEa9Hs2sWWKmcVHMNHJyICuLzpWV8MEHyms33QQPPFB3c1gQBkMguLix1QlxccoBaA8dqpst3nOPMoMdNgzGjw+CkE0H156S5obRWPf/DRugRw/C//a3utd6965vMAQCgcAVtk/96enQrZuyvG3B1VLYBU7z16J798KyZYpPYtYs5bV584Irk0AguLDo1g0sTngLCxeiqa0FvR5GjQqOXEGgec80TpxQvshTpyA5OdjSCASCi4kZM9DIMrz6Khw8GGxpAobOEtPrDIuP3GQyeXSWWOJ+G9uXyWTy2I92zx7k/v2R2reH5cshIsKtbAKBQKA6rVsjPfssmEyg0SDLMvI330CfPtCpExAcHSrLsmp9OZNLV2WJbXdDtWWfgRuMRiNq9eWqH81nn6HbvBndVVehueYa5UVhMAQCQTAxb6KTJAkKCmDhQozXXEPN449bmwRah4JrPeprX45y6cJs47UdkGWZ6upqQkNDPVojrVaLGn25C2GT8vORxo6F225zK4tAIBAEA+mpp2DLFrRr1qANDcUEQdGhgMeQ24bKpfO01Rzwaqu5JEket61705dGo7Hvp7QUunZV/r9ggbJBRyAQCJoq11+PdP31yLKMBpB+/x1Nv34B06GSJKnWlzO5mrYjfPFixdFdVKT8LQyGQCBoJkiShHTiBGGvvw7PPBNscVSj6RqNpUuV3ZnPPguXXhpsaQQCgcB3OnRAevNNJJMJ3ngj2NKoQtPdpzFlSl0CN4FAIGiuhIfDvHkYKyvr50BrhjStmcaePWjXrAm2FAKBQKA62hYtMJlMyGvXKnnwmilNx2j88gvMnYvkKnOrQCAQNHM0Gg0SKKnyP/oo2OI0iKZjNNavhxEjkGzzRQlUpBxul+DFPM9NAyHH7ct9eE+ekjhuq5v+nJ4DtmYo77U9Pil3/rrjEfRrJbggue02JYPFli3BlqRBaKqrq3F3AG7PWw6TyeSxjau+amtrkZ96Cu69N5jX4sJm6yL4DLhJ78Ob8jwrVuuRDIe96PJwjiJHUoL3YnzyivKv3mHMrcAnDyv9OZ6zGIfrUkGWYfl4mLhM+f+dUeaO05W/Hc/LMsxxJojZQFn6bggvens9GzFGQ/gkGaSMwI13sXPHHfD++5w+fVoVHeqoi41Goyp9OZMruDONmhq0//43Wq3WY6ywoJH8N03515lydan49XVK1OVRBhOBicnQzQs5Fpsr6k2K9k6Ow8th0kDzWLnAeCg2j70/GbKS7RX9nNy6v63GQS2iYKW5bx62N17e8qyn62k2YIyH653I/0myD4bcW4NeDllrYI4PhlygCm3atKF61Sr7KpBNHdkNJpNJPn/+vGwymdw1k2VZlg8ePOj2vNO+Zs+W5Rdf9Ni3oJHkpcsy42W52E2b5eNlmXTf+y5epqi6PDXlsLTJddJ3mflcmSxP9HJcS78TlznI4kF9z8n1ru85NOzaOcX8ubwdWw18+Q4FqlP7/vuy8aGH5OLt292281YfV1VVydXV1ar0Jcv1dXvwZhqrV8P585CWFjQRLg7yQJ8Gy992PxPYtwYmxvre/eLJyrLOdV7KMecpL+SwzFr0kJfuMDuKhkvM/7palpIkL5dafF2ecsGzMsipPrzBDVsXwWfjYZovy4iNZMtqIN2L71DgD7T33YccEkLkF18EWxSvCJ7RSE6Gl14K2vAXB+Vw+1BFGbpdqimHX4CrfTQah5fDP4AnJnlu+6JZjmfdKcM8pT9HOWyVuTdH8bK691oc3pPWwGeTfV9OsmBZFvKrc7wcXvPCsKpKnnJtlgt/YjDRvvEGhvvu4+zZs8EWxSOBNxq21a5EqVX/8mI0fJYOKxPcRyxZnNM+OcnL4YnJig/B0xPqixL8Ix1WejAuW3OUf53J4fVavsMMw5kjvCFP1Ne/rfhvfhnqvaP68HLvAwTA7NRPd21YG+TP8ODX2JpDPf/J4eUNN66CBtOpUyfOnz9PTVP3b/hr3ctlX488IsvffOOxP0FjMK+LW9fwy2S52Pwa1PcrNGRN3tv3+NK3u7aOPgln5KV7/341fBpznFxLK5br7cGH4yhPg/0Kub75YSzMwfl1VdVPI/AW088/y4Zx42S5srL+uYvRp6H75BMkjQauvz6Qw158vBgNV+faPNlHQTebyJ85a8x+AQk+MS8x5fmwJv9JsvIeb9r9ssy79X7LUleglkksMxBXPg1Z9rCUhtmXsdr5UtInDyu+iWIX5205vFzx96jBZT4sMbpbXnw2F0jzcT+NoLFI/fujufZaal9+OdiiuCRwRkOW0VRUiLKsgeBZDwrPEvY5B5jkrSPbzCfJMAkoLoOJae6XX+5c7XlJCrAudXnyvVh8Eq4OtRRvY/kkWfET5HlpMC6ZDMvLFMOlD+D+jC2r3Xz35iCEzyYHdr+IgJAnn6SmbVsqKyuDLYpzjEaj7Oqora2Vz58/L9fW1rpsYzkOHDjgsY03UyFBoLAsn/iwBGEXDmtmDo1cVvFyGceb5Sl3WN4/B1leXlYnt9ujAcszvlwPS6jr8rK61yzLVL4uM3kTzmxHbv2xneF2CU7gL4xGo1xUVCTX1NT4rI8NBoNsMBjctmmMbuf8+fOyGkdRUZHLc5X798s1NTXB/h4EVnJ9VIoeDEyDDYcP6/7Lx3sfP+VoXGz9F66UZGONksUAeKtgLZ/H2TXz2XA0wJ/h9b6cBvpKBI3mjz/+kPd+9pkq+llN3R6QmYbpscdkOSsr2N+BQJbrlJW3SsCiDD0p1DkelLIrObw1XN4q9bx0+3beOnQbajSsxsLba+qlobQYDo8y+foAYPMex+/K9rM4O8Tmv8Dyyy/y+TFjZKNZ/zaVmYbGUl7V1QG4PW85LCUB6x0bNyKdPCnqegcVm5xJlpQcnpy8oITKXjIZ8mTPvolnzc7kSdFu1sBt5cCcDkSlTXHu5FJ7DEtIqmS+PpbUJZ6u6dYMZVPi1bmuHegWrktV9pt8NtmFM9qSF8y8/8Wrz2i5/kOVPx1TuVyy34W5MKeKeU04xQPKVVeh7doVw9y5Puljl7pYJd3u/5DbTZtkef36BhlagQr4OgOQZdnr9W5X47kM4WzEMkdjlqdcyeLNYSuv7ft8vTaurosnnPkqGur3EDQ/du+W//jkE/no0aNNJuRWkmVZdmXoZFnGYDAQHh7uMaHgoUOH6N69u4pmViAQCASnTp3iwIEDDBgwwCt9XF1djSRJhISEuGzTGN3u35DbphoyJhAIBM2Etm3bEllTQ3FxcbBFAfxpNH7/He6+G86d89sQAoFAcDEQtWAB4f/9b7DFAPxpNHJy4JprRH4pgUAgaCRh115LSF4eJpMp2KL40WhUVsLw4X7rXiAQCC4WNFOmoJVliouKgi0KOr/1/MgjfutaIBAILio6d8b06qsc3b6dqNOnadu2bdBEkfbt2+c2espkMlljdd1h8cQDaLVaYmJi3HrvBQKBQOAbGzdupLa2lssuu8xlG8sSlmUvhjMaqtsB/BNy++qrSmLCnj3dvkcgEAgEXmIwcOLxxyl/9FH69evnslnzC7k9fBi2bhUGQyAQCNQkPJwWBgMtvv02qGKobzS+/14YDIFAIPADIb17I+3ZE9SysOo7wm+9Fa66SvVuBQKB4GJHl5JCxbFjnNy7l2uvvTYoMqg/09Bq4dJLVe9WIBAILnqio2nVqhXV1dWcOnUqKCKobzT27lW9S4FAIBAotNu5E83Ro9TW1gZlfHWNxi+/QEaGql0KBAKBoI7WX31Fyx9+IDQ0NCjj69xtS7dE45pMJo9hWbIsY9qzB02bNqoKKBAIBII6tFFRhP/xB2fOnKF169b1zsuybN2H4QqfdbtNX7qqqiqPQlZXV3tsYzQaqdVqCbn8ctyLIBAIBIKGoh08mNqtWykpKSEiIgKdznk8k5q63bYvXVhYmMvGsixTXV1NaGioR2uk1WrRjRuH5GYXokAgEAgayU03Yejcmdpz56itraWVQ1LYmpoaAI+b+3zR7bZ2Qudpqzng1VZzS0lAgUAgEPiX0NBQzp49y/nz52nXrp3dOUmSPOrjxuh2dbX8p5/CgQOqdikQCAQCG06epPP772M0GoOS309do7FpE5w8qWqXAoFAILChVSvCf/8dk8lUb2kqEKhrNAwGCFIYmEAgEFwUhIaiOX8eTU2NV45stVHXaMyYAZdcomqXAoFAILDn1LPPIksShw8fDvjY6hqNQYMgIkLVLgUCgUBgT23Pnsg6HUajMeBji3AngUAgaGZoKirQGgxBMRo6d2tilrAsS1EPd5hMJuS4OKQVK0TCQoFAIPAjUTfeyG/vv0+HDh3q+TUsu7fd1NfzWbfbjqFzl7/EUt3Jmw0gGo1G7AQXCASCAKHT6QgJCamXg8qXyn3e6nbbMcTylEAgEDQzqq+8EoDKysqAj62u0SgsFEtTAoFA4Gf+WLwYY3g4R44cCfjYYqYhEAgEAq9R12h88QUUFanapUAgEAjsaf3xx2gNBtoEoRSFukbj+edV7U4gEAgE9Yl4800AOnToEPCxxfKUQCAQCLxG1cp98sSJIuxWIBAI/Myp1FRkWebIkSNER0fbnWtWlftqZs4MWt1agUAguFg4c+utVO7ZQ+2pUy4r9DWLyn3ByO0uEAgEFxtarZbQ0FB0Oh2OOtzflfs0Go0Gd4e5kcdDkiSkKVNE9JRAIBD4mc4TJqCrqiImJsapLvZGZ4P3ut3uNVU/yZ49qnYnEAgEgvroDh0CqDfLCAQiekogEAgEXqOu0cjKEpX7BAKBwM+U5udjDAvjwIEDAR9bp2pvomqfQCAQ+B9JUo4goO5M4/Rp5RAIBAKB3wjZswetwYBOp+5zvzeoazRGjYI//lC1S4FAIBDY0+muuwDo1q1bwMcWjnCBQCAQeI2uyM2+Csv2cUusrjsMBgNV7dsT+AAwgUAguLioGDmSsrIyDFotBoPB7pwl5YdlL4YzfNXttnZCkt0UkrWUBAwPD/fY8aFDh+jevbvbNgKBQCBoPMXFxRQVFRESEsKwYcPszvlS7rUhuj3wXhSBQCAQNC9OnlS2VKxdq7JP4513RBoRgUAg8DOR8+ejNRho166d/waRZcjKosPMmdC7N+Tlwd/+prLRWLRI1e4EAoFAUJ9Wq1YBEBkZqX7nmzbBo49Cjx6wfDmG+Hg4dAjefx9uuUUsTwkEAsFFz48/wtq1yhJU586QlKTMLGJiOHfoEB1atrQ2VddoPPGEqt0JBAKBoD7H33oLgNLSUmJiYhrUh3TgAHz5pWIszp9XDMUnn8CVV9ZvfPSo1aehrtGYNEnV7gQCgUBQn6rBgzEWFXlVRMmOkydh7VqkrCzCduxASkqCl14ChwgsAKqrISuLjsuXw7ZtilGZOVPlcq+y7LGdQCAQCBqPZa+Fow6vV+5VlpE+/1wxFv/5D/K4ccj330/VjTfWFWGy6UP66iul7eefI48cybnRowlfuRLMIbyqlntlxAj48EO49FIfPrpAIBAIfCF62DD2vPkmMX37uizrWvPVV2jXrUObnY0pLg5jYiLG116DVq2sbSy6XVNQUNe2Z09MiYkYn3kGuVMnzpSV0dpkAvM4qpZ7lSorff3sfkWWTcimmmCLcVEjaXRIkjbYYjRJZFMtsmwMthgCL5AkLZKm6cQNSTU1hIaG0qJFC/tCTD/9hLxmDZrPP1cc2rfdhvz000gxMeioc2LLskzNjh2E/uc/aNauBUlCvu025OxspN690QKWX61juVedp63mgFdbzZvKstT5E7s4XbKJ88d3Yqw916S+6IsR2WREowunVfu+RHQdSauOVwdbpKBy5sg2Kkq3cP7kHmTZiCSJ9G/NAVk2IUlaWra7nIiu19Omy5CgymOKjESSJCUVyMGDijN77Vo4dw7j2LEYP/4Y3TXXAGCnmW0c2pr9+xWfxoIFMHgwkmNbM5Zyr9a/VU0jYqmnEQQDYqyuoHzH+9ScL6Nt56to3b4XutBWnt8o8DvGmvOcPbmfU0d2oA1rR5d+9xHSomOwxQoohooDHNm5CI0GIjv1pXW7nmi0IlNbc8JkrObcyf2cOrYbk8lEl373Eh4RGxRZSn79lTNLl9L5u+9oX1YGt92mHMOH108jYnZos3YtfP01JCUhjxuHYcSIBqURuSByT1WfK6W48CXadulPh5iBQZFB4B0nyn7mxOF8usX9nfCInsEWJyCcO/YjJT+9QZdLbyKyU59giyNQgYo/fqN83wa6DniE1p3/FLiBzcrflJ3NkaFDOTVyJH3/3/+za2I1Gjk5dTOQG26oMyyhoU0o99Svv0KLFgF1hMuyiZIfX6NDTBxtu1wVsHEFDaN99AB0IWGU/PgKscPmo9G19PymZkz1uVJKfnqDbn1vo2WkqGx5oRDR8XJ0oS05/POb9NCnE9baj3Utvv66bqYwaBDcdhsnhg9n3yWX0LJTJ/u227ahXbUKTXY29OqlGIkXXlD8GyqhrtG45x5YsULVLj1xbM/HtGp7iTAYzYiIjn2orqzg6O6PiLrqwWCL41eO7vqQzrEJwmBcgLSM6EbnXqM4uutDLhmUpm7nP/1UZyg6dlT2SHz3HZiLLrWLjobFi4mKioLffqtrC5CYiHHNGnT9+qkrk5lm7SU21pzlZPEmLh/8ULBFEfhIx0sGs7fgPTpUHiOkRSfPb2iGVJ7cQ23VCdp2GR1sUQR+om3nfpw68gvnT+yiZfu+jevswIG6VB5nzyqGYtkyuMrJA7HJRPR//kOHefOgvFxp+8YbMHgwRvPylL9Q12gMHqxqd544e2QbEZ36iQipZkpkp36cOZJP+563BlsUv3CmPJcI4cO44InsdAVnynMbZjROnaozFL/+qiwnZWTA8OH129o4tDXnztHq998pv/NOej7wQOM/hA/o3G3cs/jIq72wXCaTidoFCwJa6Lzy9D5atokK2HgCdWnRJpozp/YFWwy/UXlqH11infz4BRcULSO6cbpok29vsjio161TDMX998OtLh6eNmywd2gnJVH84ov8duAAOp2Org463LIT3E2Mk8+63dZONOtH9FrDCUIirwi2GIIGEhLehpqqHcEWw2/UVJ0kJCwi2GII/ExIWAS1Vac8N/z667pZRVycsqT01lvQunX9ttu21fkpevZU2to4tOWDB1X+FN6jCw0NdXnSEpblzY5wjUaD7rnnICUlcNFTsozz7SiC5oCExvwdXqDIcpA3720nIyKFNCB9YyGpg4IoyoWMpEGWXeTw++mnullChw7KrMLGoW2Ho0M7KQk+/xwuv7xe045PPsmh++6jS/fuOOpwX8q9eqvbbcdQ947esEHV7gLLdjIi4pAcjuRVx33rpiATKWIWy0v8I6VvcsSRUdDwLvLmxSHN266eTAIbVLrf3JA3bymxuwqRKzYQ+1Ymear13IRpzH1fsp7kRv5mAMWh/frrMHIk3HsvaLWwdCls3AiPPGJvMI4ehffeg5tvhnHj4PRpxaGdlwezZjk1GADh330HQKtWgd/ALHIYYFaOEZYfmP3xNvN8uAmPs/ythZCUQIIPKe7LV82qpzxcHl4q8bychcB0Ehr8dLmdnAxIT+jf0A4ELlDvfgsmx1k+1UtDV7Ke5IjAGK3G3/cNQ3OuWknWetttkJAAxcXw4ovw/ffw7LP2EVDV1crWhDvvhAED4OefYeZM2LUL5s4NeECRr6jr03jtNVW78z/HWT51NPtnFCLPdt4iasJ85AnKDyR57AZWT+jguruSAlZnAaQRneUmbjs1E3l2nTJWxvAgakEm0qiF3inxkvW8kgGwkKERC72So3zVLKJTcuq3GRWHs08iljsaQuPut7x5cQzN8HHIjDgmo3xfk0BR4H3TWONTJwks2zWfSXYPQh2YtKSQSUssDz3KvWN7X+TNi+OVSzewesIYnkqN45VV49z/fhpLA+57NZD+m0fPlE9holaZWYwd67zhV1/VLT+NHKksPy1ZAm5cBK44uno1VFRw6NChBhdhaijqGo0RI1Ttzt/kzVN+wPWUn0VBW38AHZi0ZANMncdyveOPx8Jxlj+Txhq3N6SyxvzDpb5/yXk5CyEpnXs9Kmrv5bA1BvaGS1Fuqz0ZSYFPOL/flO8COyPs/H7Tz3ZtbOpRkIk0arcTZQ/OjYD7ftxhe+/kzYtDGjWd3IoU9FPSoe/n5E0w//+ZAsonjME/8Y4Nu+/VQL5Jz4FP7uTSWxbVP+nBod1Qai+5BGNRERo39ZD8xcW7PFWynlfIdGkw6tOBSUumsP+Z9ZQ7OVu+ah6Ts6aT6+4JpqSUH4CBPXxUxOYnqPQZnn9wihwJLJviWQ6Xs5aCz5mcNZ2n3BoMZU2+6S+jNBHq3W+W5R1XSsz9/eYdfYgN7EOoYtgqUtADxIzhqdSFvLLqOMSMYfUSfxkMle77RmBqYeN0/u03mDcP9Hp47DFo105xaH/5JTzwgCopPaRz59AaDI3upyGoazTi4qCoSNUu/UV5Xg4DHW8e69NZJulO39WfhH455Dg6uQsyiU7JIX2j+cfiitJS1pBAbFffZM1bmsYab2YZJet5OCWH9I3unyLL83LcyLGdjFELSU+Foc58KWZHo2R+Or63q3qO2wuZ+vebsrwjV7i618Dl/ebNeAd3Q1JX/JGD1eqD88K/pp9d6HK2qpovT5X7vo60Ub4HJWhPVTbIod1Qom+4AYCePQOf9FNjKRfo6gDcnrcc7jaSNEX2F/Wxd5aVrCfZ5XS+Dn1CH/aXOr5vIeMzN5CK+8gNZYnJNyc5BZkMzUhg2VwPT2nmtWoyN3jwNRwnZ12OSzny5ilPvmnE2ThoM0nPSFF+vKN2s8zswE0dBFExYvnKG+rdb15S737zCvN33K+rf57s9bORKzawbGeK91FfJetJdogqjJowv14gQG4qis/B4XWXS04q3fe2pG9UxnyqaLTXxtHYtoUSXhtAh7ZtuVdHXeyNzgbvdbvt35qqqipcHZZdgNXV1S7bWA6j0djsDIeVkvUk980h2dt1XgsFmUh90xi4UXmaKu86DnnjdOuTit3NZl5iGj92kPc/ZKtBmu1eLpsfjkcfhNlZ70yO8lWzFAO1y+ZHWrKeZMsSSmomcoWP10gQeMzfsb8i35QHBctMyVbBugo1N/sb1BZEpfveFcpSWyFlly71zni88w78+c9e9t44qvv0obq6moqKinq62KLc1dTttn+rWu6VwsKgFGBqNKWlrCGHNX2VSBMro+JIc+VYs85MCq1KNCqmA8SkIFekmG/oFKQMICmdZf2UJaYyrx3L28kwR7mM96LdQC+jmfKWprGG6eQ6ylGQSXRKH8WBaWlrjtZJ31jIUzlxDPVSckFwUZZhpvNUAKPb3Dnprf4GXx/K3KLSfe8FFke/EioN470xUn7mj48+QrtvHydOnKBvX/ucVzU1SolrT5v7fNHtfiv32lRKvnpD7KW7WVQA+kHAILOit+IsokUhL2c3sVNQHHsVY1wPYDlvfhqanAXpG711BJqjPFIzkRMKkUaNRipyFRXSn9SKQq96VZa6cOJ72U7GKJwYjOnW1/KcROMKvMfufvMB6/3mLeb1/fGZs9371wKEJZQ7fWOhyjNUNe5731AM43YyIkaTTPANh6UMq6MOt+hiNXW7bV/qOsK//LLZOMKj9An8kOPrbuft5Oz00fgMUc0AACAASURBVCdRWqrMFjyuudaNYTUYs/srBm1XOuMzUpCmNiKSxhIVluokYoz+pNoYDKsfZVfjfmSCOgJzv5lnp0npvN0EQqXz5sVZDUbQ9vS4ve8bgmKsgm0wWi9fjtZgoLWzvFV+Rl2j8eyzqnbnV2LG8BQpPoSMHmf51KXEenJI21C+ahaS2Unu1U1WkIkUkcIPmRvsZxUxY1i9K53xWWlEN8Rw2PxwvNnUlJezEFKnCN+FmtS73+xDbhU/mK1PwMf7zXzvpCWlU+bH0FavMKfjsPjHmoLBUHMzX1Mg4vXXAejYsWPAx27WWW4bi372BvZPjSOj3oYrx6mvzWY3rxSpZRNRgp3Pwx22/gOnP7KYMazeBcl904jOKrVbSvIsR+PXYfWzC2mmYQ5NBvv7rW5HdX18ud/U+44bje1u86Aq6iZ0TS5A1DUa4927bJseyg9X2cXq3FFnuya72tMTk83GwPGZG5C9uVktP7SkdMoqPDwhxoxhdUVXMiJSGBqBa8Nhu0GxAT9e/ZR0xvdNIflS8YNTF/XuN7uUIj5/xzlMdgz6cEuC61OOaUm8nc26TYliDiBxxFPfjbzvmxOnZytRB8eOHWvmaUSeeUbV7gJFnYMrrl6i9fGZG5Ar5rvvwPrDmU5uRaHXfgBFQfQht6KQ1V5L25/UXen80DeNnIIUe8eqVQ7vZzhOiRnD6opBLJ86GinFXUO1I2IuDhp8v9kqRW8eMpzhKYDDS2yVvtcPSDb4lBLFE2rd982Ic8nJGIuKOHfuXMDHlmQ3myssOdfDw8M9etgPHTpE9+7dVRfQHYcLX6J9VF9aRl4S0HEF6lB17hjlB76jx3UvBlsUv7Bv00P0uvZuNFrfE9IJmg8mUy1F3y+id8K/AjZmcXExRUVFhISEMGzYMLtzvtTTaIhuV9cRfvfdAYueOnnyZEDGEQgEAm/Izc0N2Fid77gDrcFAdHR0wMa0oCtyo+Qt28e9ieU1GAzUbN+Oa9umHs888ww7d+7krbQhARhNIBAIPPPpp5/y5JNPkpGRQUKCGz+QCmh//52ysjK0ERH1MnFYUoR42qfhi263tRO6S92UZvV1ChOi838w1gMPPMDZs2dZsWIFx35pbvU7BALBhcqCBQvIyspixowZJCcn8+KL/lt2lSSJ6OhoevToUc8R3ryWpz77DNxYt8ZQUVFBcnIy4eHhLF++HHfpT5oVBZlIAapqJhAI/EtSUhJ5eXmcPHmSYcOGsXnzZr+MU5qXhykkhAMHDvilf3eoq+FjY5VDZX7//XfGjh1L//79WbBggfX1o8eOqT6Wmii5ahwPHw2EeaNU3fvNG8CsKcpdH6LWhaBROGamLch0k5TQe8pXzbJmNyhfNUvVuujB4vz5SkpKlAsTGRnJW2+9xRNPPMHf/vY3nnvuOfUH1GqRtVr1+/UCdY3G2bPKoSIFBQUkJiZy++232138BQsWcLi4WNWx1MaSJTM31RJKqRSowdaYjFqIUp7SRf2AmDGstksTbQ5xHZRifa0sM8EhnbS7Gg0CgXeU5+WwxiaVuFKjw8c0Op7o0QdSRjd7w6HVatDr9Xz88cfW15KTk8nLy+PYsWOMGDGCLVu2qDZeyL59aA0GJVFsgFHXaIwcCUeOqNbdl19+ydixY0lLS+Phhx+2vv7cc8+xdu1a+l15pWpj+Y/j7N9Zv1qfYkQ2sCzJ1qDYGAHze5VUE/aH8gMzn5u3nf1FOYxvQAlZgcA121mUkmOTStzxb3WIGpTC6l3psK6gERUKg09YWBirVq3i448/Ztq0aZSVlQHQrl07Fi5cyCOPPMK9997LCy+8oMp4nSZNAuCSSwK/3aDJlntdunQpDzzwAEuXLuWvf/2r9fWHH36YnTt3kp2dTXhz8GuUFLA6y0W1sJICVlvLqjorn2pfs8ByWHZpJ8xVCuEMzYA1KfMavWwgEFgpKCQNm5K/BYWkAWtSRrtZEq1benVXlS86JQey0oi2vNY3jTXmv5vzkurgwYP56quvuPzyy9Hr9Sxbtsx6buLEieTm5lJaWsrIkSP57rvvgihp41A33EmF2rcAr7/+OkuWLCE7O5trr70WgMrKSqZNm0a7du347LPPADilymh+prSUNUkJvG0zEdDPVnaA581TCsjoQflRJqVTNgiiBs2vy/PkmKYBS7ryDkTFQMLYBCCB3LE5DO2bSaw1tYjvZWUFAoXjLH9LSbSpt/lbSc0RU5cXy9MucFfJEwsykd7qGvzEin7i73//OzfccAOpqals2rSJjIwMunTpQseOHXnvvfdYsWIFU6dO5Z577iEtzXmFeE8YzOVez6rsDvAGVcu9yv/+N7gJ4fWGZ599li+++MLOYBQXFzN27Fguu+wy3nnnnUZ/6ECSl7PQ/qnK4qswV/KzPrmNcmhnyWZbz6dhn8I8OgWWzR2DfsJ867nyVUtJow+xYsVK0ACUokk2LxR8rhRRmqJiLqesUvar11uT47rrrmPjxo3Exsai1+v55JNPrOfuuOMOcnNzOXjwIAkJCeTl+R47eWLePGrDwjh69GjzLvdqqRjVUB566CF+++03srOzrWt1P/30E4mJidx6662kpzc39+52csyV+8ocfRXP1OWqclob2fIUVi96SlkCsKRdT99odozbtFMS3olaGIKGoPgubP/O8KbksC907cp4drPfZjk1b553tbibG6mpqSxdupR//etfPPDAAxwzR3x27tyZ999/n/vvv59JkyYxd+5cn/o1Go1UV1dTU1MT8HKvmrCwMFwdoaFKzpzQ0FCXbSyHVqslZMmSBqUROXv2LLfffjsajYYVK1bQsmVLAP73v/8xduxYnnjiCR5//HGf+w02yhO/s9cdnuTc4WymUbKeh82JDq1p1B3aBa2GgaBZkzdPKQCWm6r8Xb5qKWmpmfWWopz5NupFQNnOnG3bxHRlIDnsLzW3K1nPKxkqz2SaEEOHDmXTpk1069YNvV7PypUrrefuvPNO8vLyKCoq4sYbbyQ/P9+rPtu//jotTCY6depUTxdbqvmpqdsd+tfg7gDcnrcckiQhvfeezxf04MGDJCYm0qdPH95++23r6ytWrGDKlCn861//4q677vK53+CznUUpsCxzusPrhSxK6UPuxunYhtoOzQAyUrzbYxEzhtW2y1SO8fQCQUMoWc8rGdPJtUkpHjVhvtMU444Rf7YBGlbswsCVSEGF/iSkQpq5kmHe0jTWXARFv/7xj3/w4Ycf8vbbb/Pggw9y/LhiZKOioli0aBH33HMPt99+Oy+//LLHvlqtWIEkSbRv396pLvZGZ4P3ut3uNb9eJQ98//33JCYmcttttzFnzhzr62+//TYvvvgi2dnZ3HzzzUGUsBEUFJKWOoVJPRxPxNmUVnW9PGWdKdTbxGe/OTBvXhzS0q68nQmTlyo/wvJVsy7Iqb7Azzg+jDSC/UXui8rHXpoAO0spt5QWvkBnGY4MHz6czZs3ExUVhV6vZ9WqVdZzU6ZMIS8vjz179vDnP/+ZwkIva6AHGHWNxmOPed30q6++IjExkVmzZvHoo49aX58zZw4rV64kOzubwYMHqypeQBmUol4RGLNPRN6VjqsyV1ETppCesZTlJUo96vHm/wsE/sD98pSyN8nd3qGoCVNIz0oj2tYvdxHx/PPP8/777/PGG28wffp0a9burl27snjxYqZMmUJSUhLz5zuvrXL8jTcArPtBAom6RuOuu7yKnlq+fDn33HMPmZmZTJ5cVz/s0Ucf5eeffyY7O5tevXqpKlrTpIHLUygzDPs15P6kWnaLxwwiOSmH1XnNe5etoOnifnmqhP1ZjhtaHV+LITYJSErnXvOs+mKbIcfHx7NlyxY6duyIXq9nzZq6wPq7776bvLw8duzYwc0338wPP/xg994qvR5jeDhVVVWBFjvwy1NvvvkmL7/8MtnZ2YwePRqAqqoqJk+ejMFgYPXq1URGRgZaLP9idghGpzhO2b1YnnKK813mYMnlo+zfWNPMd9kKminmjYEJgxxfs+wdUmqgT+6XzjLSeLiZpxBpLHPmzOGdd97h1VdfZcaMGVRUVADQrVs3lixZwh133MHYsWN55ZVXgiypgrpGIyHBbfTU888/z5o1a8jOziYuLg6A0tJSEhMT6dGjB//6V+AqXwUUy/JSRWHDlqwsUSjWTX4l7Hexy9yylhylT2B8Vg45YolKEFAsGwPHoccmaac1bHc7GRGjmdwvE3n2GCbNTQdzNoOLOR3ODTfcwHfffUfbtm3R6/WsXbvWeu6ee+4hLy+Pn376iVtuuYWffvqJ6BEj0BoMQUkjou6OcLOFdMaMGTM4cuQI2dnZtGnTBoDt27eTkpLCnXfeyZNPPqmqKM2DhQyNWGjzdwqSue6y3W5ax521BZkMTUqgLAaiEqbDKJv3AekbO6hWC1og8ImSAlaTztvmpSr7WuDHWT41BTYWItuGiu+C5L5x5hrfvtUav9BIT0/nhhtuIC0tjZycHObOnUvr1q3p3r07S5cuJTMzk5tvvpmnzp1jMAQlYaFUVVXltka4t9WdSktL6TFhAtKKFXZ+jcrKSlJSUoiMjOTdd9+1vr5p0yamTZvGCy+8wNSpUxskfLOuEV6QiTQKc0qQixNRI1xwIeCPGuGyLJOamsq6devIyMggMTHRem7//v38fcAADvXpQ+pzz3HTTTc5yKNu5b7S0lK6dq1b1tBZNnm46thgMBAaGuqxY41Gg7R1q91rhw8fZtq0aQwZMsRuN/dnn33G9OnTWbx4Mbfeeqvbfi9YBqUgu56YCQSCixhJkpg7d6511mHJYdWyZUtiY2P5544dLFiwgLvuuovnnnuOx2wiV32p3Oetbre1E+r6NHQ65aAu/cdf/vIXO4Px7rvv8o9//IN169ZdvAZDIBAIvOCmm27iu+++IywsDL1ezxdffGE9d8stt/Duu++Sl5fHuHHj+PXXXwMik7pGY/duKCpi48aNJCYmMnPmTGbOnGk9nZ6eztKlS8nOzua6665r/HjuDaSgiSPjcmX0AuJi+IwXOzL+VEY6nY6XX36Z+fPn8/zzz/Pkk08i5eSgNRjo1asXn376KX/5y18YOXIkb775pt/ksKCu0ZgyhRX//jeTJk3i3XfftUv/MXPmTAoLC1m3bh29e/dWZThtaAS11edU6UsQeGqrz6ELjQi2GH5DFxpBTVXgU1cLAktt1Vl0oW38Ps7o0aPJzc1Fq9Uy9v772VpQQHR0NAB/+9vfyMvLY8uWLUycOJFdu3b5TQ5VjcbCY8eY8+abrFu3jr/85S8A1NbWctddd1FRUcHatWtp166dauOFR1xG5VmxE6G5UnmmjPDIxqXSb8qER/ai8oyIeb7QqTxTErD7ODQ0lPnz55PeujUfLFlCenq6NWNt7969WblyJTfddBMjR460y+WnJqoZjTfeeINPq6vJ/te/rOk/jhw5QmJiIl27dmXRokVqDWWldec/ceb4b6r3KwgMZ47vpXXnCzcdb+sug6n4w/esz4LmRcUf+2jTJbD38fCUFBa+9hqVlZXo9Xo2bNhgPffAAw+wZcsWNm3axIQJE9izZ4+qY6tiNB577DF27NjBut27udRcUWrHjh2MHTuWkSNHMm/ePDWGqUdIi4606tCf4yVNM7GXwDUny38mrE13wto0w3BpL2nd6VpMsokzx/cGWxSBnzh7ogijsYbWneMCOm7FY4+hjYjg/vvvZ86cOcyePZvZs2dTW1sLwOWXX86qVau44YYb0Ov1qhava1TlPoPBwOTJkzl//jzvvfceERHK+vQ333xDYmIiDz74ILNmzVJNWGd0umIyJ0oKOXfygF/HEahHZUUJxw58Q6crpgRbFL/Tuc/dlP+eQ7WhWRQnFvhAjeE05b/n0LnP3UEZ37LX4uabb+bbb7+lqqoKvV7P//73P6uOfuihh9iyZQtfffUVEydOZM+ePY2u3Kd9+umnnzcajbg6AKevHz58mEmTJtG7d2/mz59PRUUFka++yto9e5j8t7+xcOFC7rzzTr9fOI0unBZtL6Pkl8WEhLUlrFVHv48paDhnTuyjZPc6ul7zCC3aXh5scfxOSIuO6EJaUr5nDeGtOxMSduE6/i8mKs+UcnjPF3S8NIk2USpEgvqI9r77KL7iCjpERREZGYlGo+HGG2+kc+fOpKamUlxczPDhwzGZTLRr147k5GTKy8uZNm0arVq1YsCAAYBz3e54VFRU0KJFC+vfktFodLsjvLq6ut4GkF9++YV7772XO+64w5r+o7i4mK/i4/mnJLF46VKGDRvm58tmj6FiP+W/vkdIWGvadbmSlpHdAzq+wD2VFSWcPLKDqvN/EHXlA7Rod0WwRQooZ48UUL4zk9YdLqNt536Et+ocbJEEDaDq3DFOHd3JmeN76NLvXtp0CU75BmN0NN9lZhJ71VXExNjn6zp58iTPPfccBQUFpKenM2rUKOu5HTt2kJaWRnh4OP/4xz/o06ePx819xcXFdjmuJFmW3RoNg8FAeHi4teOvv/6aadOm8dxzz3HPPfdY286ePZstb79NZlYWfRy2tQeS04e/5nRJDoYzxYS26ICkCXxuFkEdsslIteEkYS2jiIwZSdvuwbs3go1squXkwf9wunQLtVWnCQmLRHKT6kHQdJBNJmqqTqMLjSCi6/W07/kXJI3rHdf+xhgdTe7ixfS6+up6RsOyI/zf//43aWlpjBs3joyMDLs2r7/+OnPnziUjI4P777/f7ViHDh2ie/e6h3CfjMaqVat46KGHyMzMZOzYsdZ2Tz31FD/99BOfPvIIHa+6yquaGv5GNtVQU3kM2VQTbFEubiQdIS06otGGBVuSJoWp9jw1hhMgG4MtisAbJC26sHZoQ1oFWxIAyr79ln1nzxLStm29jdK2aUQqKipITU3l+++/JyMjgxvMgUqyLFNYWMicOXNo06YNGRkZxMbGOh3L0Wggu8FkMsnnz5+XTSaT/O6778pXXHGFnJuba3d+6tSp8j333CMfOHDAXVcCgUAgUIlDhw7JmzZtkr/99tt656qqquTq6mq711avXi337dtXfvbZZ2VZttftr732mhwVFSUvWrTI6VgHDx60+9urufHcuXP5+OOPyc7ORq9XcrIeO3aMxMREOnbsyOLFiz2uiwkEAoFAHaSqKjTmTX3eMH78eHJzczl+/DjDhw/nm2++sZ6bOXMmX375JatXr2bKlCkcPHjQbV8ejcbs2bPZtm0b2dnZXH65Eu2ye/duEhMTGTZsmH01qbg4t0WYBAKBQNB4oq+/HslkomfPnl6/p23btrz99ts8/vjjPPDAA3aJZK+55hr+/e9/c8011zB06FA+/PBDl/24NBpGo5GpU6dy+vRp1q5dS/v27QH49ttvSUxMJCUlhaefftprgQUCgUAQfCZMmEBubi5Hjx611im38NRTT7Fu3TpWrFjB1KlTOXz4cL33OzUalvQfUVFRdoWTPv/8cxITE5k3b55Hj7tAIBAI/EONOemrwWBo0Pvbt2/PggULePjhh0lJSWHOnDnWcwMHDuTLL7/kyiuvRK/Xs3r1arv31jMaO3fuJDExkfj4eLv0H4sWLeKJJ55g7dq1JCUlOZeksLBJRE4JBALBhcyxZcswhodTXt64hK233347ubm5lJSUMHLkSHJzc63nZs2aRVZWFllZWUybNo3S0lIApH379llDbgsKCpg9ezYPPfQQEydOtG4fX7RoERs2bGDevHlcdtllTgc3GAx07NiRLl26NOpDCAQCgcA9u3bt4scff0Sn0/GnP/3J7lxDy71+8cUXvPbaayQnJ/Pwww9b2xoMBj788EOWL1+u1PKQZWWfRlZWFvfeey+LFy9m3Lhx1o6ffPJJdu/ezeLFi90ahEOHDtF9zx7o1UvMNgQCgcCPnHjlFXZcdRUR0dHWlCAWfCn3artxGxTXRGpqKr///jtz587luuuus+7TyM/PJzU1VVmeev/995k1axbZ2dlWgwFw3333ceTIEbKzs72bQfz9775+doFAIBD4SOSrrwLQsaO6ufa6dOnCBx98wH333cedd97J3LlzreeGDBnC//73PzQvv/wymZmZrFu3juHDhwNw4sQJxo0bR0REBB988AFarUjFIRAIBBcLkyZNIjc3l3379jF58mS2bdtmPacNDw9/fsWKFfTo0QOAvXv38te//pWRI0eSnp5ObW0tOp3O4+a906dPE2kwwNVXgzk8VyAQCATqc0qj4VinTtRqNERFRdmdMxqNSJLk8WHfk25v06YN48aNo6KigieeeIKqqiqGDx+OZDKZZMub8vLymDZtGo8//jgPPvigy3UvZ9TLTyIQCAQCv1BcXExRUREhISH1Moo3xqfhjEOHDqHVaklNTaWsrAydred82rRpvPPOO0yYMKHxn0ogEAgEFwQxMTF8+OGHLFmyRHGEf/jhhzzyyCOsXLmycQZj2jSRRkQgEAj8TKfJk9EaDPWWpvzN1KlT0b3yyit8+umnrF27lquvvtoa4wvKFAaUuF9PUxhZluGXX/wqsEAgEAggZO9eZFkmNDTUTmeDoost+zBc4atut+1Lt2HDBlauXEl0dDRVVVVO31TtRTZFo9GILMuIXLcCgUDgf6qrq6murnapt1297tiHJ4xGo11fUmVlpRwaGuq0seyi3KsziouL6V5drVQiE5v7BAKBwG8c3rePoqIiNC1b1nOE19Qohec8OcJ90e225V514eHhbjsG7Laau0KSJCRzEi2BQCAQ+A85LAw5LAyNRlMvXYgkSUiS5DGNCHiv2237UrdAscGgHAKBQCDwG7r9+9EaDEHZeK2u0Rg+HEpKVO1SIBAIBPZ0vuMOALtlo0ChrtEQCAQCwQWNukZDpA8RCAQCv2OIjwfg7NmzAR9bXaPx1VcickogEAj8zIl//hNjeDh//PFHwMcWy1MCgUAg8Bqdu80dlrAsSwIsd5hMJkwffIDmhhvEbEMgEAj8SJvXXkMeNYpW3brV26Bn2b1t0d/O8FW3246h6kxDevddNbsTCAQCgRPafPopAG3btg342DpXu8GhLn2uN7sGNRpNk0khUnnqN86f2En1uTJkU22wxREIBM0YSZLQhXegRbsraN1pYLDFsaLT6QgJCcFRh/uSGt1b3W47hq5xYjswY4aq3fnKmfJtHC9ahSRJtGrbjVat2yNp1P2IAoHgIkM2UWM4w6kD2ZRtf4cOvRJpHzs2qCKdeO01AMrKyoiJiQno2Opq1HvuUbU7Xzi660POn9hBpx5DaRUpikEJBAJ1ac+fqDGc4lhxPsV//EzMtU+i0bUIiiyG4cMxFhV5lZRQbS6I6KmjuxZTc/4wPfv/VRgMgUDgN0LC29K192hatO5I8fcvBVucoKCu0bjppoAXYaooy+X8yd3EXH5zQMcVCAQXLx27DSK8RTuO7MoMyvjRN9yA1mC4ANKInDypanfe8Me+VXTuMcxzQ4FAIFCRLrEjOFO+jepzZQEfWzp3DuACSFgYYM4d/xVdSAtaRgTWESQQCAQAbaMGcLrk64CPK7dQfClGozHgY+vULAkof/utx3Zqcv74L7RuG/jpmUAgEAC0btuDIwe+C/i4ZZs3U7tvHwcPHqRbt2525/xe7lXNkoA1DvG8/qb6XCmRHXoEbDyBQCCwJaxVJ6qCsDxlNBqprq5GluWAl3vVhYWFuWzsS0lArVZLyIEDoNUGLI2IbKxGI/ZhCASCICFJGpBdP9H7i1Zbt9IiMpLw1q1x1OFql3vVarV2Y2gs5QJdHeZGHg9JkpAmTWroNRA0dQoykSLiHI5ZLL9oa24dZ/nUOKR524MrRsl6ki/q7+HipP3MmUiSRExMjFNd7I3OBu91u+3f4jFd4IHtZESkkJaUTllFIVF258yKM2s6uRUp6J28O29eHEMzvBtpfOYGVk/o0HiRA0HB50zOgvQZ/b1/T8l6kvumscarxq6vqS3leTmsSUrgbRELIggQ6hqNAQNU7U4QZErWk9y3lKcqCnGeL7MDk5YUMmmu8rSbvGs+kxyUl352IfJs98OUr5pFdAok6+sbDOVcjo+CJ7DMiSxqkpezEIC0UXGkeStHzBhWV4zx0LPZSKfGOTEY5nP1Xs8hOsuJFEnplC0Z42DoBRcC5/76VwBOnTrVzNOILFqkaneCYLKdjL6lPGV92nWusJTZwRhW74LkZ9aT4LOSOk7OuhxIzXSq5KMmzEee0MCP4C8KMhma4d4wKcauD7G+/p4LCkkjgWVTnM1g+pNaUUiqjRzSKLyakQguLE4/8QTGoiJOnToV8LGb9T4Ngf8oX7UUNjoqowSW7SpErqg7rMtJMWNYPaOUh1cd922ggs+ZnOVKSTZFtpMxaiHjM2e7ncnsL8qBpK7E+tT3cZa/tRBSp3gxS1Lajs8c59ZglK+ahTR1PeU+ySEQuEZdozFnTsDTiAj8wXFy1vUhYZCPbxsUx8B1BT4oKF+UZFPgOMunKv6dt936Xo6zfyfQr6tvsy4fDGj5qnlMZjoD1412Ephg9jVFxBG9LoGyub5+kYKmTvvZs9EaDHTs2DHgY6u7PJWdDZMnq9qlIBiUsL9fHPVj4XKY3DcO6zecmok821bB9SehXyH7wStlWb5qHpOzppO7xLmSbJg/w4L6fo28eaMVeSsGkTM1jsm48BmUFLDaVye5dQazwbPMJet52HxdYncVIi9RXi5fNYtoy/eTmons4roKmj/hmzbB3XfTunXrgI8toqcEXuKwnl6ynuS+KSRf2sCIp4JMolNySN843+Xyint/hsVh7Gi4XLTzVT47J/Jxlk8drRiJijFEcZzYuRtY9sxooiPScDRQeUvTWMN0nvL6Ab9uBlPm8VpuJ6NvGmscPnddlJr/gwAEFze6IjfLSZbt45ZYXXcYDAZOzp5NO7UlFDRNYgaRnASTi0oAH41GyXqSRy1URYzxl3rSjg7GrgHkzRvNmK4PAAAAIABJREFU5H62SroDUTEokWNLzArb/ISfnpnODxmQXs8f5KH/LCDJU0vFuPyQuQHZYlwsYbxJ6ZTtgof7NnRmJmhOHFi0iLKyMo6eO8c111xjd86S8sOyF8MZvup2Wzuhu9TN7m1LScDw8HCPHR86dIh2Eye6bSNoLsQQu/Nz8ujvWvE5XYLZTs7OrtzrrmuzkiNzA2XMI3pUHD808f0Z+tmuQo5tzs82G4+UNEhK520vZxnKDGE6uRVx5ESkEJ1V6jIaqnzVPFaPtblWNtdSntABStb7+tEEzZTQq6+mc8uWhISE4KjDfSn36q1u7969rk6RWJ4SOKEDCWN3s6gA9BblV5CJ5DA7SN9YSKqtciwo5Iex41w/1dsoOUXxzUfukYk0ajRSkadlJgcsoalO9nYEB7Pzm+nkehl2XGcwFCOhr9hA7NTRDI3Y7XSJKWrCfFbbjLf8GfMyVRM2uAL/INXUINXWghvD4C/UjZ6KixPRUxcIUROmwKhM8iwvDEqxC7WVKxwMRsl6kt/q6jKqqHzVLKS+aQzcWGg/qxiUgrxxOmSk+JCSQ3EaN52oq+1kRFic5N4sS20nIyKOoTvTKbNr34FJSzawLCmHyX09pAYpKWB1swpVFqhJ9LBhaGpr6dmzZ8DHFjMNgQv6k7qrlOSITJsNfi4oWU9y3xySd8138oRtdiJnKXs8nCr5QSnIG0EalYK009MuZotjezq5vsxM/IQ1wsujQ96MZcbmsr1iOGA0k/vGsd9xNucOr3acCwSNQ2zuE7gmZgyrK+LIiYhzsUHMvB+gbylPVTiJ2CnIRIowO5GdnbdlUAryrnTGZ6UR7XQs5elcsubBCuYuaJt9ECl9yK0o9MJgmN8zareyQdJteyU9S26qkqYko8BJk5gxPJWaw+S+NrNBwUVDjdmP4U36c7VRd6ZRWKhqd4KmgDn6yJzl1h7zDvEl9d+VN8+y/OKY5NANMWNYvbEUaVQOOXPH1BkZj0/ngcMS2jo+cwPyEi99CWZfzsCNzq+VK/SzN7Bs52gm52wndVD9z62fXYic4Ox7caAJXDeBuhz75BOMRUWUlZXRq1evgI4tyZYSTk5ojIc9EBwufIn2UX1pGSmq9wkEguDw29Y3ufymDwM6ZnFxMUVFRYSEhDBs2DC7c/6OntKYTCbcHYDb85ZDlmXkjRsD5gjfu3cvVV5UnRIIBAJ/k5+fH9DxWq1ahaaykhYtWjjVxd7obPBet9v+rWq5V2bNgpUrG31BnHH69Gk2b97M119/zebNm6mpqeHDeTcS7ZfRBAKBwDt+O3CK1z75Ozt27GDIkCEMGTKEwYMHM2TIECIiIvwyZuT8+VS/+y6RkZHNu9yrpza+snXrVquh+PHHH4mPjyc+Pp57772XK6+8ksOFL6k6nkAgEPjK5T3bkpOzlrNnz5Kfn09+fj5vvfUWd911F3369LEzJN26dVNt3NDQUEJDQwNe7lXnaas54NVWc0mS4JZb3LbxxO+//87mzZuthiI2Npb4+HhmzZpFfHy8223xAoE9SmhuU99tLrhwaN26NaNGjWLUqFHW1woKCsjPzycrK4unn36aNm3aWGchQ4YMoW/fvg0a67S53OuJEye45BJ7n64kSdYSra7wVbfb9qVu9NQLL/jU/Ny5c9blps2bN3P27Fni4+O5+eabefnll4mKch138+2336I5Vkz7qIZddIEA8LEEqwOiMp4AyFi4jdHHljNkyJB6KT0GDRrEoEGDmDFjBgC7d+9m27Zt1tnI6dOn7ZazhgwZ4tWY5+68E2NREWfPnlX983gi4NFTBQUFViOxdetW4uPjGTFiBPHx8QxwUy72t99+s75v8+bN9OnThxem9+aaQX8W0VMXMb7UILfHi2ywojKewAOHS47w4b8yOHimH/n5+RiNRqvyHzJkSL1kgo6UlpZal7Ty8/PZuXOnV36RYEZPqWs0XnwRnn4abKztoUOH7GYT0dHRVt9EfHw8oaGhTvs7deqUnZGora21e1/Hjh1FyK3AKeWrZinFh8yzgLx5cbzSkBTuwmgIvMA25PbAgQNWA7Bt2zYOHjxoZ0SGDBlSzwdhi61fxHLY+kWGDBlCTEwMhpEjKXj6abr27t3MExb++COGqio2b9hgNRTHjx8nPj6ehIQEXnjhBbeOoLy8PKuR+PHHHxk5ciTx8fHcd9999OvXT1VRBRcW1s2ES8YopVb7Tam/bOTSCFhSnTjve2iEkzTuYsOcwAk9e/akZ8+e3HHHHQAcP37cuhz10ksvsW3bNv70pz/ZGYFOnTpZ3++tX2TQ7t20/+9/+XN4eD2j4W9UMRo//vgja9eu5eeiIjbr9cTfcAPx8fG89dZbDBw40OX7ioqK7GYTvXr1Ij4+ntmzZxMfH696NJbgQsSmGNOS/sB2FmUksGyXE4U+KIXc1DiGTu3q1BdRP2uvcyNTvmoW0SIvp8ALOnTowM0338zNN98MKJFNllnIxx9/zIwZM4iOjrYzIo47vJ35RfKuu47s337ji0cfpbKy0m5J69prr/XrZ2qQ0SgpKbGLcurQoQPXXnstD/7zn3yi19Piyiudvu/MmTN2RuLcuXOMHDmSW265hfnz59OlS5dGfRjBRYZteo5BYK2Al5qJ7MJXoZ+9gWVTRxM9lXqGI21UnNMKf85nGlMaL7/goiMkJIThw4czfPhw62vbt28nPz+fjRs38tJLL3n0i/Tp04fW27Zx2e+/o2nThtjYWOtS1tNPP83OnTsZPHgw1113ndWQqLlfRKqqqnLr07DsAtyyZQvffPMN33zzDWVlZYwYMYLrr7+eESNG0L17d0pLS+nWrRs6nb0d2rZtm9VI5OfnW5ec4uPjufrqqxslvPBpCOqoX/7Vtsa4/SxCWY6qK2ik/L1/hi8zjSlieUoAqJ9GZP/+/dYlrfz8fA4dOlTPL1JeXs7evXvR6XQMHTrU7v0VFRUUFBRQWFjItm3bKCgo4IorrmDw4MHWWUvXrl29rtxXWlpK165drX/rXDmit2/fztdff82mTZvYsmULer2e+Ph4/u///o9Bg+rnatZoNOhMJg7s3cvm3FyroYiJiWHkyJHMnDmT+Pj4ekZFIGg0djMOJZusUp7VVY1xJYvspEDLKRB4QWxsLLGxsXZ+EcuS1ksvvUR+fj79e/em56WXctXAgVx55ZV2fpGIiAhuvPFG65IYYDVC2dnZpKWl0aZNG/70pz8xdOhQj/tFNBqNXcCSNXrqyJEjdlFOrVu3ZsSIEej1em666SbatGnjtMPz58+zefNm1q1bx48ffcTJLl0YedNN1tmErYVSGzHTEDiihOB6EU5rh3tHuFOEI1xgJtAJC2tqasiLimJlcjKHysvZvn27nV9k4MCB9OrVy2301K5du/j222/58ccfyc/Pp6Kiol6orwW76Km33kJ67rnn5M2bN7N//36roh85ciS9evVyGZb1/fffW43Lli1brHssblu5kmvWrbMLufUnwmgI6vBW8XtbXc9sgBDGQeCeYGS5NUZHk7t4Mb2uvpqYmBh+/vln62xi69atmEwmq0/DmV/EUbc77hfZtWuX1XjExsYyNiKCNq+9BtHR6MLDw5k7dy56veufUXFxMd98843VUHTq1ImRI0fy8MMPs3LlSsLCwhRr9M03/r5WAkF9HOqX14uCsrbZzbJdbgyGnQ9jOzkZkL5RGAxB08NgdqSfO3cOgAEDBjBgwADuv/9+qqurOXjwIN9//z3btm3jo48+ori42G4mMXjwYLv+unbtSlJSEklJSYAStJSfn0/+xo0se/ppnigro+8VVzBk8GDnm/uqqqqsBmLTpk0cO3bMOgOJj4+vl+sERD0NQZCwGgPLcpTZIW6T4sPbJavykuOQN8/qPPdlViK4eGkO9TQsfhGLbyQ/P5+BAwei1+utM5KOHTvaD/LOO5Cezum//pXI+fPZ9v335Ofn1xmNn376yS4cdtiwYcTHx6PX69Hr9aIIk6BZYRs55av/wTE1idOZi0BgpjkYDUeqqqqsPo1t27axbdu2Or9IRARDcnLo1a0bpKZyKDKyTrfv34/uwQcfZPPmzURGRhIfH8/999/P0qVLadmypXXdy2s++giGDQuYT0MgsMNhmYrUTMouXUp0SgpSBh6Mh3mGAkoiwgrLHg5zbXJrO1+d7AKB+kS8+SbahAQiHWcHXhIaGsrQoUNJSEiwTgh+/vpr8tPT2fjDD8xt3Rr51CmGvP46vXv3ZsyYMVyTkwMZGeiGDBnCrFmz6Nmzp12nlopNlv97mmnIsgwLFihGQyAICI7O7+nkVhQ6LCfZhN0WZCL9f/bOPCzKqv3jn4EBURR3Q0lNbdP8mflipfjmG7RYtrlkuWRKSqalpiYlalmgYqRp7gtKLiXjkpmJFaRvCiZob1RqJakgiwsuuDCAML8/zqwsM4M+MwN4Ptc1l855nnnOwUvOPfd9n/v++gQbrwgPwmQs+kbvQlemP5VeI13/LmfTZJq392ewxTMU/aEkEpvUXbsW3aOPUr9+faMKnwGdTmessauI0nu7asUK7o+IoNOwYYz45hvw9DTWi+yJiWHMrFlkFBfzYI8eqF9++WXAusqTvepOOp0O2fhD4jz09RYxdt7eNRhdXnCpQUujYAvf/hXVfkgkzqWwsJDCwsKbUu67vns36shIdHXrcl2joaRTJ9DpoKAAv+JiXoyPp292NqpVqzjz8MMkJycrq9zHqFE2FymRSCSSm+P8xx/j6enJ+fPnadOmjcU1u5T7cnPRhYej/v57dGFh6AYOxPxu1YIFqGbORPf222ROm0bLli1pATz//PPKKvepRo60/pNKJBKJ5KbR9uxJSVoahYWFZRT6bCr3rVoF4eFcf+kldCkpqOrUMUWIvv8eIiKgZUv46SdU99yDKj3dgcp9EolEIqmaJCVBeDjUqoVOo6Hovvtw9/IS1zIzhbH4+WeYOhX09Rrloazodq9ekOa8ntEqd09KSoqcNp9EIpGYo9OVgMrd6fP6BgXhrtVa1ScycukSTJ4Mw4fDyy/Dli3wr3+Zri9cCP7+4OcHBw9aNRigtNE4d07Rx9nC09uPgqvOnVMikUgMFFw9Q626zZ0+r9vlywC2G8CuWSMMhLs7pKTAK6+YnrFnD6rHHoPERIiPhzD7joNU6/CUd5NOnP1zLY1vf9D2zRKJRKIwly+cwLux81vN6PRdZ4uLi8u9rkpOhshI8WbDBjBvG5KTgyoiAo///hfd1KmoXnyxUnMr62ns2QO+ZUQ2HUadRh0oKSnm6qV0p80pkUgkADpdMRezf6H+7f9x+tzZe/dS7OVFRkaG5YUrV3CfOhX3oUNFmGnbNkuDsWQJ+Puja9KEgn37oH/lz48razS8vcXLiTS560XOnNjr1DklEonk9PH/0sCvJx61m7l6KYK1a0UoqriY6/v3w7Bhpmt79sATT8Du3bBzJ0yfLkJWN4Cy4al//hF/ltK4dST1mnVFe/EvTh3djt89vVGplLWDEolEUpqz6UkUFWrxvf8V2zc7gFo//4x73bp4enuL5HVEBBQWwpo1FP/rX6YSibNnxbX4eHEqSi/sRNk+tXajOnbsmE25V3vqNLRaLXcPHozH5s0u6T119q8vuJzzM81ad6NuozudPr+kmpHyO9SpDR1knzSJ/RRcPcvZjJ9RudemReeJqNycf3IK4LqvL9tmzOChpCR84+O5MGYMefrchKF9SIPYWBouXszlvn25MGYMOrNiv8ru7V6Go7mAup2VDb4iEabySE9Px8OFUq5N7x5InUb3cS5tE2fT9+PdoBWeXg1QuVXrXL/EAbgf/Js64xehnTKIoia2Wy1IbnVKKCq4wrW8TIoK8mjc5nkatHrcpStyKyjgqZkzKenVC/Wvv9K0USMMgq9Fu3ejnj0bVd26sGMHDTt3pmGpz1d2bzfvYK7sjnrffYo+rrJ4N+mEd5NOFFxO59r5IxRcy0ZXIjcFiQnPlL+o984K8sIGoX30ftAWwPViULvmG6Ok6qNSqVB7+dHE91HqNOrg2sX8738QEUFJ/fr8/dZbqHv14r5GjcS18+dFF9pvv6XkvfdEMtwBKGs0YuztHOdYatVrRa16ztX2kFQDEhJgchisjKHBc8+JMa0WBg6EefOgVKdniaTKUFgochNr1kBYGNlz53IhLQ2PixfF9VWrxPWBAynavx9VnTo46muQjN1Ibg2+/14Yh88/h6efFmNXr4oK2fvvlwZDUnXZuFG0/wgKEgV6TZuC/qhtvT/+gFmzwMMDNBpxesqOruQ3g7JGIyJC/BJKESZJVWLnThg8GL74Ap58UoxduiSMSNeuMGOGa9cnkZTHb7+JPfX8edHqo2dP46VGkyahKimhWUoKfPihRaW3o1H2fOrWrbbvkUicyTffwNCh4luYwWCcPw8vvgjdukmDIal6FBcLQ/DUU8JQfPedhcFgzRq8N29G5+bGuV27nGowQGmjIZFUJb76CkaOFAYjKEiMnTkjDMZ//gPTprl2fRJJaTZtEiGms2dFKOqNN0zXDhyA55+HLVsoadCAE8OHo3NyMTWAujKSgNbQ6XTowsOlcp+karB5M4wbJwxGjx5iLDtbhE979xZdPyWSqsLhwyIUlZMDc+dCYKDp2tWrIqeh0YgCvWHDOBMfj66wkPT0dJo3t2yYeCNyr9Yo/Sy1PZKA9sq9FgUG4qlvpCWRuIyNGyE0VPySddMrhmdkiBxGnz4wcaJr1yeRmBMRIXIWYWHw5puW19auFdeffVZUftevD4C2XTvy//yT6/n5NyX3au/ebv4sReVerckLSiROYcMGEXbSaESSG+DECeFhDBwovA+JpCqwdaswCA8+KEJRfn6ma4cOCe+ioABWrzZ9+dHjrlLh6eGB2sOD0nu4XXKvldzbzedwc3Nzw9pLf5PNl0qlQtW1q1NFmCQSCz7/XCS2zQ3GsWMihzFkiDQYkqrBn3+Kwxnz54vjsosXmwyGVitCUP36iTDqjh1lDAZAi4cfRl1YSNu2bcvdi+3Zs8H+vd1izJn/VhKJw1i9WugHaDTQpYsY+/NPYTBee62s2y+RuILZs+Hf/xbJ7t274XGzdiQbNojxa9dEKOq111y3TivI4j5J9WfFCvjsM4iNNbWy+eMPEY566y1xgkoicSVffy1CUZ07i1CUWS8nfv1VhKIuX4Zly0wHN6xwXV+Mak/eQmmUNRopKYo+TiKxydKlsHy58DDuuUeMpaaKHMY77whdZInEVRw7JozFsWMidNqrl+laUZEwFqtXi5BUSIjdjz0TG0txWhrZ2dm0daIUBcg6DUl1ZuFC0XMnNtZkMA4dEiGpd9+VBkPiWj7+GB56CP7v/+CnnywNxsaNIhR18aIIRVXCYLgaZT2NPXvg9ttlGxGJ45k/H778UngYhr5RycnCw/joIxg0yLXrk9y67NghvIsOHUT0pU0b07XffxfeRW6uCKmaV3pXgjpbt+J+9914N2ig0KLtR1lPQ55/lziDTz4RxiI21mQwkpKEhzFzpjQYEtdw/DiMGCEMRlgYrFxpMhglJaI1yJNPwiOPiAaaN2gwABrMmgVA06ZNbdypPGprxR2GqsHCwkKbZ3lLSkrQgawIlziWOXPg22+F0TBUwu7dKzyM+fPFUUWJxNnMnSs8iPfeE8bCnE2bhCEJCBChKF9fRaa8fv06RUVFZQr0DNXbOiuSrpXd283nUDQ8pXviCWk0JI5j5kyhdRwbC82aibHdu8UpqSVL4IUXXLs+ya1HXJwwCHfeKXpD3WkmNX3kiDAk2dnCOzZvDXKTXBw7FoBz587RokULxZ5rD2prbT8MkoD2VA26ubnhNnOm0uuTSAQffSQ8Co0GDEpl8fHCw1i9Gp55xrXrk9xapKcLY/G//4lQlEHUy0BEhMhZhIWJY98Kc23IEFRpaRQUFJRp3WTwHmxVhFdmbzefQ56eklR93n9f5CxiY00GY9cukcP4/HNpMCTOZf58cfKpTRv4+WdLg/HVV+DvD6dOiVCUAwyGq1HWaLzxhmwjIlGWqVPhl1+Eh6Fv1sa33wpRpY0bheaAROIMvv9etNQ/eFB4ve++a7r211+iNci8eaI1yJIllr2kFKbJsGG4a7XcdtttDpujIpQ9cpucrOjjJLc4774rWoHExoKXlxj7+mtR4R0bq2iMWCKpkMxMEW46cECEm/r0sbw+e7bIWYSFCc/XCXgePgxA7dq1nTKfOTI8JamavPOO8Fo1GpPB2LpVeLMajTQYEuewcKEIRfn5iZoLc4Oxfbso3vvnH+F9jB/vunU6EWU9jZgYRR8nuUV5+21x4iQ2FgxJOo1G1AHFxoqjixKJI0lIEN6Fr6/4e4cOpmtpaeJU1N9/l20N4iRyEhLg5ElOnDiBnwPDYOWhrKdx332yGlxyc4wdK6Quv/zSZDC+/NIkqiQNhsSR5OSI5PXEicKrXb/e0mB8/LFou9+xo8hruMBgAJTUrUuxwQN3MsrKvRYXi/vcZNRLcgOMHi2kLdetM42tWye+zcXGilMpEomjWLJEeBchISIU5e5uuvbtt8K7aN9ehKLMW4O4AHVmJm75+eDhUUbWtVrJvfLgg+KXW3obksry+utw/bpliDMmRiQZNRrRUloicRTR0aJ33s6dosGggRMnhLH44w9xkq93b9et0Yxmffrwx9KltPH1rd5yr7bukUjK5bXXxLe6VatMY6tWieOLsbGWv8Q1hOva8xRpz4Ou2NVLkQD0CRAvgAt/AqBevAb1J0u4Pm4k16M+R+3ViKokaO3p6Ymnp6fT5V7VblZCSQYXxiD5Zw2VSgV161q9RyIpw7BhUKeOkLw0sHy5eK/RiHBADaG46CoXTnzDpay9gA4Pr/qo5AHGKofX/jR8Vu+l8PaGnFsxmOu3e6E7uoaigjwAfJoH0KjNM7h7uG6/K+jWDZVKRX5+PqX3cJVKZZRorYjK7u3mz1L29NTu3Yo+TlLDGTIEGjYU7RYMLF5s0si4+27XrU1h8rL2knM4mga+nWnZ4QU8vZzf0lpiB+8vhD2/wnvjqfV0T7xLXS7SXuTC6T9I2/MWvh2G49PiEZcsM3f+fIrT0jh79ix3O/n3RMq9SlzDwIHiOOO8eaaxzz4TiW+NBpysRuZILpzcyYX0XbTq2B8vb+dX8EoqweTXYEbFevIeXg1o1jqA+k3uJuvvrRQXXqbhHVUjz+EslPWN16+XbUQk1ikuFj2j/PwsDca8efDFF8LDqEEG42rub5w/vp1WHfpIg1Ed8LavwrqWd1Na3teH8yd3cvXc/xy8qLL4LF6Mu1ZLfUNrHSeirNEw3wQkktIUFAiD0a4dREWZxqOiRLW3RgOtW7tufQ7gzNG13Nb2UdSeMt9X01B7eOPb9lHOHF1n+2aFqbtmDQANGzZ0+twyCydxDteuCYPRvr04Rmtg9mwhjxkb69AGb67gypkU1B5e1G1YczwniSXeDe7Ao1ZdLucccPVSnIayRmPECEUfJ6kh5OUJg/HAA6J4ykBEhNDE0GgUUzOrSlw5nYxPI1mzVNOp16gdV84412ic13/xysnJceq8oLTRGDVKFvZJLLlwQRiMhx4Sld0GZsyAn34SHkaTJq5bnwPJzztObR/nqqpJnE9tnxZo8447dU5tYCDFXl5otVqnzgugTrOSuDaUj9tzller1XL69GmX9HeXVFHOnhWnpAIDYcoU0/j06aIVg0YD9eq5bn0OprjwMmrP0oc2JTUNtac31wuvOHXOK1eukJWVhVqtpvQebmj5YatOozJ7u/kc6nZWPAODJKCXl5fNB6enp3Pba68JVSvpbUiys4XBeOop0WzQwJQpoiWDRiOK+mo8sktCzUcF6Jw64539+nFu7lxatW9P61KHRyoj92rv3t6qVSvje2XrNFwQX5NUQU6dEgbjhRdEt1ADoaGinbRGA1a06SUSiXXcLlwAQK12bqldXl6eLO6TKMyJE8JgvPSSpSjNxImQkSEMhnn3UIlEUml0+t8ha51slaCgoIB9+/axZs0a9u7dS2pqqsKJ8IQEaNpU0UdKqhFpaTBggNDvNjcY48dDVpZIekuDIZHcNNlJSRR7eZGenq74s/fu3UtkZCTPPvssvr6+rFy5Ek9PT6ZNm0Z2drbCnoaPj6KPk1Qj/vxTeBgjRwrxGgNvvgmXLolqb4nEHpKjUS1sQXZML2reQeyqR0pKCnv37mXv3r3s27ePjh070qNHD8aNG4dGo+HMmTMOzGmcPCn+rGFVvRIbHD4sDMabbwqjYeCNNyA/H9audd3aqhW5bHj1SQZvNRvqE+7czTMzjn7tE+h3ZA6DKqq1zIyj3xRYZGVdSZH+dI+o4CIAo0nMC6bbza32hsjZNJnmwbDe2s9YxamVnIx7nTp4elf+dN5vv/3G3r172bNnD/v376dVq1YEBAQwfPhwVq1aZbU1yW+//aaw0ejXDzZuVPSRkipOaqowGBMnQnCwaXzkSNDpQN/uQGKD5GhUQUdZfyQFnZkOFZlx9PPxp0t8CmFdzcbaT2WLvc8Oi0YX2sn2ffrndolPKbWZ5rLh1UiYaf8m2y00BV1o+deSIv2Jave8SwwGgG//Oej6pxLh448KCDf/t60mNB4zBlavpkUL23VAf/31l9GL2Lt3Lw0aNCAgIIAXXniB+fPnWy2T+Ouvv/j66685cuSI8bOKyr1KbjF++UUYjClTYOhQ03hwMHh4wLJlrltbdSIzjn4J/ujygoFUInyCmQoYvo1vzutFUuRkNrTQb9p+vdicZ4c2dWYc/dpnMamSBsOxG2gqCRGB9DvS2JGT2EEnwvJSCEMYj37Ru9jc39VrqhyGWovSe/jJkydJTExk//797Nu3D5VKRUBAAIGBgUybNo1WrVpZiDCZf/7kyZPs27fP+FKpVHTu3Jknn3yS6dOn07JlS2XlXkvuvls2s7pVSE4WBmPGDJH4NjB0qCgnFti6AAAgAElEQVTYW7TIdWurVuSyYR0s0m/sSZHraHMkBZ2fPowSmYoutBPdQoeQ8GocOXaHqlKJ0BsBW9/oRbgmwSnfuJMig5kaFo3OlseydSrNt051QnhOGI/qxpU+fSgsLOTs2bMUFxeTlJREYmIiSUlJXL58mW7dutG9e3dGjx7NnXfeafFZ8z0/IyPD+NnExESuXLlC9+7d6d69O2PGjKFdu3ZkZ2fTvHlz42eVlXtdvx6k5GvNZ/9+YTBmzxZHaw0MHgyNG8OCBa5bW3UjM5nj7boaN8VuoXMsNvm+7Qy7aydeezaFhEzsCBHlsuHVYA5F72KzNSOQHI0qSCgm9o3e5fgQTXI03SNGk5hnh+djMBbJ0ah8/J2f2yGVCJ8UAl2Ud7HGxYsX+erBB/lu40Z+//13Ll++TEBAAAEBAYwcOZJ77rkHKF/u9eLFi8Yw1U8//UR2djYBAQH06NGDkJAQ7rvvvjKfcajcq9QIvwXYu1cYjHnzoH9/MabTwcsviy61c+e6dn3VjSxo062csEhmHGOC72VSnumab+tS8evkaFRBlEoo65PpHaLRVRBuMSWpA1l/JIU26/yJKvdOJUklIugo64/Mqdwm3DVYhO30uZ0tFvkZ81CedfpWMvyUFCmMblhl1uog8vPzLXIShw8fpkuXLrRp04bx48cTbJ5LxFQR7ubmZvys4fOHDx+mR48eBAQEEBUVRTe9bKw1HCv3Onu2SS9BUvPYs0cYjMWLRbU3QFGRGGvTBj7+2LXrqykYchG2vuV2DUZ3RGymRO9ic3/Y8OqTbH52VzkGw+xkVp9wsvNM39qTbC+I41vvJTDG2j3WkuVicydsNIPbT4YbObWkz+PkbJqMKnKI3nAY8hLKkhTpT/fD4WSHuibHUVJSYmEk9u/fb/QGZsyYQUBAAFdefZVfevem6R13lPtZQ6hq//79RiPx4Ycf0r17d8DURuRGUNZobNokjIak5hEfL4zDqlXw7LNiTKsVHkb79jBrlmvXV11pAceTcsGwyRtqFPKCy4Rick5mQenDMn692JzXlQ2vPokqWJwEKj8k1ZhBMSkMsrrxV0ByClPD/K12V8rZFMlgAskubQxKJdjDhsTRr70/x28wf+Lbf44DuzzpDSvODoXBgQMHLDyCzp0706NHDyZOnEiPHj3wLNV2p/Z338HAgdSrV8/is3v37qVz584EBAQwadIkevToYbUH1Y0g24hIbKP/D8q6daIBIcCVK2Ls/vshPNy166vO+HWlTVoyOfTCl1w2LFwMWxFJYDCL5aeyansLXutf3kMaMyhmF/AkgxNSCetqR87AbsSawt+sOFkswl2jScwrtdGaHSM2ehZ+vdh8BPq19yeiKh11NeR37D2efJP8+uuvFt5E27ZtjTmJmJgY6lnp/vzrr7/y32vX2DZ7Nkf+/pu77rrLmJP4/PPPjTlopY2FAWWNhrlegqRm8O238MoroqL7iSfE2KVLwsN46CH44APXrq/a05hBQ6BfZCqbQztV4A3ksuHVdbSZOcfKt1+94Xj1SVSRSm18ucZwV7nei6FepFS4y+Ibezkek7nhcO1R19LHm22fNLtRjh49amEkmjRpQkBAAAMGDGD+/Pk0tdJ+qbzPPvDEEwR16MDkKVN4wvB7qcee0643g7JGo3dvRR8ncTHbtws1Ro1GaGIA5OYKD+Pf/4Zp01y7vpqCXy82B0aj8llXtkrZPLxjMw9gMhwRyTf/LT5nU6QwGOVt6lun0nyrSKRvrmC9OmvzGw3HNpL6O/eEknm1eritdd4gx48fN27ye/fuxcPDgx49etCrVy8++ugjbr/9drs/6+npSUBAAL169SI8PBw/Pz8yMjJIS0tzmDdhDZXOSlXezfRcl1Rztm6FMWOEh9Gzpxg7c0Z4GI8/Du+959r1VQOO/fgGbR8Yipu7vW3gq0AbEUmlKSm5zrHklfx64QnjRp+fn29MQPfo0QNrukXZ2dkWOQnDZw2vtm3LasybG42AgACLaw7X07DmyhjsiWER1igpKUHn749q40Z5eqq6s2kTTJggPAzDf8isLOFh9O4Nkye7dn01lptIVktcypWrV/jmm28ICAjg9ddfp0OHDhXee/78eYukd05OjtFAjBo1ivbt29ucr8WDD3JsxQpa3HdfmXCUocLbWpeOyu7t5nOoS2flSz9Yq9XaVdzn5uYmNcpqAl9+KbyI2Fh4+GExlpEhPIx+/YQxkUgkFtSrV4+YmOXlXrt69apFTuKvv/4yGomBAwfywAMP3NCcarUaT0/PMierKuNp2Lu3m88hT09JTKxfLxLbGg34+4ux48eFhzFwIIwb59r1SSTVgOvXr1sYiZSUFGOYaubMmTxs+DJ2M3PocyKOTnqXh7JGI6X69XCR6ImJEbUWsbFg+OZz7JjwMIYPF/kNiURSLsXFxURFRRmNhb+/Pz169ODdd9+lR48euCssPnZmyxaK09LIysqiTZs2ij7bFtLTkEB0tGj/odHA//2fGDt6VHgXr78Oo0a5dn0SSRXHzc2dvLw8Ro8ezYYNG6hTp46rl+QwlDUa+/aBr69MhFcnli8XHWljY8GQvPvjD+FhjBsnjtxKJBKrqFTw4YcfOm2+Ol9/jXu7dtSxIpjkKJTtZC5j3tWLJUuE5oVGYzIYv/4qWsFMmCANhkRSRWmg78LQrFkzp88t5S9uVT77DFavFh7G3XeLsUOHhMF47z2Rx5BI9IhGganiTXK06e+VICnSn36bci2fJal2uBmUnyp6AVavG146nQ4ee8zFP47ELj79VBTtaTSmUOKBA8JgfPCBaBsikRjJJWF7AuGBeqGohMXGv98Ivv3nkN1uHf025Sq1wFuOvDffRKfTcfbs2XL3Ynv2bLB/bzd/r6hyX+GHH5Y5MyypYkRFwbZtwsMwtDJIShI5jI8/hgEDXLs+SdUjM5nNW0czKQaEXCtMjfAvR8ditF7bw5rOhejGK0hAleacBoE1jUuDB5P/559cP3+eivZwJfd282cpqtznij4okkoQGQlxccLD8NU3pvjpJ3FKav58UbwnkZQiad1UiN4l+kMlp3Aoehe61ttQJfhb2fBHlxKHEiGuMYRWOy3uqoi7uzuenp6o1WpK7+FFRUVA+cp9Biq7t5vP4ebm5oa1l/4mmy+VSoXqrbcgLe1G/x0kjiQiAr7/XngYBoOxe7cISS1aJA2GpHwy44iKMLzJZcPCo/QrT2nQDnxb32v2LpUIn8lsyLzZBd6aNHntNdQFBTRv3rzcvdiePRvs39stxhT9SfbvV/RxEoX48EPhUWg0YGjB/MMPwmCsXAnPP+/a9UmqKLlsmDIV+ug7HCdvY3CHIaYuvBHBqHz8jS/LHMViuptdMyS+t6TprURyClPDhlRewU8CgOdvvwFQu3Ztp88ti/tqOtOnw8GDwsPw8RFju3aJkNSGDdCrl2vXJ6myGFqjLyKSMSQTEQSJeWbhKKuCRWbhqeRoVAlAV3/Cg1JICvXjuA1hJ0nVRVmjER2t6OMkN0lYGPz+u/AwDBWqO3bAq6/Cxo2ixblEUgG+/eewGcjZBNCVsDw7w1KZWRzq04LXylzoRGBYMAmRMJVwsquKal81JOf77+HUKU6cOIGfn3PdNWWNRid5CqLKEBoKf/8tPAxDEuvrr2HkSGFEHn3UteuTVH8iglFFmL039zw6tDBqgOScPErfdiIE2i1wNN2DjrL+SDmKfhK7Kalfn+Jz51xSaCeL+2oikyaJ7rQajclgbNkCb7whDYZEOcKi0eWlmF56g5GTlADtTN9+j6cl0KV1Ywx64yZSiXg1jhznrrpG4J6Tg7tWa/PkkyNQ1mj4+8vTU65m/HjIzBQehqGzpkYjxjUaeOQR165PUsPJJWE79OvWmKRIkQTvHjGawK4mvXFd/L0MnhJHTmYWh1y93GrKbc89B0Dr1q2dPrdMhNck3noLLl4U1d4GvvhC5DY0GnjoIdetTXJroD9hpfMDQlPQhYrhnE2TiTLqjQejezMaVfvFEBbNZleuV1Jp1GlWPAND+bjhrK41tFotRe7uyPI+F/HGG5CfD2vXmsbWrYMZM4TB+Ne/XLc2SbXGkBC3oGswuvIS2RWMl3lG12B0ecFlb5TYxdUuXcjOzqbQwwOtVmtxzdAixFCLUR6V3dvN7YTamuB5ZcXHPX7+2eo9EgcREgIlJbBmjWlszRpRAa7RQOfOrlubRCJRnEtLl9IsLQ0PDw9K7+GVkXu1d29v1aqV8b0MT1V3goPBw0MU6RlYtQrmzRMGo2NH161NIpHUOJRNhH/5pUyEO5NXX4XatYUmhoFly0Tbc2kwXI/KDZ2uxNWrkDgaXQkqlXMPotZbtgx3rRYfQ8GuE1H2J42KUvRxEisMHgz164u+UQYWLxZKfBoNtG/vurVJAPDwakiR9pKrlyFxMEXaS6i9Gjl1znqrVgHQqJFz5wVZp1H90OlEG/PbboMFC0zjCxZATIwwGHfd5br1SYzUbnA31/JOuXoZEgdzNe8UdRrcOr9zyhqNYHkawqFcvy6aDLZsCXPnmsbnzROhQY0G2rZ13fokFtTz7c6ls0ddvQyJg8k7e5R6vgFOnfNChCjFP336tFPnBaWNxujRJiU4ibJotcJg3HWXEEsy8PHHsHWrMBhmJxwkrqd2gzvxrOPLhRwpbVpTuZDzG2qvJtRueLdT581//HGKvbzIz8936rwAasOZ3vLQ6XSAOPdr61iWTqdDp9O5pKy9xnP1qghJ3X8/6AXlAZg9W3Ss1WhEuEpS5WjWfhjH972HZ616eDds4+rlSBTk6sUTnD25hzu6z3LJ/OYyrKXHDdesfRbs39vNn6Wo3KvuuedQffqp9DaU5NIl0cb8wQeFfreB8HDYs0cYjCZNXLc+iVU8ajfj9i6TOHVwDs3aPEqD2+5z9ZIkCnDx9B+cOZ7A7V3ewbOO81sv3vbUU/wZEUHze+6p3nKvbtnZNhcgqQTnzwsP49//hmnTTOMzZghdb40GGjRw3fokdlGnUXvu6D6T04dXcensYRo0bY93wztQe9Z19dIkleB64RWuXjzJxTNHcFPXoXW3CGrVdY2KlHtuLp6ennh7eztd7lVtq9QcsKvUXIalFObMGeFhPPYYvPeeaXzaNPjlF2Ew6tVz3foklcLTuzktu07l6rlU8rJ+4lzmZooL89C5emESu1AB7p71qNPwHprc9TLeTe539ZKMe27pPVylUhklWiuisnu7+bOUrQj/7jtFH3fLkp0tPIzevWHyZNP4lCnwxx/CYLhA5lFy83g36YR3E6k7I7k5sg4coDgtjfT0dFq2bOnUuZU1Gi4oNKlxZGQID6NvX5gwwTQ+ebKottdowNPTdeuTSCS3NMoeuc3MFC/JjXHihDhW++KLlgZj4kRxTRoMiUQCeB46hLtWi6cL9gNljcbzz4t6AknlOXZMGItXXoFx40zj48aJcFVsLFiJUUokkluHJqNGAdCiRQunzy13oarAn38Kg/HaazBmjGn8zTfFCaoNG1y3NolEIjFDWaMhex5Vnj/+EAZjzBjQf3sAxN+vXrUUVZJIJBLg2gsvAHDpkvMbYqoKCgoqPPVXGXWnrKwsbr/9dtRqKdFhN7/+KpLe77wDw4ebxkeOFI0JzTUyJBKJRM/Jkyf5+++/UavVdO/e3eKa0sp9WVlZFmEwGZ5yFYcOwYABogbD3GAMHw7u7tJgSCSSKkdBQQFqa9l3gySgPVWDbm5uqOfNE0dFZRsR6xw4IDyMjz6CQYNM40OHioI9c40MiUQiKUXjGTNIHzCAJn5+ZU5QVUbu1d693dPTk4MHDzJu3DiFPY2NGxV9XI0kKUl4GLNmWRqMQYOgYUNpMCQSiU1q79wJ4DTlvs8//5zHH3+cUaNGSY1wp/LTT8LDmD8f+vUTYyUlYszPz1IjQyKRSKoAM2fO5PDhwyQkJNC5c2eFPY3p0xV9XI1i925xSmrRIpPBKCoSY61bS4MhkUjs5lx0NACZDiymPnbsGE8//TRXr14lPj6ezp07A0onwp97TuYzyuOHH4RxWLlSFEAC5OeLsbvvhjlzXLs+iURSrSjs2JFiLy9jR1ul+eqrrwgKCqJ3795EREQY8yP79u2T4SmHs2uXaD74xRfQq5cYu3JFjD3wgEiGSyQSSRUhIiKC2NhYPv/8c3r27El6ejoAy5YtY8aMGQp7Gv7+oqmeRLBjBwweLFqAGAzGxYvCw/D3lwZDIpHcEC0efBB3rZbWrVsr9syzZ88ycOBADh8+THx8PD179jReGzt2LJs3byYhIQE3g1xgRS/A6nXDy9CfXaLn669FWxCNBh5/XIzl5gqDERBgqcInkUgklcRc1rX0XmzPng2mvT0hIYHAwEA6duzI2rVradSoESUlJaSmpvLyyy/j7u5OXFwcd999t8JyrzodUooJ2LIF3npLeBiPPCLGTp8Wp6Qef9xSVEkikUgqyfXmzSksLOTKlSs3Lfe6ZMkS5s+fzyeffELv3r2Nn9NoNEyaNIkJEyYwbtw447iicq+kpMCtruCn0cCkSeJPQ3l/VpYwGM88I1qGSCQSyU1wZts23I8d49y5c9xzzz0W1+yVe71y5QqTJ08mMzOT+Ph42rZta7w+ffp0vv/+e7Zt20aLFi0s5F7d3NzcsPbS32TzZZAYvKX54gsIDRUehsFgpKeLkNTzz0uDIZFIFMMgw1reXmxrv/7f//7HU089RYMGDfjmm2+48847cXNzIzMzk379+pGdnU1CQgLdunUr+zxFf4r9+2/dRPi6dfD++8LDeOghMXb8uKj+fuklS1EliUQiuQnq7NiBu1ZLnTp1Kv1ZQ3X3iBEjmD17tnF8586dBAYG8sgjj7Bq1Sq8vb3L/byyR27ffPPWbCWyZg1ERgoPQ18Aw99/i5DU8OGWGhkSiURykzSYMQNWr6ZZs2aV+tzkyZNJSkrihx9+oH379sbxjz/+mFWrVrFo0SKeeOIJq8+QdRo3y6pV8OmnwsPo2FGMHT0qDMaoUfD6665dn0QiueU5duwY48aNo1WrViQkJKBWq9FqtVy6dInx48dz5coVEhIS7FICVDY8FRio6OOqPMuWwWefCQ/DYDB+/90kqiQNhkQicQCX9YJtubm5Nu/dtm0bQUFBPP300yxZssSYIN+/fz+PPfYYd9xxB5s2bbJbOlZZT+NWaoexeDFERwsPw6BYaBBVmjwZhg1z7fokEkmN5XJwMMVpaVy+fNnqfYbq7piYGP7zn/8Yx5cvX84HH3zAggULePHFFys1twxP3QgLFsD69cLDMBxTO3hQGIxp0+CVV1y7PolEcktz7tw5JkyYgEqlIj4+niZNmhivjR07liNHjrBz507uv//+Sj9b2fDUuHE1//TUvHki2a/RmAzGgQPilNSMGdJgSCQSh9MkJAR3rbbcRPiePXt44okn+L//+z82bNhgNBi///47QUFBuLu7891335Wp77AXdZqVTb4yOrJarZaiPXvwGDv2hhZSLfj4Y9i+XXgYfn5iLDFReBgffywMh0QikTgYj19+ITs7G3cfHwst8LVr17JixQqmTZvG448/jmF/37FjBx9++CETJ05kwIABpKWlVWpvN7cT6nZWWpkbJAG9vLxsPjg9PR0PdQ2Ods2eDd99JzyM224TYwZRpQULhMytRGKDomtnyMtJJP/CUYryz6LTlbh6SRI7UKnc8KjdhNoN76Web3c869zm4vWoaN68Oa1bt8bPz4/CwkLGjh3LqVOniI+Pp127dsaE97Rp0/juu+/45ptvePjhh4HK7+2tWrUyvld2l1+xQtHHVRnCw2HPHuFhGGKDP/4oDMayZSaNDImkAnQlRZw5sprLpw/i06wjDZvdjWftB1Gp3F29NIkd6HQlFOZf4FpeJuk/v0/dpg/QrP0w3NwrbsPkSHLi4iA7mxMnTnD69GnGjh1LQEAAS5cuNfYKzMjIYOzYsTRs2JD4+Hjq1q2ryNzKGo0HHlD0cVWCGTNEpbtGAw0aiLEffhAGY80a6N3bteuTVHkKr50m89AcvBvcwZ1dQ1y9HMkN4lHLB+8GrWnaqhtn05M4kfget3d5B0/v5k5fS0mjRhRfuMB3cXEsXLiQBQsW8IpZPnXXrl1MmDCBUaNGMUHhbhQ1OJ6kANOmwS+/CA+jXj0xFhcnDIa5qJJEUgElxQVkHoykYfP7aXBbR1cvR6IQTVt1w8PLh1OHIrmj2yzc1LWdOr/7mTOsWLyY3//8k/j4eLp06WK8NnfuXFavXs3ChQttVnffCFKEqSKmTIHffhMehsFg7NgBQ4aIMWkwJHZw5sga6jZqKw1GDaRBs/uo1/huTh9Z7dR509LSGBEQwNWrV9m2bZvRYOTl5TFs2DAOHDjAd9995xCDAUobjZrC5Mnw55/Cw6it/waxbZtJVOmxx1y7Pkm1oPBqFlfO/UrTVt1cvRSJg2ja8iGunf+DgisZTplv27ZtBAYG0qtWLSa+9ZYx2Z2YmEhgYCCtW7fmyy+/tLu6+0ZQ1mhY6d9ebZg4EU6eFMbB01OMbdkCo0eLsUcfde36JNWGvKy9NGjWwdXLkDiY+s3uIy9rr8PnmTlzJtOmTSMmJoYR//43ANeuXWP58uX069eP0NBQZsyY4fB1qA2yf+VhkHAtKSmxeSxLp9OhS0ys3poa48bB2bOWnXpjY4UOhrmokkRiB9cuHKGpXw08HCKxwLt+K85mHHDY88+ePcu4ceMAiI+Pp2nTpmS0a8f1Y8eYMmUKFy5cMHatNci9GmrsKqKye7v5sxSVey0qKsLT8O28uvHmm5CXBxs2mMa++ALCwoTBePBB161NUi0pyj+LZ+1Grl6GxMF41m5EYf45hzx79+7djB07lpdffpkpU6YYx48cOUJoaCjt2rVj+/btQFl5VyX3dvNnKSr36rFtG3TpAlYKBqsko0ZBQQF8/rlpbO1a+OgjYTD+9S/XrU1SbdGVFKNyk3UYNR2Vmzu6kuuKP3fhwoVERUUxf/58njerBdu4cSNvvfYaw0eMYNDw4ZTew+2Ve63M3u44udfIyEr/w7ickSOhuBhWm52AWLMGZs6UBkNSxUklwscfValXv02222VbkByNymcyGzIds8rKrcOfiOQbf0RSpD+qyFTl1uQCCgsLeeONN9i5cyfx8fEWBmP69Ol88sknfOXlxTO9etGkSZMbknut7N7uOLnX6sbw4eDublnJvnIlfPKJMBg30AFSInEGSZH+qHzW0eZICro8y9ciIiux+eayYeFi6BNIoJ/98+dsmlzGWFX4snMTT0pYDIwmsKv967AklYQICA/sdKMPcDm//PILQUFB+Pj4sGPHDgxtnk6dOkXfvn05deoUCQkJPOTCQ0fKFvcNHaro4xzK0KHg4wMLF5rGli2DJUuEwbj3XtetTSKpkFw2vPokx99MQRda/h2+/eeg65/Lhlf96ffsLjb3b1zx4zKT2bwVYCrNt06t+L6waHShps1YzGFjqcnRqIIW27eJZ8YRFQGwmO4+i+1aR86myTQPTih7T5A/5f0k4fEphN2wQXI8a9euZezYscyfP5+hZntpXFwcY8eOtajuPvfhhwCcPn0aP79KWHsFUNZoVJcOt4MGQdOmMH++aWzRIhGiMhdVkkiqGEmRwmCYNr9UInyCzTbJ0STmBdONxgyK2QWvRrKh2xwGlbuv5LJhylS2lDIIlojnH2pX+Y0pKWEx9AnnNZsbtf3rMDcGloZLGNPNtoxkFSU0NJTExMQy1d1RUVGsWLGCzz77jCeffNI4nt+rF8VpaeTn5zt9rbdWeKqkBF56CZo3tzQYCxaIJLg0GJKqTGYcUUSbGYxcNryaQqBZaCoxbDHdjeGgxgyKGcLxKXHklPO4nE2RDN46msQKN2ogM4tDQJfWldyI9Z5D+Ju98LVxq1hHIOuH2F5HhV5L8jYGbx3NJKsGQ+SAbiZnojRpaWk888wzXLp0ycJg5OXlMXz4cJKSkkhISLAwGK5GWaPRt2/VbSNSVCS0u1u3FjkLA3PnmkSV2rRx3fokEhvkJCXQxWLTbMygmGBM9ea5HD8MfS28gk4EdkggoXSSOzma5sEJhMebf74csrLYQiBtKllgnLRuKlvs8TIy4xgTnEB4fEXekCAnKcHKOlKJCFpMeBh0Ly+Xok+wq3yCIT6F11pU8qCAg/j6668JCgqiV69eLF261FiukJSURFBQEK1atWLz5s3lhp9ue+YZ3LVap4emQOnwVHq6oo9TjPx80WSwQwdxKsqAQVRJowEHlt1LJEpwPO1eAsvLI2TG0a/9VLYg4vabS23U3QLvJSEL8DO7P2gxfaN3EUY0Kp/FFcb7DSGmyiTJSY6me0Qg64/Y8DL06yZ6l41cQy4J2xMqXEdSpCFs5Y8uL0U/KsJZqgiAQNYfSTEzSq4PX82cOZMvv/yS1atX86hZl4kVK1Ywffp05s+fzwArom7uZ84A1o/VOgq1teIOQ9VgYWGhzbO8JSUl6IAqVw9+5Qq8/LJo2/7RR6bxWbPg++8tRZUkkuqIXy825/VChKv8UXWwkhswJKf1RiIn83l08aAyJI/N8wr6EFPf6K42Q0xGzAySNc/B3GDYzEHok/XlrSNn02S9gTLzVMyMaOkEvqs5d+4cY8eORafTGau7DYwbN44//viD+Ph4OnSw3X7m+vXrFBQUlCnQM1RvG/bv8qjs3m4+h9paBbdB3cmeAhA3NzdUO3davcfpXLwoPIyHH4b33zeNG0SVNBpo7PpvHRKJMjQm8NlA2J5FDp3KbvSZcfQLOmrxrdvXrzH4BaPLC9Zvtvpv533CWd9BhJiy7U4spxKh36yt61iK+7rYeZopad1UtjCaxNLrSI6mefC9+sS//t5If7pHCI9rUoI/Vanxz+7duxk3bhwDBgwgLCzMOP7HH38wbtw4OnbsyA8//GDXs7IOHECVlkZ2djZt27a1uJieI0YAACAASURBVGYwBLaK+yqzt5vbCWXDU2ZW0+Xk5goPo2dPmGp25uKDD+Dnny1FlSSSakCbdkdZlQzdKtxo9WGcDkMsDEZSwlHaDMHMI6kAw3X9N/XBWyE83nYiW6A/3RQWjS4wBVXQk6jSKvqW34kwYxjJBsnReiNQOveSSkQQ5RiM0caxpHJO47qKRYsWMWfOHBYsWGBRrBcbG8vYsWMJDw9nxIgRLlyh/ShrNHL0ZzR87XZmHcPp08LDeOIJePdd07hBVEmjAYWkDyUSZ+HbLZBD61Khqyl8ZAzDGCgTjkkl4XAgr1UmJ5GVJbwFm7kG0xxGgxHaCeiE7kgL4bUcDic7xl7DUwp9KI2w6HLW0YmwvE4W94owlY3EvpMpKipi7NixpKenEx8fz5133mm8Nn36dOLi4ti6dSvdulVu1Z6pqaJ1U506Si/ZJsqennrmGbh6VdFHVpqsLHFK6qmnLA3Ge++ZRJWkwZBUR/x6MYlg05FRv15sLlUNbmkwctnw6jrazLR/087ZNBmVPidhV71DcjQqn2AORe+ynNuvF5uPhNN361Sav1r+kV+bz9UbDHtyEkkJiyFsiPU8ipP55ZdfCAwMpF69euzYscNoMAzV3RkZGcTHx1faYAA00Xslrjg9VbPqNNLThcHo00e0MzcweTL89ZcwGLWdK8sokShJt9BdtFloT62Bodgt1M6NVNQwNA+G9UdS7DIYSZH+xqR6ufebGw6faJLsWYahn5becN1MErtbaGkj6jzWrl1LUFAQI0eOZM6cOcbxuLg4goKCCAgIYPXq1dQzqIJWFQoK4NIlOHMGMjLg77/x+PNPOHgQ9u2DhASFw1OurHM4flzkMAYPtqxMnzABMjOFwXCrWTZScivSmEExKfoNu9SpIT2G9hrlHb8tg+EbPSIcpbPHuzCExfqEk51nw4vx68XmvBZE+ATT3ccyB1HROm7kxFO3IeH0bR9Mv3aurwh/99132bt3L99//z3/Mmt4+sknn7B8+XIWLFhQfrFecTFotWLjLiiw+vfC++6jWUICbikp0KiRxXX3a9dQFRSI2jTDeKnPqwoKqJWfj6qw0PJ6rVrg5WXxZyOA+vXFWK1aqHRWzmUZMuxeXl42M+zp6em0atXqRv+db46//xY5jOBgobBnwCCqZK6RIZE4iWM/vkHbB4bi5u4ojZmyrTUA+0JLxnzI6Io38nIQBuneSn3GfL4yJ6aM6yjfAFYO4V0N3mrtHiXmsaSk5DrnJ4/D3bs7323fTiNvbwIDAnAvKoKCAq5fucJvKSlQUECHtm2pBeUbBZ3OtGGbb97lbORXr1/nolYLtWrh17atxfXr7u6ovLxw9/au8Dm6WrUoAGr5+KCqXdt0vRxK7+2q4uJiq0bD3p7rGRkZtGrVyvnKfUePCg/jjTfg9ddN42PGwOXLlhoZEokTcbzRkFQFSkqukzt+DMu3/UOPxx6j5xNPGDfnoydOsHjlSjo//DDBo0dXaASoVQvU9gd+MjIyOHbsGGq1moCAAItrSutpZGRk0LJlS+N7RZX7Sj75BPc+fZwnwvT778LDGD8eXnvNNF6eqJJEIpE4iIwX7qb70I/paVbdvXLlSqZ+8gkLFiywWt19I9SfMYPiZ5+lQatWFSr0lTteUCBCV/o/i8zeGzwf43v9y/vMGYq9vIzvFVXuc//yS5GEdga//io8jNBQGDbMND5ypPjTXFRJIpFIHEjdut50MTMY48eP5/fffychIcFU3V1cbBmWsjN/UebvWi31vvyS+3Jy8PH2xsvd3eIenT5noSosLPt5g1dTqxYlnp6oatdGVasWOnOPp5QH5FlYiLppU/G+Xj3UblaSw4Z0h0G9yRpODUsdPCg8jOnTYcgQ0/jw4eIHW7rUeWuRSCS3PI3X/QJRT3H1/HlO/vknk2rV4vYmTeC55yxzFhXlKmzkMIx/b9hQ5CTUai517EitO+/Eu0ULi3uuu7mh8vJCXbdu2Wfo92mdTkeBPl+NSmW1/dPF9HR8zHIayp6eMiuNdxgHDggPIyJCGA4D5YkqSSSScjAkjJVPCt+q5HdqTvydDzN73jxCJkzgxSFDym7YCjYXPNuyJWfd3clr1IgHH3zQ4pqusFAYBwc1M1T2DKqj8xmJidC/P0RGWhqMQYOEBZYGQ1KTyYyjnzVZVfMiusw4+lVQG5GzKZLBhJMYDYPXlW4fbuO5CpKzaXLFz06OtjpveXKzEcn2ydBWWkPdDvLvb462c2c+3L6dF6dPh7Ztwc9P9LarW1fxDbywUyeKvbyMSW9noqyn4Uj++19hKD77TOh2gBBVGjgQbr/dUiNDIqmJlNc7yuwoa2CCP80jW6AbkmXsIFvmWGxmHGOCYf2RXnTza0G4TzARgSmEddU3LSxFzqbJNN/uiB8mlVXBCUCCpcxsn3CyY1qwSl+zUVaCVn9EWK/alxTpT3fMJGBPGp4h6kcsr+sLHh3x4wC9e/d20JOrFsp6Gl27OkaE6ccfRaX3kiUmg1FYWL6okkRSUynz7Vt0izXoUXQL3cX6w8Go2ifQz6yqOynSUEFuuN9QJd6JsPjRTF0YR04FXky5GtwKkBSpbz2Sl0J2dKAo6MtLQRfTglV6sSRdXgq6I+H01ethiFYpVau3lKto8eCDuGu1tG7d2ulzK+tpWOnffsN8/73wJmJiwGDJKxJVkkhqMl2DSezgT3OfLBLz/EnQ93wyFfLpdcF5ksHrUhkU6idyF4STOCRXv1GH0yX4SVRGp0I0+fP1o9wOuI7wNHI2Tab74XCyQ8W6ffvPQZeZSw7gm5zC1D7hZBsKAG115i2PrVNLeSgGMSZB32dvZvVVC6fXxVHVw1NxcSJf8cUXYCi7v3xZGIzSokoSyS1At9AUsttNprleba9smxDRZqRNpD8qn1KtQUJTRGimfy8CI/2JclHLDd/+oazf/iTNfUqHnkyUDUsJ7Kp2d1F4ypkUN2sGUANyGil29si3h2++EUdoY2PhscfEWEWiShLJLYG+bUifcLLz5uCbLKRay6IP5wRG29C1KPXcCq+LvENFkrA3SmWflxTpT5T+74b+WoJgVHr1vkDlllelOf3NNxSnpZGZmckdd9zh1LnVaVZyEDqdjpKSErvqNLRaLadPn+Y2JaRTt20TVd0aDfznP2Ls3DlhMEqLKkkktwLJ0aiCIDEvBWMQuILktRG9Il9SpD8qH2s9poQokunAvDAi3MCm3j2CSjQctGWsTPSN3sUks/e+FSXC7V9utebKlStkZWWhVqspvYcb5F5t1eBVZm83n0PdzsoR2co2LLwtI0Noct/MsdvNm0WjwdhY+Pe/xVhFokoSya1C12B0eWBfUz4T4fEphIWmoAulHNEmfW7D5iafy4ZXI2GmtZqOVBIMeYOIFJJCO1lJWIsQGqQSgS2PwxRS6mYIr9niFshpNN27l5YtW+LdrBml9/DKyL3eSDNaZU9PjRp1c5+PjYWJE4WHYTAYmZnliypJJLcw4fGlxJfKvKIJL/0hM9GmxDB9vkMv3GSsb4hMNd4+NSEVo5HqEGgj9NOJQIOrEubvshNOvv3nWPw7JIZhOpmlf7m6dboSNJw+HUCZyE4lqTqJ8A0bhBxrbCwYKhzT04WH0b8/vP22a9cnkVR7UonwSSHQPKSVGUe/KbAoRoR7DPcBECG+odurs9HN4NFUkqlB/jZDVDXBO6gpKGs0Hnnkxj63di2EhwsPo0sXMfbPP8JglBZVkkgkdm20QClvw482fdZxPBOMcmlZWWzp4G8M++Rsmsyq1qKfW3h0OIeCE+jXzbHfzG8+wZ7FhleDOf7mLtosLC90ZxmeMj9dVV25HBICwPnz550q+bps2TKFjcbcuZX/zOrV8PHHwsO4/34xVpGokkRyyyPyAYNiUonwWUebcnpHlU4OW5LA8SyT0cg5eZTwwGALUab1R7I4DtC6F4uiE2jePpo2Diyqs9sAljIuOZsmi8Q7UzluuBaTwqAY0z3W/y2qL5dHjKA4LY28vDynzfntt98yZ84cF4enVq6EBQuEwejYUYwdOSIMRmlRJYlEYkYnAsMSiErKZZB56CgzjqiIQNYfKW+TbEybDrD5ZK4xP+Hbfw5h5LLhVdGKRNR9iAS14Xpimr91qdabxLanIfIqx0u9H4z+6LED1iSxJDU1lZCQEGJiYhROhE+YYH8bkaVLYdEiS4Px++8wYAC89ZY0GBKJDboFjmbL9mSLY6Y5SQls6RNIYAURi26hpkTwluAn9cnvTAbFVLxxdwtNITFsMd3NkuSuRXhbumoeYroZGr/xBu5aLc30RX6O5NKlS4SEhBAeHk5QUBBqw5ne8jDoaZSUlNg8lqXT6URTwTFjbK9i0SJYs0YYjLvuEmP/+5/wMEqLKkkkEqwdtS1bPZ1QZiw8PoXXTpoXxJXTFt3iSO5oEs2MSLdQs/oQhbE7PPWmtavWjiKXymlgZ2V5FabWwYPodDq8vLwovYfrdDpjHUZFVGZvf/fdd+nduzdDhw4V91+7dk2R/wvZ2dm0efFFVLGx1us05s8XbUG++ALa6COrFYkqSSTVGKkRfmtQUnKdtIOruCtwudPmLG7enB+XLqVNx460aNHCYfOEhoZy9uxZoqOjjWOKyr3aVMybOxe2bBEehqFY5OefhcEoLaokkUgkknI5/c03eJ45I76st2ljcc3Qj8pWcZ+tvX3evHkcO3aMJUuWYLATH3zwgbJyr6quVrJZc+bAjh3CYBgsY2KiMBRRUaKATyKRSCQ2KW7WjJLLl3FXqcq0C1GpVKjKGTfH1t6u0WiIiYnh22+/NbYbWblyJT/++KOTTk/NmgU//CAMhqGCsTxRJYlEIpHYxO38edy1WodIuu7fv5+QkBB27tzJ7bffTnp6Ort27SI8PJydO3cqfHrK37/s6amPPhIiSuYG48cfxSkpc1EliaSG4e5Rh+KifFcvQ+JgiovycVfXceqcvr2ExojSHW5PnTpFSEgIy5cv5+GHHwbgr7/+Mo61b99eYaNRmg8+gKQkYTAa608qfP+9CEWtWgXPPefQ6SUSV1KrXkvyr9wqfVdvXbRXcqjl08r2jdWAkJAQhg0bxov6dEFeXh7vvvsu77//Pk888QSgdMNC89jY1KniVFRsLDRoIMbi4oSHsX69SYVPIqmh1G36Ly6f/8fVy5A4mMvn/6Fu0385dc7Czp0BuHbtmmLPfP3117n33nuZMGGCcSwkJIRHHnmE4GBTvzJljUZysjhu+9578McfwmDUrSuuffMNvPKK6C9lUOGTSGowPi3+Tf7lLLTS26ixaK+e4dqldOr79XTqvOeWL6fYy4szZ84o8ryPPvqI8+fPM9esFdQ777xD3bp1GT9+vMW9yoen3nlH9I6KjYXatcXYtm0wYoQwGAYVPonkFqDZPYPIOb7H1cuQOIjTx/fQ9O5Brl7GTbFmzRq+/fZbli831ZnMnz+f3377jRUrVpS5X11YWFjhwwzHsgyiHtYoKSlB9+yzqHQ6+PprMBz3MogqmWtkSCS3CD7Ne1CQd5yMw9tocXcv3NUV10VJqg8lxYVk/hVH7YYdqO93g929bwLvVavQ+fvj1bw5pfdwQyW4Yf8uD8O1Xbt2ERYWxvbt2/H29qawsJCvvvqKZcuWsX37doqKiigpKbGYQzFPo9GMGagSE0XFt8FgxMaKflTSYEhuYZre8wp1mjzA8f/FcDGnqvRvktwoF0+n8s8vMdRp3Ilm9w51yRrqL1sGQOPGN94K5e+//2b06NEsWbKEjvr+fykpKbzxxhssWbKEli1blvs5tadnxS0ODJKANivCx4yh6PJlU1sQMIkqaTQmUSWJ5Balcbs+eDd9gPP/fMWZ/Z9Ru34rPGr52PTgJVUDnQ6KCvLIv5RO3aaduL3LZLzqt3XpmtRqNR4eHpTew+2Re7169SpjxowhNDSU5/SnWLOzsxk9ejSLFy+mZ09TjsbNzc1ijpsv7nv9dSgqInfuXLw366Vc1q4V9RnmokoSyS2Ol88dtOg8npLiArSXjlGUn4tOV3FTOUnVQaVyw8erMV4N2uHm7uXq5XDxgw8AOHPmzA2JML3++usEBAQQohdzAnFSasiQIbz00ktWP3tzRmPECBGKio4W0qxvv20SVdJoTKJKEonEiJt7Leo0us/Vy5BUY649/TTFaWk3dOT2vffeQ61W8/777xvHRo8eTdu2bZk0aZLNz9+40Rg2TJyOWrLENLZypchpaDRwn/ylkEgkkqrEokWLOHDggLGnFMDMmTM5ffo0mw2RIhvcWCL8lVegXj0Lg1F3/Xpx3HbuXGkwJBKJxIHc9sILuGu1lWqL/vXXX7NgwQJWrFhhzFGsXbuWr776yuK4rS0q72kMHCh6SH36qWls0SLqfvEF3H47tHVtckgikUhqOu5ZWQBlkuAVcejQIUJCQti4cSNt27ZFp9Px3//+l9DQUHbu3FmpU1j2exrFxaIFiJ+fpcGYPx/WruXckiVgRZtDIpFIJMpirRbDwNmzZwkJCSEqKsp4KurYsWOMGTOG5cuX01nfksRe7JN71WpxGzwY7rwT3ezZoP+Mat48VFu2ULJxI0WAbvt2eYRQIpFIHEzWgQNcP3aM48ePlwlRlZZ7HTlyJP369WPQoEGUlJRQUFBASEgIb731Fk8//bRVWVjD88zvURcUFFhfXX4+DB1KcYcOFM2YAfr71fPm4b5zJwVr16Jr1ozi7GyKGje2212SSCQSyY1RXFxMYWEhOp2OivbwgoICJk6cyG233cb48eON940cOZKuXbsSEhJSppq8ornM57Au95qXB4MH4+bvj27GDAx3qmbPhh9+QKfR4NmsGSDkXj0uXRI3NG1qx48tkUgkkhuh9pEj1AY869Sh9B5ukHv99NNPOXXqFF999ZXx2rRp01CpVMyaNatSUt7mc7i5ublR7uvSJdxfeokSf3/48EPT+MyZqHbvRqXR4ObraxxXqVSonnoK8vKU+5eRSCQSSRmaBAejUqlo2bJlmb1bpVKh0WjYuHEjK1asMI4vX76cxMRE4xhQ/t5fzvPM35d/eurcOXj5ZXSPPsr1CRNMN33wAfz8s6jDqF/fOf86EolEIrGbffv28fbbb7Nz505u06ul7tixg6ioKHbu3ImXl5ddCfSKKHt6KidHKOs9/jhMmWIanzZNiCpZMxitaoZ6lUQikVRlrj39NCCU9cw5ceKEsQmhv78/AL/++qtRrvWuu+666bktPY3MTHj5ZXj+eZg0SXTpAlRTpsCRI8JgeFnpu7Jly00vSCKRSCTWufjBBxSnpXH+/HnjWHFxMSEhIYSEhPD8888DcP78eUJCQpg1axaBgYGKzG0yGidPisK9AQPATKnJY8oU0VdKowErXRMlEolE4jpCQkLo3LkzY8aMsRh77rnnGDpUuRbuIjz1zz8iJDVwoIXBUE2ciCojA529BmPBAkhLU2xxEolEIilLg5kzcddqadiwIQDvv/8+165dY86cOcZ73n77bZo0aUJYWJiic7vx11/CYAwbBm+9Zboybhzk5FC4di3YW7D3+eeKLk4ikUgkZamjP0Zbv359Vq5cSUJCgoU066effsrff//N0qVLFZ9bzYsvwpgxYNZXnTFj4PJldOvXg1ar+KQSiUQiuXl2795NeHg4O3fupG7dugBs2rSJtWvXEhcX55A51WcHDiQvKMgYVmo6bRqqwkLOREaiS0ujpKTEeFbXGlqtlkujRiEP4kokEoljyZg3j+SDB5n16adERUXh6elJWloahw4dYvTo0axcuZL8/HzSKkgXGFqD2Lu3mz9HpTM/sDtihAhF6d0cg9yrl5eXzQenp6fTSh65lUgkEodz5MgRBgwYwDPPPMOsWbMAyMjI4KmnnmLq1Kn069fPqtzrzeztpjqN4cNFstssLiaRSCSSqkdoaCj+/v4888wzxrGQkBBGjBhB3759HTq3MBqvvALe3pYqfDdCt27y9JREIpE4kHfeeYemP/xA8EsvGT2AkJAQOnTowHiz06+Owo1Bg6BxY1i48Oafpm+UJZFIJBLlmT9/PqmpqSzVd+Vwc3Pjww8/5OLFi3zyySdOWYOa5s3BSZNJJBKJ5MbYsmULy5cvZ+fOneh69wZgw4YNxMXFsXPnTqetQ62owUhJUe5ZEolEIgHgwIEDhISEsG3bNlq1akXGt99yIDaWqKgo4uPjqe/EBrL2y71KJBKJxOlkZ2cTEhLCwoULCQgIACAtLY2oqCgmT55Mx44dnboe++ReS0psHsvS6XToDh1CVb8+tGun6CIlEonkViUkJIQhQ4bw8ssvA3D16lXee/11hgwYQM+ePcvItZaWey2Pyu7tlZN7BbslARk5EmJjbd4rkUgkEtuMHj2atm3bMmnSJONYSEgIQVlZ/CcwkIYNG1qVe7XFDcm9Ll26lHHjxpV7s06nq5QkoK17JBIJFBfmkX/pGEX5uaCr+NugpAqhcsPDqzG1G9yJu6ePU6acOXMmOTk5bDGTnHj33Xfx9PRkRt267PP0xNPTs0K5V1vFfTcq96rW6XRG6b/yHgzYVWquUqmge3er90gktzL5F/4k95+vyL90jDo+rfDw8rG7F6jEteh0cO3sZbJ/T6d2/bY0avs8dRq2d9h8a9eu5auvvrI4FbVw4UIOHjzIt99+y+UZM1CpVFy8eJGWLVtafFalUhklWiv+ef6/vTOPi7LOH/h7hhFQFA88OLwtFUsqAw2stqASt7QULRM2bVByzfzV5sombG01k2LZbmXWeox5l4muuZVWkl1QQpZ2qOt9cHigggeHMPP745lnmBnmZgZQv+/X63npzDzP9/udg8/n+X5O92S7+Vi22716yptvenU4geBq4fS+Dygr+oaO3YbQte89Tb0cQQMoP7Wb4l0LCA6Lo1PfR70+/rZt25g5cyaffvopISEhAGzcuJH58+fz6aef0qJFC84/8QS1Bw7U69zXGKiKiooafVKB4Fri5G4d1ReO0fvmx1Ao/Zp6OYIGEtwpkjYd+1H0v82c+H0JXQakem3s/fv3m1qz3nzzzQDs2LGDtLQ0PvzwQ3r16uW1uTxF+cMPP3hvtJkzRRkRgcCMsuPbqDi3j679HxAK4ypCoVAS0e+PVJUf5NyxrV4Zs6qqirS0NJ555hlGjBgBwMmTJ5k8eTKvv/46d955p+nckGnT8KuspHPnzl6Z2x2UO3fu5NixY94ZLSfHO+MIBFcJJ/+3htBef2jqZQh8RJdef+DU/97H4IWAhrS0NG677Tb+/Oc/Wzz38MMPk5ycbHFuwPbtALRq1arB87qLcsiQISxZsqTRJxYIrnbKCr8iqF0PAoI6NfVSBD4ioFUIrTv0oaxwW4PGycjIQK/X88orr5iee+qpp+jatSvp6ekNXaZXMSmNS5cuNXw0bxQ9FAiuEi6e+pE2HZreBi3wLa079OLiqR0eX//uu++Sm5tr0a41KyuLo0ePMt+OTD3x0UcAHDlyxON5PUXVtm1bhg8fzsKFC5k6darFi3JYVnV1tdOwLL1eT010NCqVdwOyBIIrlcrzx+nU9ZamXobAx7RsHcqpI3keXfvxxx/z2muv8emnnxIYGAhIRQjXrl3rsAjh5c6dqSorQ1VdXS9BT87eNu+vZ427st18DpWfnx+TJ09m8uTJ9Wqxy92dXEkAUSqVQmEIBGboayrwUwU29TIEPkapCqS2xn1Lzc6dO0lLS2PFihVcf/31AHzzzTc8/fTTfPrppw6d3KrycgJqalC2bIm/v7/Fa7IicKVzn6uy3XwOJUBMTAzXX389q1evdv5OHREdLaKnBAKBwAlnzpwhLS2N2bNnEx8fD8ChQ4dM4ba33nqrw+tD77sPgJ49e/p8rdaY0vxSU1OFQ1wgEAgagbS0NEaOHMljjz0GQE1NDWlpaTz55JM89NBDTbw6xyjl5L7ExEQMBgNbtmxp4iUJBALB1cszzzxDx44dycjIMD2XlpbGoEGDmDZtmktjVA8cCEBFRYVP1miP/fv3o9xujPcFL+w2CgpEWXSBQCCww7x589i3bx/vvvuu6bkXXniByspKsrKyXB7n9JIl1AYGcuLECV8s0y4ajQblTz/9xPHjxwFITk5m7969FIgOfAKBQOBV1q5dy/Lly1m4cKHpuUWLFvHll19ahNs2V/7zn/9w8OBBKU9Dp9OZXmjQbmPTJuEIFwgEAityc3OZMmUKCxcuJDw8HIDNmzfzyiuvsHDhQoKCgtwar/Xy5fhVVtKmTRtfLNcmWq2WzMxMlIMHD2bx4sVcunQJvV6PWq1m06ZNHDx40BTvq9frnR4GgwFefLHR3oBAIBBcCRw7doy0tDQWLVrEkCFDAPj1119NkVL9+/d3e8zg+fMxGAy0b9/epix2RWaD67Jdo9EQHR3NPffcIyX33Xvvvfz73/9mypQp+Pn5MWHCBBYuXMgLL7wAuN7dyWAwINoDCAQCQR1paWlMmjSJpKQkAMrKykhLS+PFF1/k3nvv9XjcamNin6879+3Zs4f58+fz3XffUVVVhVKlUpGWlsby5csJCAggICCAtLQ0li1bZppU7g7l6PDz8wNjD1uBQCAQSApjwIABFonTaWlpJCYm8vjjj3s87rnMTPz9/Tl37lw9WaxUKlEqlQ7ltZys54psX7BgAZmZmfTq1UsaX6FQMGTIEPr06cPatWtRKpX06NGDpKQkli5dCmBahKNDoVCg+OtfRfSUQCAQAC+99BJlZWXMmzfP9NyMGTMIDg7m+eefb9DYl0aORN+yJZWVlTZlsSsyG5zL9nXr1lFaWsq0adNQKpVUV1fbT+4TyX4CQdNSsm4miuBoq0OH/SpHpayeEI023/bzSetKLR4rsnbZHSkvy/x8a3ahDbY1jyO8fY2992p5rcVnN2EzJbaed+szdo2lS5eyefNmi0ipf/3rX/z6668WzzVnLl++jEajYfr06abnNBpNlL2K0gAAIABJREFUndIYPnw4NTU1fP755wDccsstDBw40L3SIo8+KqKnBIKGUriZpOBowg6kYCgvsDqiyTEJwPr0GhBPZoKV0MvfSDIa3h4TUvd4w1Ry06PcXNNMVhd6+J7yC8hkKvExrl9Ssm4lmUBmgqVQ1+ZDyboskjfUf00RLCu7KDLKCzDs1jCaeFbtLsCwLJFQ49iarcbP0/z18gIMW6c6WJFrfPHFFzz//PMsXLiQtm3bApCdnc3ixYtZtGiR01pPrtB59Gj8KitNkVi+QKPREB8fz2233QZAQUEBq1evxqLzuPXuQq1W895777k+y7593lmtQHCtkq9DMQveLi/AYFOoG4XhtCLC6t0RhxCbns6qUQuIM+0iSlk9fwFsyCRMFqwJC4AFxNUTtO5hKbDN12LcyZgLcxtzOryzL9zMk+r+5JYXYCjXoTET7KlHZhK2KZ5ioyLNzQAydCbFmi0rxyZgz549TJ48mYULF3LjjTcCsH37dlOkVLdu3bwyj8qYW2ddrNBb/PTTT7z33ntkZmaanjOF3JqfmJKSwu+//86OHVJt+HvuuQd/f38++eQTnyxMIBCYUbiZpPnhFJvdEVsLYJNwj1Fj2IqZcpAJYfy0qfB7kbQTyd9I8gazO2kbQrZO0NbNFaeF9ephDk01prv18gIM5WpizdewzOw167v5eof5tQC70EZmMmir/HwUGeXpxBs/j5xNOWim1X1Gsen2FKx9TAovMpP15JAcaa7cPOPixYukpaUxa9Yshg8fDkBRURFpaWksWLCAuLg4j8dubDQaDZmZmXTs2BGAZcuWUVNTg1qttlQaUH+3MXHiRNd9Gxs3QqAoBS0QeELeyhySXjFXGLvQBg/j0DRr4W4kRk1xn5X17foxaskUU7iZJLeEYJ2wz82A0botNgS6++StzGR9RgrjIxyclK8zU1BRZGydarWTGUZYpPSvPbOUO/4IX5in0tLSuOuuu5g8ebLFc3/605945JFHPB7XFkXbt1MbGMjhw4e9Oi7AypUrqaioML2P8+fPm5QIYFtpbNiwwdQRasyYMRw5coQffvjB+WwREdIhEAjcZBc5v8cTb/bnk5elZoduCxkO/AChsfHsyLHt0M5bmQk6DRrzO2njLgKt2mVBm5dlfUeutulrsOlYz9cRp52KBrXFubKiy8uS7/Aht/xBepn7TEZpTCYol47dGkabfZ5a652EA8d/Q5F7U7z00kum5/785z9z3XXX8eyzz/psXm9z4cIFCwUB8NZbbzFmzBhTYmK9rkmtW7dm0qRJLFmyhBeNGd5qtZrFixebLrLL2bPSv+3be+ktCATXCIVFMCLGYpeRo4X1DEOhrjtNs7XAUolExJBEPiVEcSjLqBBAErjLCshmF1p1PKt2zzXd6edlRROHzmWTjmT+sXwuLyua1/psceI/2IVW3unEm42Rr0OREE2mvM5ys92V1T3noXUzCVPnuLDKqeTuNncKS76fjMLNJEXmkGR6/75RHLW1tSxaVFeOSavVcvLkSbKzs30yX4vdu/HT61G1bOnVcbVaLSNHjjSZ0nJzc/n888/Ztavuc1OVlpZywCri6Z577mHs2LEkJSXRsmVL7r77bmbPnk1OTg49evSwOVllZSWXR46kRXa2UBoCgZewUBL5OhQJM+llpgDMkYV7ybqZhG3yxuyFrJ6QBa9I87mnbEpZPUFN5iiNhY+mxEwJ1FOA5sSoMSyDknU5RgVobrazIl+HIgGISCS73LV3likrLSPrI6NJNj1y30TVsmVLU+fS5cuX89FHHzls19pQOj72GF/Pnk3X4OB68lsuESLnYthCLjUi53WA1ElwzZo1bNy40TTmrFmzSEtLo6SkLlZPFRISQh+rhLw+ffowZswYvvzyS5544gkCAwN54okn+Oyzz5gzZ47NRRw9epQWot2rQOA7YqLRsIDsvFLGuxUhJJlnki2eU6OQdyXY2IloAVaa7tBL1s0kTjuV3HJbCmMX2uCVFsosL2sYyQPMFcwutMFqMplKbnkKOcFqG+M0BsYdiPyw3k7EM2QB/eWXX/K3v/2NTz/9lA4dOjR4tfZQKBSEhYXRo0cPIqxcAu60ew0MDDQpjaeffpoXX3yRm266CZAq8IaEhPDoo4/SvXt307V2VVFqaqrN6rdnZROULYQ/QyDwjIhw2JRvlnsRQa9RsONI/VDYQT3MFEZhPtmE278LB8BZ9FSd6UYbHE1OvOwIT5eez9cRpoZVu207xfOy1GSaO7rzdVY7EqPCyNB55lg3Dxe2dTQg4smb7Nu3zxRaKwteX1FhbPd6/vx5r4yn0+lQqVRMmDABgFOnTqHRaPj73/9e71y7SmPQoEFERkayZs0aAMLDw0lOTnYcSbVxoygjIhB4RBTxA3LIMTmCQ4gfEc969UaTk1pKdrNMkCvJy2FQvHvhpo7WkFFubTLahTZhT91OJF9ncqYP6hEi7Up+11BsbrKKUVuYsPKyjGYqN8NiTbjkEHeijPJ0UkKkcf2mwzrk1spR7w6VlZU8++yzPPDAA569Tzc4q9FQGxhIaan7+TXWnDlzpp7zW6vVMnHiRG6++eZ65zu0J6WmpqLRaEyFtVJTUxk7diwzZsxo8EIFAoElsSnxvDZrM/FG+33omLnkHogmLli+k55KrrlwzNdJWeNjnI3szDyFA79BFBnlc+sexqgxlKuRdyVxzvwNRoe+Zqujc5ywIZOwDZnOz6u3FinfYz2wflO86TVp/Ua8ZJ4CGDhwIAONbVivJDQaDePHj+fWW28FYNu2beTk5PDjjz/aPN+h0rj33nuZM2cOn376KX/84x8ZOHAgMTExLF261HaFxgULYNgwsdsQCDwhIpHsadIdsSzgbEUuASbnbz0fQ+FmnlTnAP05tAxCrW34XkD2eYzWbcHgUfa1tCaXcaqYkD6P+VaPExZI+RhulC65Umg7Zw5+I0bQvnPnBo3zzTffsGXLFgsFIe867PlE7LvXjVgn96WmprJ48WLbJ5v5QAQCgQfEqDG8Ak/ay3uQ8w/mh1NsbZIp3ExSZCbotmDYHc5rHppZbGFePDHud8lc5Fq5jihSdfFkJjSgbpUnxKgx1DO1XT0ErV8PYKpt5SlarZa///3vBBqTst9++206d+7Mww8/bPcap+FOY8eO5Z///Cfbt29n8ODB3HXXXbRt25aPPvqIkSNHNmjBAoHABhGJZJcnGgW1dY7CVKkek43L8lZmMsgUxiqNkZclJc65gmZrAfE5dbkemq0hJkW0nqnkls/1KDs8dMxcDLGbSapnIrPC3o7CDfOUQ4y7D1usr7c2K1PgVciiRYto164d44x9kAoLC9FoNGzdutXhdYrXXnvN8Mwzz9h80WAwUF1dzeLFi/nll1949913Aali44oVK/jPf/5jOvfYsWN0z8tDERMjzFMCAbD/yz/T+5bHUPr5pqicoHmg19dw4MclXB/feCXPT27YwJ7AQAI6dCAmxnI7dfnyZQCHIbfFxcUMHjyYjz/+mKgoycT55JNPEhERwaxZsyzOPXbsWF2hRYMBVU1NjdO2gCkpKURFRbF792569+7NAw88wNy5c9m2bRuxsZIurq2t5fLo0T6ruigQCAQCiUu33ELF3r3UXLzoUbvXl19+mdTUVPr160d1cTF5mzZRnZPDTI2Gmn//G0VpqXScPk2noiK4cAHF6dNw5gwqlUpFQECAzYHlnUZwcDCTJk1i5cqVaLXS3jU1NZUVK1Zw1113AeDn5+dQswkEAoHAO/j5+eHv748t+X355EkUp0+jKiuTBL3VcXrPHqb+8gs3hoWhnD8fOnSgy8mTaPv2pcV//wsdO0JICERGQseOlOv1BA4YgCEkBDp2RCW3BrSFwSBZTpVKJZMmTWLQoEGkp6fTrl07Jk+ezKuvvsr//vc/+vfvL7V7veMOWLZMmKcEAoHAW5w7V0/wRzz9NIr77qO9Uoly3jyL1/yDgyEkBEWnTpICkI/rr4fYWLQ//8z9Wi19R40iICKCf77xBrt27bLbO6n66FGUZhnhLtf9iIiIYNy4cSxZsoRnn30WPz8/U2HDV199VTqpsrJhH45AIBBc7ZSV1VMCDo/WrS2Ff8eOUFtLZWgoVTfeSFDfvhavXdbr7ZYReeONNyi98UbumT6dyspKDh05glardV7F/MwZ03rcKhaVmprKuHHjTKV+U1NT6d+/PzNnznRnGIFAILiqaFF8HvLz7Qv+U6fq/t+qlWT+sVYE3bvDoEH1n7ch/Gu3bKH4j3+kRWQkHayLyFZX21zj0aNH0Wg0fPvtt3D2LIrCQt6fNYtFI0dy3TffwIYNNtfe9eRJ6NDBtGa3lEZUVBS33HIL7733HhMnTqRz586o1WqWLFnC+PHjocCNhB2BQCC4Suj4zvfQKsNS2EdEwE031fkI5Oft+JDdoWTLFmoPHOD48eNS5XEzE5aypARFaanUqsJM+Ff/8AN7FQo6DB0KbdpQ4edHfGkptz3wAOzaJa2td28YPLhurSEhHK+ooHuvXqa53S5LO2nSJJ5//nkmTpwISLuNkSNHmmJ9BQKB4Fqj+KV7vRty68SE1fHYMYKLivAvL4dLl6Tdi1HQKzt0kP7fuTP07AnR0fywfz9vHjzIqi1boGNHDCoVw4YM4R9vvgl//KPjtRw9avHQbaVx9913ExQUxKZNmxgxYgSRkZEMHTqUDz74gPThwyEoSDjCBQKBwJzycue+i9LSuv8HBtY3U8kmrFtuoWrHDg4++CCqXr2Iio8Hs1SHGmNpdKWZWeuZuDhmvfIKhIUBkDVnDgMHDjT1MncHjxpgyA7wESNGmB4/9dRTpH/4IXzwgSdDCgQCwRVLm8/3wc5/1hf+8uHvb1sJmJuwzA8nJqw2//d/XFy6lN4DB1ooDFu8+uqrREZGmqrv7t27l3nz5vHdd9959F5VtbW1VNtxnMght3JTD5mRI0cyZ84cvvrqK2JjYxk8eDAhISFkHz5MkkfLEAgEgisYBZJJKSwMBg6srwSMtZ28SU1NDZcvX64nv+XOfQaDgf379zN79my+//5703kvvfQSzz33HN26dasn222h1+st5vC41d7jjz/Oe++9Z8oIf/jhh1mi1QqlIRAIrjnO33M9ofH/aLz5jM2Szp49S3h4uN3zZs+ezaxZs+jZsycAGzZs4Pjx4+h0OpNycRelnFlo7wBsPv/EE0/w1VdfcejQIfz9/UlMTORcRARfHT/u0UIEAoFA4Brnn3wSRevWXLp0qZ5sViqV+Pn58cknn3DkyBFmzJhhyh7Pysri+eefdyjbbY1n8djTRatUKlMLWBnrxwKBQCBoGqy78Wk0GuLi4khIcLHssR08VhpQ5xA/ffo0AKn79/PDt9/y66+/NmhRAsHVgEKpwqCvaeplCHyMQV+DQumxpd8jQqZPx6+ykk6dOtl8ffbs2QwePJj7jL3Ed+3axcKFC232/HaXBimNLl26MGHChLrdxeefkzp2rNhtCARAi5adqKo409TLEPiY6ooz+Le0Lbx9RcD33wMQFBRU77Xff/+dd955p17P78zMTLp06dLguRukNKButyFHWqU+/DArVqyguLi4wYsTCK5kWnUYwMVzR52fKLiiuXjuCK063NDUyzAxe/ZsnnvuOZODfM2aNZw7d44pU6Z4ZfwGK40BAwYQGxvLBx98AP/6FyHt2gnfhkAABIffTtlJYaq92jl34jeCw29v1DlPbtgASPWkzFm7di2nT5/mz3/+MwCVlZX1fBsNpcFKA6Tdxvvvvw+33w59+piUhr38D4HgWsC/VShtugzm5BHPkqgEzZ+TR3Jp3fkW/IPsh736gpqICGoDAy3CZqurq9FoNDz33HOm5zQaDYmJidxxxx1em1tpMBjQ6/V2D8Dh63q9nqFDh9K+fXvWG5ud9+3bl4SEBLHbEFzzdI6cyKWyQs4W72zqpQi8zNmSXVwsO0qXyMcbfW7lhQsoKyos5PDLL7/M3XffzR133IFeryc/P5/Vq1cza9Ysj2W7Xq/HWkco5Xavtg55p1BdXW33HPkYO3YsOrUaDhwARPitQACgUPjR9dZ0yk7v48ThrzHoa5t6SYIGYjDoOXH4G8pO7qHroHQUysbvWBoaH091dTXh4eFUVVWxfft2li1bxl//+lcLJZKenk6rVq0aJNtra2stHrvU7tXf399pqvnw4cNZNmMGX+fnc2efPsTGxtKtWzfWrl3Lww8/7PUPTSC4UlAFdqBn3GxO7lnGvvx3adv5Rlq1jcA/sB0KhVcsxAIfYzDouVx5jovlRZSd+IV2EXfQc+j/IdUPaRrkZLuAgADmzp1LZmYm4eHhXL58mRUrVmAwGJg8ebLNa92R7X5+fhY6wuV2r84GVigUpHbsyJK1a7nTWCY9NTWVt956SygNgQDo3H8CHXo9yPmS7yk/u5vLFTvB4FkpB0Ejo1DSomUnWrXvT+++E1EFtG/S5VQPGIBCoaCqqorVq1dTVVVFWloaAOfPnycrK4tVq1Z5Tbabj+PVjJRJhw8zt29ffvvtN2644QYeeOAB5s6dy9atWxuchSgQXA2oAtrRvkci7XskNvVSBFcwp997j9oDBzh8+DAajYalS5eaXps9ezajRo1i8ODBPpnb63tjUVpEIBAIGodly5YxcuRIU+HY3Nxc/vvf/zJr1iyfzeldpfHxx0xKSGDZsmWUlJQAMGHCBHbu3MnPP//s1akEAoHgWqX1ypXs/flnvv7663r1pZ577jmbmeLewrtK44UXCGnfXuw2BAKBwIcEv/kmy9es4S9/+QvBwcEALFq0iFatWjF+/Hifzu2T0A25tMjly5cBSWl8+OGHHDt2zBfTCQQCwTXF0ooK/Pz8GDNmDACnTp3yeua3PbyrNIxvoG/fvtx9992m3UXbtm3FbkMgEAi8wJkzZ3hZpeKxRx/l1KlTgGSWmjhxIjfffLPP5/eu0vjb36BPH8C+Q7yiosKrUwoEAsG1hEaj4cHx47lu4EAuXrzItm3b+PLLLxtllwGgKi0t5YAxi9saOX3clVjeyspKTpw4YSq9GxcXR0REBB9++CFjx46ld+/e3H///SxevJinnnrK629EIBAIrna++eYbPvvsM1atWsVvv/2GSqXijTfeYPLkyabihXKJEHs5GuC+bLfQEfPmzTPYQ6/XGy5dumTQ6/V2z5E5cuSIwZCSYjDs32967qOPPjIMGzbM9Hj79u2Gm266yelYAoFAIKjPfffdZ1izZo2h8rbbDF9/+qnhH//4h+HRRx+1OKeqqspQXV3tcBy3ZbsZ3jVP7d5t8XDEiBFcvHiRnJwcAGJiYrj++utZvXq1V6cVCASCq5133nmHdu3aMW7cOFSHD3OqtJS333670cxSMj4vfCPCbwUCgaBhlJSU1IuOWr5mDY8//jgDBgxo1LV4V2lkZ4PKsjLJxIkT+emnn9i5UyoNnZiYiMFg4LPPPvPq1AKBQHC1otFomDJlCgMHDgTg/blz2bNvHyNHjmz0tXhXafToIR1W2NptLF682KtTCwQCwdXIF198QW5ursUu48358/nTY481yXq8qzTKy6XDitTUVD744AOOHz8OQHJyMnv37uXHH3/06vQCgUBwtSGbpeQop9dff52e7dpx5623olJ5teasS3hXacTHgzHZxJx2NvqGi92GQCAQOOaNN96ge/fujB49GoBDhw6h1Wp5+aefAOjatWujr8kr7V7lloCOsE7uS01NZdOmTRw+fNjnb1IgEAiuNI4cOYJGoyEjI8P0nFyQsI+fX702rPbas3pDtps/VsntXh0htwZ0RG1tLfrOne1uXfr06cPw4cNZsmQJ06ZNIygoyKRIXn75ZZc/SIFAILgW0Gq1zJgxg379+gGwadMm9uzZw5IlSzj/889UV1dz5swZOnbsaPN6Z3IdXJft5mN5rd2rn58fio8/Bgfnpaam8sQTTzBt2jTT4yFDhjBz5kzatGnjdPECgUBwLfDJJ5+wa9cuFi5caHpOq9XywgsvAHBu9mz89u+nvLy8nvyWC8W2aGG/d7m7st18DqXcys/eATh8XT4UCoXTyQcPHkyfPn1Ys2YNAN27dycpKUnkbQgEAoEZ1jkZc+bMISoqiuHDh5uesye7ncl0T2S7xXNefaf//jfYqWMlI5L9BAKBwD6vvvoqAwYM4IEHHgBgz549vP766xZKpO2rr+JXWUm7du0afX3eVRqLFjk9Zfjw4dTW1pqS+2655RZuvPFGVqxY4dWlCAQCwZXGvn37mDNnjoWC0Gq1ZGZm0r17d9NzQR9+CHAVKA0XEbsNgUAgqI9slurZsycA2dnZHD9+nOnTpzfxyurwrtJ45hmXTktJSWH37t2m5L577rkHf39/PvnkE68uRyAQCK4U/vOf/3D48GGeMcpRvV5vtxtf6VtvAVBUVNSoawRvK43kZFMTJmeI3YZAIBDUYSsn4/bbbychIaHeuVVDhlAbGOhSyKy3aRLzFEhKYuPGjabkvkceeYRDhw7xww8/NNWSBAKBoEnQaDQMHjyY++67D8AUbtvYZc9dQVlbW0t1dbXdA3D4unzo9XoMf/iD0+gpmdatW9fbXUyaNEnsNgQCwTXFb7/9Vq8vhuz8ljuhWhN2++0YLlwgNDTUpix2Jtfdle3mj1V+fn74+/vbXJjBYKCystKlBBClUoni4kW3PqzU1FRiY2NNyX2pqan07duX/fv3c91117k1lk0Megz6moaPIxAIrm0UShRK3xQHlP0W4eHhAKxZs4Zz584xZcoU+8uprkalUhEYGFhPfldXV6NQKJwm97kj283naPwSiWb06NGDUaNGsWTJEp5++mkCAgJMu4/Zs2d7NOalM7spL9zGxTO/UVt9AYXS/gcnEAgErmAw1KJQqmjVvh/B4XfQpstgr4y7du1aTp8+zZNPPglARUUFGo2Gd9991+F1+uBgAGpqGv+mWDFv3jzDX/7yF5svytooMDDQqTY6evQo3eWKiw4amluzY8cOJkyYwC+//AJI0QA333wze/fupX379i6PU1t9npLfFnH5UiHtutxI6/a9Ufm3dvl6gUAgcIS+tooLZw9TdmoPer2BLgPUBAb38ni86upqoqOjeeutt/jDH/4AQGZmJhUVFcybN8/htceOHePAgQO0aNGCoUOH1hvX1Z2Gy7LdLEfEu45wpdIthQEwaNAgbrjhBlNyX3h4OI8++qhbvo3qi8Uc/j6DwJat6Rk1nnZdooTCEAgEXkXpF0Bwx350i3yQ9l0iOfrDi1w4tcPj8TQaDfHx8SaFUVBQwOrVq5ul89sc7yqN335z2RFuToPCbw16Cn+aR0j4rYRE3Or23AKBQOAuwR370XXAKIp+fpOqC8fdvv6nn35i+fLlFgpC9m24YmEJ/Oor/Iw7hcbGu0pjwgSPLrv33ntp0aKFKbkvKiqKW2+9laVLlzq99uTeFbRq2412XW70aG6BQCDwhFbBXencK56Tu99z+1pZQchlzZctW4Zer0etVrt0fYe//hWA0NBQt+duKE2Wp2GNJ7uN2ssXOXvsSzp1v83XyxMIBIJ6tOtyA7WXy7l0ZrfL16xYsYLKykomTZoEQFlZmd3M7+aIdzv33eq5eWjcuHEWyX133303bdq04aOPPrJ7zYUT2wnuFInSR6FwAoFA4Iy2HftxviTXpXMvXLhQT0FoNBrGjBnD4MGuR2Rd+NOfMBgMlJaWXtmd+6rfestuzocryLuLIUOGWDweOXKkzfMryvbRqk2Yx/MJBAJBQ2nVtitlB7a5dK5Go+HBBx8kNjYWgNzcXDZt2mSqw+cqZ6dOpWLvXmpOn7Yrv6+Izn2OQrxcITU1lX79+pmS+8aMGcPcuXP57rvv6oWVAdRUnqFF234NmlMgEAgaQouAYGqqzjo97/vvv2f9+vUUFBSYnpN3HUFBQW7NKSdl25LfV1bnvr//3aPoKZnAwED3fBsGA+D4DQuuBHahDZ7J6kLfzpKXFU3SulIo3ExSsI48304nuFZQKDEY9E5Pk0uDBBsT8xYtWkSrVq1ISUlxe8oOf/kLqqoqunTp0vid+3r37u32gu2yeXODh0hNTUWn03H27FnT46+++oo9e/Y0eGzvswttcDQKqyNpXalH47h/nZcp3ExSE6wjL0tNZkYK4yPkZ0pZPaH+51p3eCbwY1M0oN5IXkQiMzIW8Jqb77Nk3UwUWbs8mPlKxtlvcxdal78P6Xtt8t95E7BkyRJUKhWPPfYYAKdOnWqQ8zvw228B3N6heAPlQw891OiTOiIiIoJx48ah0+kAUKlUzbJsel5WNIrglfTaXYCh3PJ4mywUwdFo810bq2TdSjKJJyk2xOX5S9bNdCBUrQ4XBV1JXg7r3VyHpGg83CXk69Bm6Yj7XUNxehSygNLmhzB+WQGG8i2sGgWjdVvqPt+tUz2YyIiZsohN0cCmfEpcvDQvK5owdQ6aPhH2rzEqXde+F3uC1qgwm7lyqlOgUaTq9ritgK8lzpw5Y9P5PXHiRG6++eYmXJlneDfsyEnqu6ukpqYybtw4nn32WdPjyMhIZs6cSadOnbwyh+eUsnrCMA5NK8CQbvuM0DFzMYwx3lWN2EL2GEdCuJScTTkAJEdGk2z3vKnklquJtZjDyVLzdSgSFqCJj3JyIsAulqhdWMcoDcXLEjFFhxcVsZ7+zIiwd4F9SsLDQZvDqt1qQjEqz1EaimMszxvUw+rzGxWO7eINu9AGq3F076bZWkB2DEAi2ctcWaX0fSdviGfV7rlmuyEbRCSSXZ7oZDzjGjOiTd/llUjomHRWTchideFcxo9JYVDwRvLGqL33ngo3kxSZyXq3L3The2pkNBoNKSkp3GqMLt22bRvbtm2z8G24y8l16+D8eY4ePUpEROO+We8qDWM6fEOJiopi0KBBvPfee0ycOJEuXbrw+OOPs2TJEv72t795ZQ5PycuSFEZGDA5+2MZol4mWAAAZrElEQVQf7rItMCGL1bH2f8Ql67JI3mCpEOrPGU3c7/YEpYO15iyAURpSY1w4N0stCWxzhWCBUXhaPVtyZA9kpJjWXrJuJmFG5WObuj/q0IhEMrYWoYjU0Wt3OK+pYdVue/M7WNMG+fFUcssLMNg932hOdPg+zZC/31EaisvdWZcD8gvIJJ5VKa4o8uZMCPEjIGzlLsanR5FR7uX340QB52VFE6dtfgrCmq+//prPPvvMIjpK3nU0JHCopnt3ag8cQKl37kvxNs0muc8aew5xfRN8SCYKN/MaOklhgPGHbWWe2joV6E+vCIAQxi9L4dCszbZNGoWbeVKdg2arozu0Ug79DgwId09oFW7mNS1oprkg7PJ1xDk9t5BDG2D0iBiLcw4dyGF0n7q/2tAxc+uZ6ywPqz/yGDXFuj3ERWaCLt1KABRyaEM8vcLtrUk2Y8mHszvdKDLKt7CKTJ50Yk7Jy4pGEZkJui0YXFEwLlHK6vkLwMJ/43vysuyYuxoYEBA6Zi6G9MZXftJNlIZiq9+SKdChGSErCDn6aP78+XTu3JmxY8c2aFzFpUv4VVZ6Y4lu412lER3doOgpc+6++25at27Npk2bABgwYABDhw5tUt9GSV4OgxyaenahTVhgpQSiiB+QQ049m/8utJGZrM8wU0I2MQrrPu5JmbyV0h2y812GtObRui2O15FfQCbWpiJJodUzH3lCho7sMbB6guu+IM8IYfy0qaxXb7QtLI1+iTittGtxbFp0k/yNkpnLp7uM+j6R2BQNo7Ur6/udiopcNv+sVw9zyz/m0lge+N5K1s2UvhuTIq+LvItN1zHI3vfaBLzzzjt06NCBcePGAVBYWGiKoGooYXfdBUDPnj0bPJa7NNudBjS/PuKHDvQn3oFglW3y1oI6Nr4/hyz6v5eyeoLRHJSOZDKx9wdjNGe45ZzO10lb91ec3SHL9nWdU+GYl7MAmGr1/iWF1iDydYSp+5ObHoVk8ohnx5FSY6CBmkxySI40EywJC2BDJmFuBBrUIzyc0ezhkLUQNZqjBm11ZdfiLrJytt5NNZy8LPPPIoTxr1gpiYhEZmTkkLzS8jcmmRZd863IwQjFfVZK38MEO7tnN8aqdzjdtUh+N+ubslQdxvcWRbwHUXG+oLi42GbP72nTpjFgwIAmXFnDUR1wsDOQ08flWF1HVFZWcrmmBm+2PJKT+3Jzc4mLi+OOO+6gU6dOrF+/ntGjR3txJm8g/6DnuiyoDelRUFhKarkOgtUotGDp8DaaM0ZpiHdV0BRuJsm4c3AsnKzW4WTNOVrsCBhH5iPHSHZp6f9xwQvqXshIITu9AEPKZpIii5hhJsBL1s0kbFO8az4Je0SEM8jTaz3C7CbBmzsX6mz7mvhSwDh2RAxJozJJNvobAGLjp0JCAXnpUabfVs6mHEaPsBPNYQdTAEa+DkVwdP3ACB9iL1AidEwKmmDje0svILsR1uIMjUbDlClTGDhwIABbtmyhoKCAd955xyvjV153HcXFxdQEBFBpZaaSTfhyLoYt3JXt5npC1adPH4cDu9Ooo8XPPzs8xxPk3UVcXJzp8aJFi5qd0rD3g7ZEEh47dFswyMIjIoRQQsgoLyDD6NiVBGg8q3T9jVE7rv5RGk1egONPx8Y6nL03W87bwiJ2gJWDXlJGbC1wYnaD2HQ5Aq0uIi0jfDNJs4ooIYpQo/lkhtMVuonNdSP5qLYWoUiIdlGZukZeltFZP8orwxmpCwLQbJ1r9VlLJrhkcyUR8yCrRg3jtXUPSrvKwnyyN8ST9IqHSixGjaFcXac8vPh52ePQgRwYkGLjb8EHjvgG8MUXX5CXl2fh/PaWWUrmzOrVdDY2YbKW4VdWEyYfkJqaypdffsnevXsBeOihhzh79ixfffVVo6+lV5895NgyicgObTuO5LycPca7cclxa98UZJ6fkEOy2h2nqdnOYetUyW5s10bsbB3135urZpWSdSvJdOqnMV+zZY5HSV4OmDvb7YbXek5JXg7rR8Xb3r3FqDGU69Bo1Si8kKUu7QSmkluuQ7MhkzBvZKIXbiYpWA4DtqOcY6LRsMDs92r5neetzGS9NxzyMWrp9/q72ue5Jb36xPt0fG8hO79lYfz666/Tu3dvHnzwwSZemXfwrtLYssVrjnAZlUrFpEmTmoVvIzQ2nh059f8wHDudd5Hzux0BZRejr2CUnPTmDCtTU4waw24No7XqBtmezUNO37alYOqZeSSTh2t5IRjv+OVIszrWH/BhPREnCl4iiozyAop1Us6Kp8KwTmGoiZUjt0YtIK4BykiO6lqfoasfiWbjPdhUKLLPy2sOeePNjo93GqE9+oO2oNk4um3xxhtv0L17d5Ml5ODBgz4pex60Zg1+lZW0bt34HUq9qzTMnD7eRFYSp0+fNj3+4YcfuHjpkk/ms0tEIjNQWzpgHYa2lrJ6wkp6OXVIW46XFOwsZ8KMfB2KYKOpyfyPNiKR7N0aRm/IJMwTxWGeo+BwHTlWTn43KCpivZWfJLRHf/i9iBKMjlp3Q40dULJupimM1pWdkBQ+LO863NkhSPkgUlioudM2hPHLjLvISPcUhxQYIOcmNEBAm3xe3nfI+5yYByWl20yz5Y8cOVJPQWi1WmbNmsV1113n1bna/vOfAKYmTo1JszdPAXTp0oWJEyfW222cKPH4HtpjYtO30Gu+ebRKDG/bvKOTbM7ZI1z/43Q3NyAvS4om0my1Y2oyVxxu1gcy3c06XEcEvUbBjiNytIoU/ZSZ4JpAzMtZUD+UODyc0RuKOOToQncUidHmrgiOJkwNq3a7G0ZrvkNwIWLLqMQz7X525orDyXhma4/TStnsjncXjpGV5iB7v5dmTwjjl8lK3Neh2e6j0WiYMWMGffv2BWDTpk3s2bOHGTO87pVrUryrNEZ51dNngbzbMBgMpscnTp702Xz2kbbi8TnRks2bkHqCQaoLJTl2nf9x1hU9lO5MXbhGziUwnu/wrjkikexyHRoWEOdIcZjqJg0jGWlc53ezIfQaYGlOCh0zF8PW/pZhslaH/Mcem27jvUYkkm28Oz90wFFmuS1sFJBMQMoSt5VY6DLSd16siyczwV4CmVHZJuxxYScgjZebAZkJdoSfVi2FF48yfhfOvme71BV/DFP3J9fjcZoLktnNsFvDjgSr77ohptgGUlNTw6+//kp6el00mred3+aUzZwJSIUPGxuFQZbCNmiIh90XTJw4kdtvv93UJvGbdU9w623DadW2m0/ntY/tWkejdc7qTYFl9Ivrf8hSmY7+DsuO2MQsB8Fyrrr34M46TOTrUMwPb2DYpVn0VAymmlmOaZoSEjZDfu1+ts4w/gYG+CLyyKzESoMim6Tfxw6XftNGXPr+7OG4pE5zRK+vYedXb1Dkl8z9998PwJw5czh48CALFy70yZzHjh3jgDF6yrrXkK+jpxS1tbUOlYarjTqOHTtG9+7dnZ7XEL755htmzpxJXp50v/y/b5+na89BTag0BALBtY5eX8Ov384n6v4VAOzZs4c777yTH3/8kW7dfCObjh07xv79+1GpVPWUhrebMB07dszifSirqqqwd8itAKurq+2eIx+1tbUYHnvM69FT5txxxx2EhISwYYOUhtwqsKXP5hIIBAJXMe9sJ5ulfKUwADo98gi15eWEhITUk8VyL29vynbzxyp7rV7B/ZaAyt27vfrB2GLSpEksXryYUT70nwgEAoE7yNnX2dnZHD9+nBUrVvh0vhaHDuHv70+bNm0av92rN1sCNgYPPfQQpaWlfP31140yn0AgELhCbW2tT3Iy7GGvravP27169V2sXQuNoDwmTZpEu3btfD6PwNvURfLYjBgyRXCJ/t2CK49t27Zx++23k5CQ4PO5ir/7Dr1KxeHDh30+lzXeVRq9e0uHj0lNTSUqqvnUmmkc6sJJnfYMsNF21HGPZ++ELMoJaHUKwbrX9zCyR2ypCx81y0NQBEejiCxihnVfDOtzrMto22ux2oThl97CsnptM8L4nTS33hVNTUJCAm+99VajzGVo0QKDyrs99FzFu0rj0iXpEHgZsyqpuzWgHuZYmNhoDiUVqbMlYI3Z5OUFDWs2JJemsFELSUpKM1uHOWZ5CPbLkU81y7WQ8iXce91LGD+/BglyZ2OYNUaKTdGwY34zVH7GMjWosxpcm0vgGaoDB/CrrMTPz6/R5/au0njwQdi/36tDCoxVUjGW84hIJHvrVPtJYdTd8VseOvIslMkWVo1yNafEGVIJd3ulKTKtk7DMdwLG3hiOdwpSNnZdZrd10p+z168gIhJ5W7dH6gkRkciMAZksaY67DblHh72ulAKfEvL00yhqanwaoWUP7yqNsDAweu4F3kAy78T9blX/yXint8NOdnJsuq02qz5MmMrfSPKGqcyop3ykdq2rdpvtADJ0pl0NR/aYNeSRlJhpV2Kx62kmO41GIjQ2HtRZJE2IJg5XKwY3PrEpGkZvsNWVUuBraiIi0Dvol+FLvGsU69EDOnTw6pDXLMYsY+z1vIhIJLs8HG3wMBQHrDJ+5WKDZqdrtkqlT+SmRyY2DEOhNnvsQfZwXs4CyNDVU0pSmfQUDDaztnexRA1Ju6/EGki+o64xVTyrXikguzkXFYxIZEZGJq/llTL+iqxldeVSFRWFPjCQCxcuNPrcKjnJwxZyhRE5Ld0Rer2emhdeQNVEzpmrCbkb26qtGrITrIS6NaM0rEKNItisDEhEItnlifXPjZGbHkFdQcWGmqekPuGaadaKZhdL1P3JNWuOEzpmLnL5gZJ1K9mhSyfDJBSleky2WWDZ2Q8gI8Xx66OujN2GVBamzpym2Wr+HdnDdvkaCxqhKRJIPS7Wb8qnZEzjdO8TSJSmplJz+DCnT5+mVy/LjjNy5z4HFaLclu3mesKrEt7RIgWuUCfIDeWSIB9vS/jXI5Hx6cYoqAwdhpQimzsN35g5jL0/plk/b+ymZmPXU0eODYVoq6aUg3pENhSkVB/K+cpNd/U+E7C70AYXEG9j7ZkJ0ZLQN/bFcA9jrww7r+ZlRfOadfVgHxHaoz9sKOLQMoTSaERqa2sBmsQRrvL397f7olzUypWsQaVSSYsvvgCVCu6919vrvEaQ7rbHe3StuSCJsr3T8BnO+oS7WISucDNJkY3lxDb2PQepsY+pd7b3xtcGq8kcNZXcQsBKhvtOiUs7v0Hx9naPLuxSbNGIvcAFTjh8mLZLl1KcmEiHDh2wluHuFCx0Vbabz+FdW9L27WAwCKXRbLEhMMx9Gh4LBmMjJrs3tzbMR3aJJ8nBq3U2f2vcrY4aRXwGoAWsGkE1GNPuaiq5yxq7YqsUfNDrFXuvO96lCK4Atm9HdeQIQJMkOXtXaXTvLkJuG4yHd4JQZ2axUZpaCq0FuyXF83Uo5nsyqdSIyWHTJC/vNOqFCefrUHiQhBub7or/wD1MPoqmujMvLGIHeL2vuj1KjuyBUfGNNp8AOHWKy8ZdRJOYp7w6WlwceLmt4bWHjTvBfJ2xuY8b/SNMQsvoJ/HBSiWkRkzJObvIiLHnF/DeTqP50sC+JN6iqIj19GdGo7g0pJ7wo0ekC7NVI1LzwAMUtm8PwJkzZwgJadzINe8qjX79pEPgReTEuS2WCsPjxj/eJzZ+KiQ48gs0R5+GtzDbGTYDu3+j3vkX5pO9IZ6kV0S4bWNysV07LoRLTsSmCD7yTXxsZSUEBvpk6GuNknVZUja4zbao4WiDo9E2teKIeZBVo4bx2roH7YTvenensV5tKwx5qovjewdL30rz6TZ36EAODEhpFMWVtzKT9aM0vN2cc0muQi4ZSzVZlyxvLLyvNP7xDxg6VDjDvUHhZp5Uw6rddXev1nH9ACRE12/HuSGTsA11npHRI+T/5ZAcGU2yrflGaTxcaAjjp00lOSGL1bFWJjSTcpPuxuuXLZHv1F0XvN4pfeI5mQnRnq8jIoakUZA8fzOpbu9KzFq4OkSNwjxYwBchxaZaYyKiqlEpLCRo+nR46imCgoKIiGh8ja2SE0FsIW999Hq907Asg8EgnafXo/j5Z6E0PKa+YFhvJuSlshtWcf35OhTWAtumqaQQ7zvCjcSoyc2IJi4ymkPGnY/53bhmawGGGCgptCp7UhhBankBGcZqu3HUnW9r9xSbXmDXP2M+32idD+zs9pIm3SKE8cu2wIRhhAW7Fu5Q91kYQ7KXNXAJDcUYaFHPZCrwPTt3ctlgwGAwEBgYiFKpxFqGG4yve1u2yyguXbrkFaNYcXExYWFhKDdsoMXBgygboRHJ8YLZdAiNFD3CBQJBk6HX13DgxyVcH7/Q53NVrV/PkW3bOHT//XTt2pXejdCKQpbtMl5t9xoQEACPPIKiiQppCQQCwdXM2bg4jrdrh79CQU1NjU2fhq/bvaqUDgS8vIVxpZ2r3BJQIBAIBL6hrKwMhUKBn58frVu3tilzFQqFU3ncENnuGyn/zTfoP/zQJ0Nb0DhtyQUCgcABBhpDGBlWrYKPPgKgZcuWdOzY0edz2sI3SqNDB5TrbZeo8yZ+/sHUXL7o83kEAoHAHjVVF1D5t/H5PNVffklFWRkAISEhtG3b1udz2sI3SuOGG6B9e/jiC58MLxMYfB0V50XfMIFA0HRUnC8ksK2PHdKHD1O7bx8nhw4FIDg42LfzOcB3TojHHuOyj7PDW3cexPnS//l0DoFAIHBEeel+2nQZ7NM5qsPDOTp+PAZjxdmmbEPhO6Vx223Udurks+EBWrTsRFDIQEoL7TXvEQgEAt9x4cwBamuqad052qfznDlzhuK+fQEpKiooKMin8znCp+FOgYGB1Pz4oy+noFO/ZM4U5nPx3GGfziMQCATmXK4qp+RgDp37P+bbiX76ifM7d5oe+vn50apVK9/O6QDfxsj++iuKN97w6RSqgPZE3PwMhXs2UX56r0/nEggEAoCK80Uc/W09Ha8bTasON/h0rqp//Yva778HoG3btvTv39+n8zlDsX//frvGMTl93JVY3srKSgJtFCnskpVFy7598Zsxo+GrdTR/2UFKfvs3LQKCad/lBpElLhB4mx9/g1t9KyCbO1WXTnHuxG7KT+8mdICaNqG3+XbCb7/lVFYWnz/6KAaDgYiICLp27epQHsslP5zlaXgq2xUGBx4VuSVgYGCg04GPHj1K9+7d67/w3XdUl5biP3Kkw+u9xbnjOZQd/5KqC4X4twxBoWz8JiUCwdVI5798yIURUVy6+xpsf2DQc7mqDL8WrQkOv50OPe5H4We/Vba3OLd3L8c+/5zSG29EpVLRvXt3unXr5lAeu9Pu1RPZ7pvS6OYMHcrlixdRXL7s8E14i3Zd42nXNR59bTWXK05h0F/2+ZwCwdWIYv8hVItXcHnO8wAoZ0QS8voC2kz7ZxOvrPFRKJSoAjvg16J1o85bYjBQeuONgOQAb9myZaPObwvfKw0gKCiI0l9+IaR7d2ikhBSlnz8BrUUJToHAY/p2hE8ex2/aDBgwAJJ6wqqNBH70LaSkNPXqrnrKVqzgZI8egOT8btu2La1bN67SskWjFYtq+/771Dz7bGNNJxAIGkrr1vB//wfmwSzTp1s+FviE2tmz0X/0kck/ERoaatv83wQ0mtLwe+45DGVl8NlnjTWlQCBoKNOnw9dfgxw6f9dd0LcvLFrUtOu6mjl5kqrvvuPwnXcCEBAQQOfOnZuFaQoaUWkQFETtlCmUG3vbCgSCKwA/P9u7jTffbLo1XeWc8/fnyKhRlA0cCEDr1q2brM6ULRq1lrkhLo5TLVuaetwKBIIrgClT4Ndf4dtvpcdDhkiHUBxep6amhqKiIk706QNIu4ymTOSzhVKv1+PoABy+Lh9y3K+zsbp160b5hg0Y1q1ryvctEAjcwd5uo6Ki6dZ0tbFzJ+dfeokTJ06YWrb6+/vTq1cvt+SxK7K4IbJdVVVV5fS9VFdXOz2ntrYWV8aqra0lQKWi+r33CIiMlCriCgSC5s2ECbBwIXz+Odx7L0RFwfDhkuJIT2/q1V0VXHz5ZU736GGSt2FhYXTt2rWeXHVFHgMuyWNPZLv32726MFbA2LFUHT1KxfLltMzKcrpogUDQDJB3G/feKz2ePl1yjE+eDB06NO3arnAu6XSUGgwcf+AB/IE2bdrQs2dPixBbV+Wxr9u9KpVKJY4O40lOD7kloKtjtfzrXyl+4gnKjE1FBAJBM+fhh6Gy0tQ9juuvh+Rk4dtoIBUVFRwcPJjvH3nE1Mo1KCiI4OBgj+SxK7K4QbK9KT+s4OBgTpw4QcUnnzTlMgQCgavY820UFjbdmq5gLn/+OUePHuX06dOm5wIDAwlvxlGmTao0OnbsSIBKRc2qVVz+xz+acikCgcAVRoyAoCB4/33pcdeu8NRTYrfhAbXLl1P59tucK6jrB9S2bVsiIiKaVYitNU2qNAB69O4Nzz9P1f79VC9f3tTLEQgEzrDO05g+HZYvh/37m25NVxi1O3ZQsW4d++65h4oIqdxRu3bt6Nu3LxERzbv8UZMrDYA2/fpR+/LLHI2L4+LFi029HIFA4Ih77oFu3WDpUulxSIhkthK7DZeoqanhUHAwv44bR7mxGGGrVq2IiIho0o58rtIslAZA2169uHTpEocPH+bSqlVNvRyBQOAIW7uN//4Xfvml6dZ0BVD93/9y8OBBjh8/TqXRbxEQEEBQUBBt2rRp4tW5RrNRGgA33HADVVVVVH38MZUTJ8KpU029JIFAYIuhQ+Gmm2DBAulxq1Zit+GEy9OnU7FwISf31nUYbdWqFW3atOGGKyhf7f8BqZ8+okiwGUkAAAAASUVORK5CYII=;" vertex="1" parent="1">
                    <mxGeometry x="930" y="19.5" width="397" height="581" as="geometry"/>
                </mxCell>
                <mxCell id="3" value="&lt;font style=&quot;font-size: 18px;&quot;&gt;■ 画面遷移図&lt;/font&gt;" style="text;html=1;strokeColor=none;fillColor=none;align=center;verticalAlign=middle;whiteSpace=wrap;rounded=0;fontStyle=1" vertex="1" parent="1">
                    <mxGeometry x="10" width="160" height="30" as="geometry"/>
                </mxCell>
                <mxCell id="7" style="edgeStyle=none;html=1;entryX=0.5;entryY=0;entryDx=0;entryDy=0;fontSize=18;strokeColor=#FF0000;" edge="1" parent="1" source="4" target="5">
                    <mxGeometry relative="1" as="geometry"/>
                </mxCell>
                <mxCell id="4" value="ログイン" style="rounded=1;whiteSpace=wrap;html=1;fontSize=18;fillColor=#CCFFFF;" vertex="1" parent="1">
                    <mxGeometry x="60" y="70" width="120" height="60" as="geometry"/>
                </mxCell>
                <mxCell id="8" style="edgeStyle=none;html=1;entryX=0;entryY=0.5;entryDx=0;entryDy=0;strokeColor=#FF0000;fontSize=18;" edge="1" parent="1" source="5" target="6">
                    <mxGeometry relative="1" as="geometry"/>
                </mxCell>
                <mxCell id="18" style="edgeStyle=none;html=1;entryX=0;entryY=0.75;entryDx=0;entryDy=0;strokeColor=#FF0000;fontSize=14;" edge="1" parent="1" source="5" target="17">
                    <mxGeometry relative="1" as="geometry"/>
                </mxCell>
                <mxCell id="19" style="edgeStyle=none;html=1;strokeColor=#FF0000;fontSize=14;" edge="1" parent="1" source="5" target="13">
                    <mxGeometry relative="1" as="geometry"/>
                </mxCell>
                <mxCell id="5" value="TOPページ" style="rounded=1;whiteSpace=wrap;html=1;fontSize=18;fillColor=#CCFFFF;" vertex="1" parent="1">
                    <mxGeometry x="60" y="170" width="120" height="60" as="geometry"/>
                </mxCell>
                <mxCell id="11" style="edgeStyle=none;html=1;strokeColor=#FF0000;fontSize=14;" edge="1" parent="1" source="6" target="9">
                    <mxGeometry relative="1" as="geometry"/>
                </mxCell>
                <mxCell id="6" value="プロジェクト&lt;br&gt;作成ページ" style="rounded=1;whiteSpace=wrap;html=1;fontSize=18;fillColor=#CCFFFF;" vertex="1" parent="1">
                    <mxGeometry x="240" y="170" width="120" height="60" as="geometry"/>
                </mxCell>
                <mxCell id="12" style="edgeStyle=none;html=1;strokeColor=#FF0000;fontSize=14;" edge="1" parent="1" source="9" target="10">
                    <mxGeometry relative="1" as="geometry"/>
                </mxCell>
                <mxCell id="9" value="&lt;font style=&quot;font-size: 14px;&quot;&gt;マイルストーン&lt;br&gt;作成ページ&lt;/font&gt;" style="rounded=1;whiteSpace=wrap;html=1;fontSize=18;fillColor=#CCFFFF;" vertex="1" parent="1">
                    <mxGeometry x="420" y="170" width="120" height="60" as="geometry"/>
                </mxCell>
                <mxCell id="10" value="タスク&lt;br&gt;作成ページ" style="rounded=1;whiteSpace=wrap;html=1;fontSize=18;fillColor=#CCFFFF;" vertex="1" parent="1">
                    <mxGeometry x="600" y="170" width="120" height="60" as="geometry"/>
                </mxCell>
                <mxCell id="20" style="edgeStyle=none;html=1;entryX=0;entryY=0.5;entryDx=0;entryDy=0;strokeColor=#FF0000;fontSize=14;" edge="1" parent="1" source="13" target="14">
                    <mxGeometry relative="1" as="geometry"/>
                </mxCell>
                <mxCell id="13" value="タスク&lt;br&gt;一覧ページ" style="rounded=1;whiteSpace=wrap;html=1;fontSize=18;fillColor=#CCFFFF;" vertex="1" parent="1">
                    <mxGeometry x="240" y="280" width="120" height="60" as="geometry"/>
                </mxCell>
                <mxCell id="21" style="edgeStyle=none;html=1;strokeColor=#FF0000;fontSize=14;" edge="1" parent="1" source="14" target="15">
                    <mxGeometry relative="1" as="geometry"/>
                </mxCell>
                <mxCell id="14" value="タスク詳細&lt;br&gt;ページ" style="rounded=1;whiteSpace=wrap;html=1;fontSize=18;fillColor=#CCFFFF;" vertex="1" parent="1">
                    <mxGeometry x="420" y="280" width="120" height="60" as="geometry"/>
                </mxCell>
                <mxCell id="22" style="edgeStyle=none;html=1;strokeColor=#FF0000;fontSize=14;" edge="1" parent="1" source="15" target="16">
                    <mxGeometry relative="1" as="geometry"/>
                </mxCell>
                <mxCell id="15" value="スレッド&lt;br&gt;作成ページ" style="rounded=1;whiteSpace=wrap;html=1;fontSize=18;fillColor=#CCFFFF;" vertex="1" parent="1">
                    <mxGeometry x="600" y="280" width="120" height="60" as="geometry"/>
                </mxCell>
                <mxCell id="16" value="スレッド" style="rounded=1;whiteSpace=wrap;html=1;fontSize=18;fillColor=#CCFFFF;" vertex="1" parent="1">
                    <mxGeometry x="780" y="280" width="120" height="60" as="geometry"/>
                </mxCell>
                <mxCell id="17" value="進捗確認&lt;br&gt;ページ" style="rounded=1;whiteSpace=wrap;html=1;fontSize=18;fillColor=#CCFFFF;" vertex="1" parent="1">
                    <mxGeometry x="240" y="70" width="120" height="60" as="geometry"/>
                </mxCell>
                <mxCell id="23" value="&lt;font style=&quot;font-size: 18px;&quot;&gt;■ 各画面の詳細（白黒のワイヤーフレームで「必要な項目」に集中）&lt;/font&gt;" style="text;html=1;strokeColor=none;fillColor=none;align=left;verticalAlign=middle;whiteSpace=wrap;rounded=0;fontStyle=1" vertex="1" parent="1">
                    <mxGeometry x="34" y="410" width="620" height="30" as="geometry"/>
                </mxCell>
                <mxCell id="24" value="&lt;font style=&quot;font-size: 18px;&quot;&gt;（１）ログイン&lt;/font&gt;" style="text;html=1;strokeColor=none;fillColor=none;align=left;verticalAlign=middle;whiteSpace=wrap;rounded=0;fontStyle=1" vertex="1" parent="1">
                    <mxGeometry x="44" y="450" width="620" height="30" as="geometry"/>
                </mxCell>
                <mxCell id="25" value="" style="rounded=1;whiteSpace=wrap;html=1;fontSize=14;fillColor=#E6E6E6;strokeColor=none;" vertex="1" parent="1">
                    <mxGeometry x="80" y="490" width="540" height="320" as="geometry"/>
                </mxCell>
                <mxCell id="26" value="&lt;font style=&quot;font-size: 18px;&quot;&gt;Email&lt;/font&gt;" style="rounded=1;whiteSpace=wrap;html=1;fontSize=14;fillColor=#FFFFFF;" vertex="1" parent="1">
                    <mxGeometry x="149" y="540" width="410" height="50" as="geometry"/>
                </mxCell>
                <mxCell id="27" value="&lt;span style=&quot;font-size: 18px;&quot;&gt;Pass&lt;/span&gt;" style="rounded=1;whiteSpace=wrap;html=1;fontSize=14;fillColor=#FFFFFF;" vertex="1" parent="1">
                    <mxGeometry x="149" y="630" width="410" height="50" as="geometry"/>
                </mxCell>
                <mxCell id="28" value="&lt;span style=&quot;font-size: 18px;&quot;&gt;ログイン&lt;/span&gt;" style="rounded=1;whiteSpace=wrap;html=1;fontSize=14;fillColor=#FFCC99;" vertex="1" parent="1">
                    <mxGeometry x="370" y="720" width="189" height="50" as="geometry"/>
                </mxCell>
                <mxCell id="29" value="&lt;font style=&quot;font-size: 18px;&quot;&gt;（２）TOPページ（「社員」に関連のある情報をドメインモデルから拾う）&lt;/font&gt;" style="text;html=1;strokeColor=none;fillColor=none;align=left;verticalAlign=middle;whiteSpace=wrap;rounded=0;fontStyle=1" vertex="1" parent="1">
                    <mxGeometry x="60" y="850" width="620" height="30" as="geometry"/>
                </mxCell>
                <mxCell id="30" value="" style="rounded=1;whiteSpace=wrap;html=1;fontSize=14;fillColor=#E6E6E6;strokeColor=none;" vertex="1" parent="1">
                    <mxGeometry x="80" y="900" width="540" height="320" as="geometry"/>
                </mxCell>
                <mxCell id="35" value="" style="rounded=1;whiteSpace=wrap;html=1;fontSize=14;fillColor=#FFFFFF;" vertex="1" parent="1">
                    <mxGeometry x="139" y="920" width="410" height="80" as="geometry"/>
                </mxCell>
                <mxCell id="36" value="" style="rounded=1;whiteSpace=wrap;html=1;fontSize=14;fillColor=#FFFFFF;" vertex="1" parent="1">
                    <mxGeometry x="139" y="1020" width="410" height="80" as="geometry"/>
                </mxCell>
                <mxCell id="37" value="" style="rounded=1;whiteSpace=wrap;html=1;fontSize=14;fillColor=#FFFFFF;" vertex="1" parent="1">
                    <mxGeometry x="139" y="1120" width="410" height="80" as="geometry"/>
                </mxCell>
                <mxCell id="31" value="&lt;span style=&quot;font-size: 18px;&quot;&gt;参加プロジェクト&lt;/span&gt;" style="text;html=1;strokeColor=none;fillColor=none;align=center;verticalAlign=middle;whiteSpace=wrap;rounded=0;fontStyle=1" vertex="1" parent="1">
                    <mxGeometry x="120" y="920" width="230" height="30" as="geometry"/>
                </mxCell>
                <mxCell id="32" value="&lt;span style=&quot;font-size: 18px;&quot;&gt;あなたのタスク&lt;/span&gt;" style="text;html=1;strokeColor=none;fillColor=none;align=center;verticalAlign=middle;whiteSpace=wrap;rounded=0;fontStyle=1" vertex="1" parent="1">
                    <mxGeometry x="120" y="1020" width="230" height="30" as="geometry"/>
                </mxCell>
                <mxCell id="33" value="&lt;span style=&quot;font-size: 18px;&quot;&gt;進行中のスレッド&lt;/span&gt;" style="text;html=1;strokeColor=none;fillColor=none;align=center;verticalAlign=middle;whiteSpace=wrap;rounded=0;fontStyle=1" vertex="1" parent="1">
                    <mxGeometry x="120" y="1120" width="230" height="30" as="geometry"/>
                </mxCell>
                <mxCell id="38" value="&lt;font style=&quot;font-size: 14px;&quot;&gt;・~~PJ&lt;/font&gt;" style="text;html=1;strokeColor=none;fillColor=none;align=left;verticalAlign=middle;whiteSpace=wrap;rounded=0;fontStyle=0" vertex="1" parent="1">
                    <mxGeometry x="190" y="950" width="60" height="30" as="geometry"/>
                </mxCell>
                <mxCell id="40" value="&lt;font style=&quot;font-size: 14px;&quot;&gt;・xxPJ&lt;/font&gt;" style="text;html=1;strokeColor=none;fillColor=none;align=left;verticalAlign=middle;whiteSpace=wrap;rounded=0;fontStyle=0" vertex="1" parent="1">
                    <mxGeometry x="190" y="970" width="60" height="30" as="geometry"/>
                </mxCell>
                <mxCell id="41" value="&lt;span style=&quot;font-size: 14px;&quot;&gt;・~~調査（作業中）&lt;br&gt;・~~開発（未着手）&lt;br&gt;&lt;/span&gt;" style="text;html=1;strokeColor=none;fillColor=none;align=left;verticalAlign=middle;whiteSpace=wrap;rounded=0;fontStyle=0" vertex="1" parent="1">
                    <mxGeometry x="190" y="1060" width="230" height="30" as="geometry"/>
                </mxCell>
                <mxCell id="42" value="&lt;span style=&quot;font-size: 14px;&quot;&gt;&lt;b&gt;&amp;lt;すべて見る&amp;gt;&lt;/b&gt;&lt;br&gt;&lt;/span&gt;" style="text;html=1;strokeColor=none;fillColor=none;align=left;verticalAlign=middle;whiteSpace=wrap;rounded=0;fontStyle=0" vertex="1" parent="1">
                    <mxGeometry x="440" y="1070" width="100" height="30" as="geometry"/>
                </mxCell>
                <mxCell id="43" value="&lt;span style=&quot;font-size: 14px;&quot;&gt;・~~についての質問&lt;br&gt;・XXの詳細確認&amp;lt;未読あり&amp;gt;&lt;br&gt;&lt;/span&gt;" style="text;html=1;strokeColor=none;fillColor=none;align=left;verticalAlign=middle;whiteSpace=wrap;rounded=0;fontStyle=0" vertex="1" parent="1">
                    <mxGeometry x="185" y="1160" width="230" height="30" as="geometry"/>
                </mxCell>
                <mxCell id="44" value="&lt;span style=&quot;font-size: 14px;&quot;&gt;&lt;b&gt;&amp;lt;すべて見る&amp;gt;&lt;/b&gt;&lt;br&gt;&lt;/span&gt;" style="text;html=1;strokeColor=none;fillColor=none;align=left;verticalAlign=middle;whiteSpace=wrap;rounded=0;fontStyle=0" vertex="1" parent="1">
                    <mxGeometry x="440" y="1170" width="100" height="30" as="geometry"/>
                </mxCell>
                <mxCell id="46" value="&lt;span style=&quot;font-size: 14px;&quot;&gt;&lt;font color=&quot;#ff0000&quot;&gt;進行中のマイルストーン&lt;br&gt;から抽出&lt;/font&gt;&lt;br&gt;&lt;/span&gt;" style="text;html=1;strokeColor=none;fillColor=none;align=left;verticalAlign=middle;whiteSpace=wrap;rounded=0;fontStyle=0" vertex="1" parent="1">
                    <mxGeometry x="365" y="1030" width="175" height="30" as="geometry"/>
                </mxCell>
                <mxCell id="47" value="&lt;font style=&quot;font-size: 18px;&quot;&gt;（3）タスク一覧&lt;/font&gt;" style="text;html=1;strokeColor=none;fillColor=none;align=left;verticalAlign=middle;whiteSpace=wrap;rounded=0;fontStyle=1" vertex="1" parent="1">
                    <mxGeometry x="60" y="1250" width="620" height="30" as="geometry"/>
                </mxCell>
                <mxCell id="48" value="" style="rounded=1;whiteSpace=wrap;html=1;fontSize=14;fillColor=#E6E6E6;strokeColor=none;" vertex="1" parent="1">
                    <mxGeometry x="80" y="1300" width="540" height="420" as="geometry"/>
                </mxCell>
                <mxCell id="49" value="&lt;span style=&quot;font-size: 14px;&quot;&gt;・~~調査（作業中）&lt;br&gt;・~~開発（未着手）&lt;br&gt;&lt;/span&gt;" style="text;html=1;strokeColor=none;fillColor=none;align=left;verticalAlign=middle;whiteSpace=wrap;rounded=0;fontStyle=0" vertex="1" parent="1">
                    <mxGeometry x="149" y="1420" width="230" height="41" as="geometry"/>
                </mxCell>
                <mxCell id="50" value="&lt;span style=&quot;font-size: 18px;&quot;&gt;▶ 作業中&lt;/span&gt;" style="text;html=1;strokeColor=none;fillColor=none;align=center;verticalAlign=middle;whiteSpace=wrap;rounded=0;fontStyle=1" vertex="1" parent="1">
                    <mxGeometry x="100" y="1380" width="160" height="30" as="geometry"/>
                </mxCell>
                <mxCell id="51" value="&lt;span style=&quot;font-size: 18px;&quot;&gt;▶ レビュー中&lt;/span&gt;" style="text;html=1;strokeColor=none;fillColor=none;align=center;verticalAlign=middle;whiteSpace=wrap;rounded=0;fontStyle=1" vertex="1" parent="1">
                    <mxGeometry x="110" y="1480" width="180" height="30" as="geometry"/>
                </mxCell>
                <mxCell id="52" value="&lt;span style=&quot;font-size: 14px;&quot;&gt;・~~ブラッシュアップ&lt;br&gt;・~~~~~&lt;br&gt;・~~~~~&lt;br&gt;&lt;/span&gt;" style="text;html=1;strokeColor=none;fillColor=none;align=left;verticalAlign=middle;whiteSpace=wrap;rounded=0;fontStyle=0" vertex="1" parent="1">
                    <mxGeometry x="149" y="1520" width="230" height="70" as="geometry"/>
                </mxCell>
                <mxCell id="53" value="&lt;span style=&quot;font-size: 18px;&quot;&gt;全てのタスク&lt;/span&gt;" style="rounded=1;whiteSpace=wrap;html=1;fontSize=14;fillColor=#FFCC99;" vertex="1" parent="1">
                    <mxGeometry x="120" y="1320" width="150" height="40" as="geometry"/>
                </mxCell>
                <mxCell id="54" value="&lt;span style=&quot;font-size: 18px;&quot;&gt;～～PJ&lt;/span&gt;" style="rounded=1;whiteSpace=wrap;html=1;fontSize=14;fillColor=#FFFFFF;" vertex="1" parent="1">
                    <mxGeometry x="279" y="1320" width="150" height="40" as="geometry"/>
                </mxCell>
                <mxCell id="55" value="&lt;span style=&quot;font-size: 18px;&quot;&gt;XXPJ&lt;br&gt;&lt;/span&gt;" style="rounded=1;whiteSpace=wrap;html=1;fontSize=14;fillColor=#FFFFFF;" vertex="1" parent="1">
                    <mxGeometry x="440" y="1320" width="150" height="40" as="geometry"/>
                </mxCell>
                <mxCell id="56" style="edgeStyle=none;html=1;entryX=0.5;entryY=0;entryDx=0;entryDy=0;strokeColor=#FF0000;fontSize=14;fontColor=#FF0000;" edge="1" parent="1" source="42" target="53">
                    <mxGeometry relative="1" as="geometry"/>
                </mxCell>
                <mxCell id="58" style="edgeStyle=none;html=1;strokeColor=#FF0000;fontSize=14;fontColor=#FF0000;" edge="1" parent="1" source="40" target="55">
                    <mxGeometry relative="1" as="geometry"/>
                </mxCell>
                <mxCell id="57" style="edgeStyle=none;html=1;strokeColor=#FF0000;fontSize=14;fontColor=#FF0000;" edge="1" parent="1" source="38" target="54">
                    <mxGeometry relative="1" as="geometry"/>
                </mxCell>
                <mxCell id="59" value="" style="rounded=1;whiteSpace=wrap;html=1;strokeColor=#000000;fontSize=14;fontColor=#FF0000;fillColor=#FFFFFF;" vertex="1" parent="1">
                    <mxGeometry x="330" y="1380" width="260" height="320" as="geometry"/>
                </mxCell>
                <mxCell id="60" value="&lt;span style=&quot;font-size: 18px;&quot;&gt;【～～調査】&lt;/span&gt;" style="text;html=1;strokeColor=none;fillColor=none;align=left;verticalAlign=middle;whiteSpace=wrap;rounded=0;fontStyle=1" vertex="1" parent="1">
                    <mxGeometry x="400" y="1390" width="120" height="30" as="geometry"/>
                </mxCell>
                <mxCell id="61" value="&lt;font color=&quot;#000000&quot;&gt;～～～～～～～～～～&lt;br&gt;調査&lt;br&gt;～～～～～～～～～～&lt;/font&gt;" style="rounded=1;whiteSpace=wrap;html=1;strokeColor=#000000;fontSize=14;fontColor=#FF0000;fillColor=#FFFFFF;" vertex="1" parent="1">
                    <mxGeometry x="354.5" y="1430" width="220" height="80" as="geometry"/>
                </mxCell>
                <mxCell id="63" value="&lt;span style=&quot;font-size: 14px;&quot;&gt;・～～PG&lt;br&gt;・Phase1&lt;br&gt;・作業中 ▼&lt;br&gt;・https://~~~&lt;br&gt;&lt;/span&gt;" style="text;html=1;strokeColor=none;fillColor=none;align=left;verticalAlign=middle;whiteSpace=wrap;rounded=0;fontStyle=0" vertex="1" parent="1">
                    <mxGeometry x="379" y="1515" width="230" height="80" as="geometry"/>
                </mxCell>
                <mxCell id="68" style="edgeStyle=none;html=1;entryX=0;entryY=1;entryDx=0;entryDy=0;strokeColor=#FF0000;fontSize=14;fontColor=#000000;" edge="1" parent="1" source="64" target="67">
                    <mxGeometry relative="1" as="geometry"/>
                </mxCell>
                <mxCell id="64" value="&lt;span style=&quot;font-size: 18px;&quot;&gt;スレッド作成&lt;/span&gt;" style="rounded=1;whiteSpace=wrap;html=1;fontSize=14;fillColor=#FFCC99;" vertex="1" parent="1">
                    <mxGeometry x="385" y="1665" width="150" height="30" as="geometry"/>
                </mxCell>
                <mxCell id="65" value="&lt;span style=&quot;font-size: 18px;&quot;&gt;▶ 進行中のスレッド&lt;/span&gt;" style="text;html=1;strokeColor=none;fillColor=none;align=center;verticalAlign=middle;whiteSpace=wrap;rounded=0;fontStyle=1" vertex="1" parent="1">
                    <mxGeometry x="350" y="1595" width="180" height="30" as="geometry"/>
                </mxCell>
                <mxCell id="66" value="&lt;span style=&quot;font-size: 14px;&quot;&gt;・～～～&lt;br&gt;・～～～&lt;br&gt;&lt;br&gt;&lt;/span&gt;" style="text;html=1;strokeColor=none;fillColor=none;align=left;verticalAlign=middle;whiteSpace=wrap;rounded=0;fontStyle=0" vertex="1" parent="1">
                    <mxGeometry x="379" y="1635" width="230" height="30" as="geometry"/>
                </mxCell>
                <mxCell id="67" value="&lt;font style=&quot;font-size: 18px;&quot;&gt;（４）スレッド作成&lt;/font&gt;" style="text;html=1;strokeColor=none;fillColor=none;align=left;verticalAlign=middle;whiteSpace=wrap;rounded=0;fontStyle=1" vertex="1" parent="1">
                    <mxGeometry x="680" y="1250" width="620" height="30" as="geometry"/>
                </mxCell>
                <mxCell id="69" value="" style="rounded=1;whiteSpace=wrap;html=1;fontSize=14;fillColor=#E6E6E6;strokeColor=none;" vertex="1" parent="1">
                    <mxGeometry x="690" y="1300" width="540" height="420" as="geometry"/>
                </mxCell>
                <mxCell id="70" value="" style="shape=image;verticalLabelPosition=bottom;labelBackgroundColor=default;verticalAlign=top;aspect=fixed;imageAspect=0;image=data:image/png,iVBORw0KGgoAAAANSUhEUgAAAoYAAAG+CAYAAAAOS8UkAAAgAElEQVR4nOy9eXhT953v/zqWvLGYHbywxCFpY9KQhtod7Mx0bsWkMNNmUtukM8F0aNVlfpfQ504banpjt3duKmXGlLazJMzSJ+rDLXbbxEvbzJ0xNw+aJXOtpHa4KWmA0BIDxrYaMAlmsbGW8/vjSLIk60iyLWvz5/U8ekA633POW0fn+/XnfL+fhbGxMdXtdqt6eL1e9datW6rX69Vt43a71bGxMd3tfi5evBh1u2gRLaJFtKg/+Ymqlperamdn6rWEIVpEi2gRLdmuxYggCEI68cgjsHYtfPnLcOkS7N2bakWCIAjzhpxUCxAEQZjChz4EL7wAr7xCzte+lmo18wJVVbl+/TperzfVUgRBSCFGAK/Xi6IoERv4BwmPx0NOTmQ70t8m1oCiqmrMNqJFtIgW0QLAqlXwgx9AYyO5e/bg/eu/htWrU6MlrE02/kYul4sTJ05QWVlJYWFhSrWk03URLaJlvmkxqqqK2+3G7XZHPYnL5Yq6HeD27dtRt3s8nphtRItoES2iJYRvfhPj3/0dhp07cR08iPeBB1KnxUdaXJcEa5mYmABgYmIi4h+L+XpdRItomW9ajIrLRe7ChRgMhogNVFVlfHycgoICXevT4/HgcrkoKCiIKsJoNIY8iYYzPj5Obm6uaBEtokW0hGrZu5fc8nLyd++G735X80NMlZZ0ui4J1OI3BgsKCkLaz/frIlpEy3zTkpPX0ADnz0cVIQiCkHJqa+HHP4ZvfQuefTbVarIOg8HA2rVrMRolJlEQ5jM5no9/nJw//mPo6Um1FkEQhOhUVWlBKS+/DP/9v6daTVZhNBrZuHEjubm5qZYiCEIKyfF85jOof/7n8JnPQHt7qvUIgiBEp6QEfvQjcLng05+GK1dSrUgQBCFryAFQd+yA55+HZ56Bv/mbVGsSBEGIzaFDWlqbRx+F119PtRpBEISsYDL07IMf1IzDV14ByRsmCEIm8Gd/Bo8/Do8+SuHx46lWk9G4XC5++ctfBqKTBUGYn4TmJFi9GtrawO2GP/kTuHo1RbIEQRDiZOdO+MEPKPrbv4W///tUq8lYvF4vIyMjeDyeVEsRBCGFRM6yeOiQNoP4qU/Bm28mWZIgCMI02bqVK3/3d3D8ODQ3p1qNIAhCxqKcPXtWVRQlYi6bRf/0Tyx75hneefJJbn/kI7oHUVUVVVV1s3n78efN0cOfqVsvxw9oeX70cvOIFtEiWkTLSquVnGvXuNLUhHfJkpRq0SMdtXi9XoaHhykuLp6SsmY+XxfRIlrmnZaxsTHV7Xarenj/7d9Uz/33q97vf1+3jdvtVsfGxnS3+7l48WLU7TG1eL3qrVu3VK/XK1pEi2gRLfpaDh1SVZNJVU+eTL2WCKSrlkia5LqIFtEyv7REN0sBPvIRJo4eRXnhBfiLv4jZXBAEIeU88QR88Yua/+G//Euq1WQM0WYzBEGYH8Q2DAF140bUH/8Y3n4bvvQlEOdkQRDSnT/6I7DZ4M//HP7xH1OtRhAEISOIyzAEYOFC+N73YPlyLShlYGAOZQmCICSABx/UKqUcO4bxqadSrSatUVWVGzdu4PV6Uy1FEIQUEr9h6Od//k/42Mc04/DVV+dAkiAIQgJZvx5eeAHl2jVyPv95GB1NtaK0ZGJigtdee43bt2+nWoogCClk+oYhwJ/+KTz5JOzaBT/5SYIlCYIgJJicHFzf/jbqPfdofoeShksQBCEixthNdHj4YSgthT/7M5RLl+Dzn0+gLEEQhMSj7t+vzSA++ih897uwffvcnMczzu3rF/G4bqKqU32yJyYmcBmN+mkpVJhwTeDNzQOdjBNerxe3240nLy+qFs/Ny9wcuaa73a/F4/GQ5xlk/L3TeG8FHTMFWhJ1XRTFgCF3IcaCFRhyF0bVJgiChlFVVa0T6QSUqKoKaB12Sk6c++5DOXoUwxNPYBwYYOKb34x6Mo/HE7Xc0qy0BLVRVTVmWSfRIlpEyzzVUl+PsmYNxq9+Fc/583g/+9lZa1G9Lm6883PGRl5n/L1fgWLgnd8sw2AsgCi5xGIxloA2RtXLtVvxLQ6tK/IyNnwh4jGTrWU25wm0UVU8nnFc49fweiYoWHIXhSs+yMLVH87Me1e0iJYkaDH6kyDqCfUnPtV9gistxd3WphmHX/winu98BxYv1hUcLeHirLWEHScWokW0iJZ5quV3fgfPj35EzhNPoAwO4v3612ekxTX2Dtcu/m9uXj7BohV3s2zlHSy480GUHEn7km6oqpdb1wa48e4vuPT2CygL3odr6U7yFpZEbJ+2965oES1zrMUIWu4qvfxVfsvTaDTqnsTj8eD61rco+Ju/IWfXLvirv4J77pnSzmAwkJubq/tl/Jm449Hiuf0u49cvMHHTiXv8Ch7XdVSvC1UF1eslxxD94nvHxrl8LVbm8JyoD/sejxdDlPOoqjYYxboRRMvca1EUAznGhRgLlpO3YA35i9eTt7AUj8eD1+uNel9CYu/daP1ItCRRy913Q0cHfPnLGPbuRf3Od3AbjXFrufxWG6PD/5cVZR+ipPILUbUJqUdRcli4dAMLl25gTfnv8t5v3uA3Jw+xaHUlq+/5NOFr02l974oW0TKHWmbuYxiJxkbN7/BTn9KMQ5MpoYe/efl1rg07GH/vFAZjPvkLV5NfsISC/MUYFq5BUeQpXYiMqnrxem7jnrjMrXfO8e75nzExdpWCJRspWL6FvHW/TY4hP9UyhWSTmwvPPAN/+Zcojz6K8pd/CfffH3WX29f7Ge57jkXLNrDxQ+YkCRUSzdI197F0zX1cGXiFt1/+CiUf+P8oXPb+VMsShJSTWMMQYPfuQFAKBw5AQ8OsDueZGOXdC928d+lfWVC0lqLl5ZRsaCDHEN3JWRDi4da1i1y/+jpv/8cLLFx5P8s2/D4FRXekWpaQbL72NdS1a8lraNAeah96KGKzG7/5OZffOkLJXR9j4dINSRYpzAUr121lQVEZg7/4a1a/bxdFpb+dakmCkFISbxiCNlP44x/Dl78MQ0Pw1a9O+xCq6uHKr57n2uC/s6z4fso/uFtz5BaEBLJgyXoWLFnPmvL/wrXLp3C+8Sx5C9ey8u5P6foeCVlKQwOuVavIb2yE//bf4DOfCdk8OtzDyK9/zPoPPEpewdIUiRTmggVL1rHhA5/i0pkuVNXLkrKPpFqSIKSM2YeH6VFRoRmHp05pBuI0GHW+wrl//xKK+yp3VX6eFWs/LEahMOcsWbWJOzb/MQsXL+Ni7zcZOdeVaklCkvF+5COozz+v+R6++27g81tXT3H5rVbWbfrk/DUKe20oRTYcqdYxR+TmL2ZdxSOMnGvnxuXXUy1HEFLG3BmGAEuWwPe/DwsWwB/9Ecr4eMxd3jnzfa5d+CfWVXySleu2opusShDmiCWr72Xjls/ivvk2F3/+FK6xK6mWJCSTu+6CF1+EZcsA8LpvMXTyWUrft4Pc/KIUi5sBEQw6R0slSlH0l7U39DDOC2egqZLqwW7qp7lvpmDMW0jp+34f5y//Ac+EVMgR5idzs5QcjtUKP/4xaoH+rJ/HdR3n64dYuHgFJZtqkyJLEPRQlBzWlP8XRi+f4sIrX8dY8kfAulTLElLAb059nxUlH6RwcWmqpcyMqkdord1OzZ5Sho/soNj3cZ3tGB07V8R5kBHsL9qx7DsIZZvpGN0xV2pTTsHC1axcW8XVX/+A0vv/LNVyBCHpGONJpggwHsds39hYlLSjf/iHuJ3OiG3ct69y+Y1vs7zkPpau2RzzPEK6chJrkZkT0/qDk94UrdpEbsFSBk7/kJFF+SxY8UHdtknpR4Db7Y7ZRrQkRsv4u6eZuHmJkvKdMfdLX1aw64iN/iIzz+3bQVPVDA7R+1MauvbS83Q39UXNdMaxi+V438zOlQYsLb6f0atdXBvupXBF9Cj1dL13RYtomakWo6IoUfPdeL1eXC4Xubm5unnnPB6PVk4pRjkkg8FAfn5oShDPxHWG3/gOK8u2ULSqIuYXyT5GaNuznY6HU2xM9dpQtp2h9fRBdpX5Phvspr5iiP2jj9C/Zzv9+6IP9I4WM83spSdLjEI/hYtL2fCBegZO/S/y8hewcMV9U9pMTEyktB+JlrnRcmXwf7NybYZaNyFspmm0L+STTvN2FL1sO0021AOTD+kO+2FoslGd5bOFwaxc+2EuD/xvlpZ+OOL2dL93RYtomakWI0BOTo6uUEVRcLlcGAwG3aSMqqri8Xjiyugd3ubSL77L8pL7Mtgo1GbJmuNpGjbYpj1lO9jfVMmh9kfo2LcXxX6SpqrI+p3tjdRYAQ5TU3R4aoNM++5h5C9YwdqKP+TSL/+OdVXN5C9aO6VNKvuRaEm8lvHRfrzum1mblqbOZqP+xaPwdNDDoP9BdWPZZMPBbg5ZgabJ9/UV0WcNM3m20M+CojIU5eeMXzvLgmVTCzak870rWkTLbLTMbfBJDJxvfo/CRStYumbqDEzmoD2Jq9Fepy3UARZT5hlG1aa9dL7Yi7OqEov1KG2DU9s42xspMduxHI/w3Y/vBfbSk8FGoZ+ChaspvvOjDP/ib1MtRUgCo0Mvs2RVhic8DgkUafT13xH6T8GWDZsp32SnwzESvAP9XSbqqydn/R1Hw4zAsh10xBjzMt0o9LN01T2MDr2cahmCkFRSZhiODvfgujnAqvU1qZKQNBxHm+mstfC5OR8sR2jbU0l9+8iULc72RpSWk9M/ZJUZ9cgOitlM02jwzMLkcUvM0Ho60h+Dk1i3HcZy3Ez19M+clixafheLlq3jN6dsqZYizDHX3+lj8Yq7Uy1jdgSMOBuWkA0mykuDHvx8nzrbj9LctHuyn/faqLHupdWW2CpWmcLiFXdz450TqZYhCEklJYah6pngnTM/YM0d8yCJqG8ZxrJvMhowkYQafCvYtW8vneafTsk11n/OTt3GsvDdw7DTUKHNLkQyLsNxtFRSYr4HS5Odhorw/GYjtO3RAlGyZfbAz8p11Yy/9xY3R36ZainCHOEaH8FgyMNgLEy1lDlgkP6ueygvQ4tYppnH20dgsJvHzdC6O9S30HLcTIhZmMXpasJRcozkFixl4uZQqqUIQtJITrqaMC7/+scsK95MXuGyVJw+iYzQ9mQznU02OhJkHDnbG3mcA4FAleKdu7EUHaVtt282z5ea4lD7I0HBLL6lI1OsoBBTIPjE2d6IUmQP+SxcRw021NHNgBkTldQUQc+oNjvoaNlOwyYbapYFovhZtb6ay2d/yMJqa6qlCHPA7dHzFCxck2oZc0NvH821pQwDsIJdT1voqNiOgpbCJrivVx/ooxpwXgjav2zHvAlAAc2FZHz0AnkLMzRdkSBMk6TPGLrHrzI61MOKtZEjvbIJZ3uLluIhUf51vTZKzPawDzdjarLTcDRs1jBoeYjBXjq69mKahnFavPOgz19oN/0RZhGLdx4MCSapPtBHT9Nhaooasbb4jMYs8CvUY8GSdeTmL2B0uCfVUoQ5YOLWO+QVLE61jDnBYT8cuoIxNBTwIdyyITsf5GZDXmERrlvO2A0FIUswgha6rBcl4/V6AaJGyvjb+P/VQ1VVRs7/M8tL9XPBZQ0+I85y/GBi/Ot6bSjbDkdMSlu920JdRR+OA5u1c1VVYumazFnmdNjpbNpNx4xOrAXXNPmiFZVz+gZf9YFjtJ7aTsfGY1k7UxjM8pIP4jz/TyxasxVIbj+K1Ua0zE6L+/a75OcujHqsjGSom0PWvew/AP4I5IauvfSM9lHNSaxFlSi1lpBE2OH4g82ikuFZCIIx5i7g5q13p9xb6XrvihbRMlstRlVVcbvduN3uqCdxuVxRtwPcvn076naPx8Po8H9y15bPxjxWRjPYTf22w9TVmmjeVgmzTN3gaKmkxholBURZFfUhy8fBOctO8pzPQJ0dK9h1pI9dutuD0vZ06eVHi7wsnakULComR8lh9PKb5BfdldR+FKuNaJmdFrdrjMK87PEv1HKMgoWDdIwSSDmz5Xgf6hF/K99DYK8Npagxel+NYvg52xspOZf475AqlBwjHtdt3Xsr3e5d0SJaZqvFqCgKubm5uokQVVVlfHycgoICXevT4/HgcrkoiFLyDoBbp1m0tBwlJyWujcnBN7MXMOL22VC2Vc6sGkggX1gsg0rfaHO2H6W51sLwXAaABM1m6s8UnsRadHQORaSGJavex/jIzylYcnfS+pHRaKSwUN9oGR8fFy2z1GI0Zs8YpT1Y7qVn9BH691Ri3ddHU1UUP8EqM6qUCQ7BYDBMubfS9d4VLaJltlqSOvp5b/ySxcV3JvOUSSU4dUvAiKsyox4HZdt26onXOPQv8TC7JZlem0/P3EREB2YJmyy01jLDperMZvGK93H5/x1hyZ0NqZYiCFMZ7ObQKQvDo9oYUH2kD0dLJcq2eHbeGwgmm4LVjBIt7qpp90zUCoKQBiTVMPTcOMfCZR9N5imTRLCvToSBtMqMerqU+oroPnr+mTcAaicH85mgzRLM3dKtZgTfQ89oHyojtO1J/DkygRxDLnmFy5m4MUDusux96BEyk1eGyvjqPjjf+wbnfZ8ppu/jiDctYe8bvAKw4dM4NsArvW9o/z/+6djn7n2DrVWZXLxAEOYnSTMMJ24Ok1uwBEVJabGVxBO8jHokymxg2Q46TkN9hRklQsRup1lLFzE7p+2gmcZZGpaxKN55EHXnHB08w1hQVMLt0V+zUAxDIc34ky9+g1+dG0jJuRs+9ftiGApCBpI0w3D8+gUKF2VXXjBHSyU1pywMj/bFZ4AFjMOgvIN+/8AjsXaOxqRBGNNAnUM6zXpBJ35MtCZLTBIpWLiaa+/1p1qGIEyh/ehsg84EQZhvJG/G8MYQ+QuWJut0c86Zs+c5sfwAz/z2dTq+98K09jV9u4p3//kFnk2koN8+wDO/Dbxr59nvzeQAi3lmxrpu0vc2fHD3Pj7/gF6Kj0GOPfFzXvrhCzzwcCUV7y+fici0JK9wOa4hqYIipB+b783wkn6CICSdpBmG7vHLFBQtT9bp5pzeE6f48te+nWoZaYQRTv09X/5xlCa5wF98m98tacoqwzA3fzHuiXdTLUMQBEEQZk3SDEOP6wYGY/aUFPr0H/8Bn/7jP0i1DCENUHKMqN7YuakEQRAEId0xDgwMoCiKbl4d0HLr6OXDAS0njqqqutm8AdSb17M7f6Ewr1G9Xvr7++e8H4GWo+rcOf0Mwv6M96Jl5lrUa6MUrs7+6j1CfNy4cSPivZWO965oES2z1WJct25dUpIyXnovRvJrQchglJwcysvLk5LcdGBggHXr1uluT2ai1WzVctlVFPVcwvxi0aJFFG/cGPJZut67okW0zFZLluWOEQRBEARBEGaKGIaCIAiCIAgCIIahIAiCIAiC4EMMQ0EQBEEQBAEQw1AQBEEQBEHwIYahIGQYy5dnT6J4AKPRGDWtQk5ODrm5uTGPE+u6RDuHIAiCoGFUVRW3243H44nYQFVVACYmJnQHVn/unYmJCd0TqV7v7NUKQhozV/3IaDSG5LVauDC07KDX68XtdoccJxl9GrT0ClH7fRxajMbo+U0VRYma+8tP+HWJRLzXxeOR8UqYxOv1TrnP060fiRbRkigtRn8SRD2hiqLg9XpjJlyMlUwReVoXspyk9KM49klanw5qF+sY0bQkC/+54rkuMloJIShT75t060eiRbQkSosRwGAwRE2E6Ha7oy73eDwevF5v1OUeWcYRsp1k9CMALrVRv66f/WoT1Wh9K3gff0b7ZGgxGAxR28SjxetfTXjFilLdHNhmcag0bY16+mkT73XJMYiXjTBJjjLVnSHd+pFoES2J0iKjnyBkFA6s6xroTLWMRPOKFaX6BK0D2lKK6rDQXF1P26VUCxMEQZhfiGEoCJnCK1YUpYbm2C0zDCdt32mGp/aza63vo61N9DzVScP3HSlVJgiCMN8Qw1AQMgHfMmtd2zDDbXWpVpNgztP/Algeqg75tPohC3zDTtym4StWFMWK4xVriI+N9ZWECxYEQchaxDAUhExgaxOqqtLxWHGqlSSeS/2coI7ytZE2nqB/WsvJzdR8p5xhX3Rfz1PQXG2N37gUBEGY54hhKAhCFlFH63d24Tefqz/bSh3N2GXWUBAEIS6iJxATBCEuDKPjMDAA/igwX56oAKqKcvs25OdHPoCqgteL4nKFtlFVWL0aouXoGxuD4eHQ8xiNc6MlDOPwMNy6pSttipaI5xrX3X/6bNGZeQRlYABu346qxX9dct67AWuWJVCXIAhCZmCMJ5kiwPh47MF7bGxMd5tXElwLWcyil/tRvrWbiHe5Lx1AHqD6XsGfB94CuYA3/PM//3OUj35U99zq6dOoTzwReO9PYuCNcA4/eYoSqiVMU0CLjlY/Sycm8OgZmIoSePL0hH0eTM7nqyLvn2AM//iPqKdOETHlq0+T/zsbtyyDPduToiuROFoqqcGGemAzcBJrkRmO99E0w0vsbG+k5EUTw0eqsO/ZTv++mR8rk/F4PLp/32b7txG0xOux2iTj77RoES3gS3AdLd+N1+vF5XKRm5urmwzR4/Hg8XjIy8vTFSB5DIVs5trHK1j2F387N/0oVt954AE4fjzwdmJiIil9GuDypUusXaszRRenFq/yKluwaL6EUw6lPwM4Xdzf/GbUKirB1+X2r46yIDGnTSInsVvBcnyz9nZwiBOYqC9NxLFXsGvfXpRtjZSfPsiustDzWovMcUfL19mO0bFzRdxnDjV2U0OOIYf8sAegRPYjg8Ew5fjBJLNPixbRYgStFqmeUEVRcLlcGAyGqGVcPB5P1IzeYhgK2U4y+pHescOPmSwtiqLEbBNLi9d7B+WPQsNLDpq2TkYmO15qhqd6qI6458yY7XVJa3r7aGYvPb4ZPafDTmetiWfLou8WN1Vmhm2NPO4YYVcEw84Sc2ZyhLY92+kI0WxD2XZ48n2theEjO0i3ECuFqfd5uvUj0SJaEqVFgk+ShLO9EWVPN05AGyArqW8fmfkBB7upL2qkbdB37JaTCVIqCMmmmF1fscA3aiZTy7xipeYbdbR+NpFmYXbjsB+mzvaIz5A+yXNmO3Q1U1JUiRLp5R+PBrup12lTEnaMErOdTvN2lCJb4iK9ay0Mj/ahHt+rvQ/TU2MFrOYQXdbeRJ1cEIRwJPgkKYxgf9FO3cMHfE/Cg/R3wZZ98S+nRKN4524sRWbqN4Yv0WhP6A1dcR6oaZrLNb02lG3QM2pO6KyOMA/Z2oTqAKVaCSxJWhzqZMJrwPFNhRp6UL/uu9sutVG/roP6gY6QdvOSwW4OWU3Un/b1f//s4aiZ8vZGSs7tjtG390bsx5M+hkmcxSvbQcfojsDbdFhKFoT5hBiGyWCwl44uE/VPhw3aCXPi3kzTaQv1T/bi3Dl1AI/Hp0cbfIMJ9xsy0TrFt0hIBcWPdaA+lmoVc8DWJlS1SXdz9dfV0GCZtbvoUHeF7R+2U1CbOHyxMxbH0WY6MVEPwAhtzxymznaMavCtUsyM4g33JESfIAiZgxiGScDpsNPZtJuOMvAP2gA1RYd19vA/vcee8eusqKQh+H1Xcxy+PvHiNwZPYi06it4MZMj3mO6soyAIs6PXpi23+nC2t9CAheHgh0GrGcUaulvoOHF4ynhUZztGR3UpdV1D9B/B98A5+0jnWNhbKmmwhn8apj9NfREFIRsQw3DO0Xx9LMcPam99s4etpw+ya8iG8kxpzAEuoqE32E19hZ36pM7irWDXkT52HfG9laVkQZgznO2Nmo9f1Ietk1i3HabOZmGL2Y423kDr6bAxJeYDW+hSsqOlkkMAZaVswU7/IFSXoa121FoYjmAUNm+rjCsyue7hsA+6minp8u1Za8F0oA/1QIQde+MbLwVBmB1G0EKX9aJk/PkHo0XK+NtEy1WoRkiOOx9wth+lGbD43juONtPZZNNmD4dmceCyUrbMXp6QQOaqH0WKOg5G9ZV/S4aWSOeO1SaWlmRGAMd7XVI/XvmCRwCsfTgObI788NXbR3OTDXUnWM0Am2kaPZhAHWWU19rpcIywaye0PXMYy76+iIbZjKKSYXL2r9eG8kzChCcUlan3ebr1I9EiWhKlxaiqKm63G7fbHfUkLpcr6naA27dv625L/UCbAga7edw/uINvyWcvPaNBT+7BT8s+wn0CpzyJ11oYPlJFea2d/iHAN2M4507aDhuKeeryd+gS1Pz1RZyrfpSTkxPSwa9evcry5csD7yMNEsno06ANLLHaxNKSk5ODxxMx7fS0CL8u4Xi9XvzjXTRcLldC9MyOzXzOZqLZbIemSv0Z+SozahVAjKwEEZaSA+PM0BCdtaU8G3HHFZgeNtFwbhBn+1FtiXqOE1z3+2dKdSjpap52LsTZ4vV4de/zdOlHokW0JEqLUVEUcnNzdRMhqqrK+Pg4BQUFutanx+PB5XJRUFCgK2C6udnSmsFu6iua6dSJ5NMYoe3JZjqbLLSeaqbf51toOd4X2j4OX5mQJ/HAU/UKyjdBx4URqFqBltzWROvpqUZhp3k7ijmO7zXF799OQ8CH0URrtRl1NNKBNB/EqYlv5xd5eXlz3o9A68zREqCOj48npU8DGI1GCgsL00JLPNcl3t/IaEy9l03xzoOoOxN0sFhLyZtKg8agEfpPARt9OqpN1JnNlGCaukQ9B5Trfe8ULiUbDIYp93m29iPRIlqyyFpLHloEIMBh7Hr5tAZ76cDC8AG/Raf55yXSYbt8o4nOF3tx4luybtod0TCrsx1DHe2L+uqJGAxqovV0H+qoLbAULghCduGwH6Zu49SBY8sG34yc320lML6M0LZHy6E6NyQgz6sgCDNGDMMZUL3bQh0AezHpGXplO+iI58k2UgLaQLLqQfq7TJTrlLQqrjZpEYOD3TxuhtbdcxwNPKSXCNdMs292cTKJtyAI6c8I/adM1FcHLcv6AuS0cWeEtj1mTp29948AACAASURBVNgsWKxH59AYDGYFu562gHm7JLIWhBSQ+vWSTCQsAeusiLmUfA/lQQ/zzgtnAJ+lWFZFfe12aiq0WcE5X8Yt1fvespQsCBlJ709pwMRwWVAUNP7xREtNc8Lvz7dhCOXJbkxHSunvugfTkRjHjpewqGRAG2OPD6E8083nJApZEJKKGIbpTG8fzbWlDId/HvAH0vwM6drLfp8jtrO9kcc5MGeO2SmphCAIwpzgsJ+h9Wmz1pfDfPscLdvheB8d/lWRKjPqPhtKUbP2QBt2rBmlq6nS81v2bTuiBdWV+ANnmmwy7gjCHCOGYRrjvHCGuocfCXEK95fWA81IqzllobWpmUPtjyQlSq945wFaX9xOSUupJLIWhLRBP01N8c6D6OWEqD5wUDfiufpA39RtUQy5GaeriUG1Xl5DQRDmBDEM0xYtUW396RVBUdBoT+o7V2ipaU75l6FL6S9qoa36IOXn7GwxJSqPWVhUMqAF0djoLzpK225ZOhYEYTNNo31xtPMlyJ9zPYIgzAYxDNOV3j5O2A7QVAYQ5tvXa6MEG+oR/4zdZppGd2MtqqQBE627Qw81s3Q12mAfuXKtb3ai14ZS4c9huJceMRIFQRAEIaNRzp49q8aqrODxeHTz4cBk5YVouQpV5w9Yu/G3KFi4elaChengW7p5OHYy2DlPjp3lnP35P5CzoXHO+xEQyD+lhz/jvWiZuRb1yj+zZvUKFq98f9RzCtnPjXffxjk0gLLqkSnb0vHeFS2iZbZajOvWrUtKUsZL70VP2CjMBfEv3VQf6NP1QxJio+TkUF5enpTkpgMDA6xbt053ezITrWarlsuuoqjnyj60h8iGrgiVi6abWDolddznlkWLFlG8cWPIZ+l674oW0SIJrgVBEOY9WlLokLx/gxHyjoblGXW2N/q2bdfK3Y0eZNeQLXSfbYcj5FudaYLrk1iLKiU/oSCkMeJjKAiCkLUEle0MlNOcJFB2L3hbtBQykei1acZjGJ2BwDW/jkrsRWaam2y++s6CIKQjMmOYJJztjUFP6wko+TTYTb3vqd3Z3hhULSUa8rQuCPOGoSE6a0spj7RtsJv6aFWKem0RKhz5XzYcwW2rzKElNk9bqAuU0/R/Vsohv1EofsyCkNaIYZgU/PkHq3w+OoP0dwXVIp0lxTt3Y7GaZ1lbVOqTCkLmoT3sKUXbaejSkkxrhtsIbc8cxrJvFonoay0Mh9dVP+0vBzoNem0oFc1gOyZGoSBkALKUnAx8tUfrn/YZgr19NLOXnoQtp2ym6bSF+id7ce4M+kMQnP8wmJAKBSZaTx+AJ30+RklIki0IQqLwp5XSgkf692lJpp3tjdRsCluyLS2lLrj8XJONjrBl4JKuZupsx+jYEOfp9cYYwpeSw9NmRQhyEQQhLRDDMAk4HXY6m3bTUQb4nuQBaoqm+uVo+P2C/JGC+seeMvh2NU9WIJhS01mrfUpIhYKTWIu20xyzZrMgCJlCxGonEWu8b0YdNWvpqqxBxlovoTWMQ9jL/qjHJOB3WGeLnSpLEIT0wqiqKm63G4/HE7GBqmrDy8TEhG6ItT/3zsTEhO6JVK939mozkpM8Z7ZjOe6rRuKbPWw97Yv+iyMNRMRSU4lICeF/2he/n4SQjH4EWkqDqH0tSX06m7V4PKkfr5ztjZSY7TCd/mnXxpSeh+3UmO367UIeBE/Sf8oEtdDxZDemIzsonm4ASoDgtDd9WTMj6PV6p9xb6XrvihbRMlstRn8SRD2hiqLg9XpjJlyMlUyRaNuyGGf7UZoBi++946hmiHWUAUOzOHBZKVuiNtBmByMWtQ8vdm81o1gn38aueSpEIin9KKhdrGOIlplrSf1opT1QAmDtw3Fgs25NY0JWFvwPmjtQN0R+8NSS2ZdOftY7BA/fAy+Wsv/hIeztNhrMeqsZfoKinYOPGxhHgstphpKRs4jK1HsrXe9d0SJaZqvFCGAwGKImQnS73RiNxqhJGb1eL7m5uTP6ElnLYDePBz+199qose6lZzTo6T/Cck34wNkcbsjVWhg+UkV5rZ3+IcD3VB5avUSnpJ3MEs4ZyehH/vNEa+PPaC9aZq4lx5DquLzNfM5motlsh6ZKfaPQt2RrOX6MVrbTHxxsUlWJpcvMc/t2hLiO2K1gOe7v+yO02cFk0t6V7zRT3WujIZpryWA39RWTT7UhBmGMccXRUsmh2F8+7chRcqbcW+l674oW0TJbLake/TKTQOLYsLQNIYzQ9mQznU0WWmt97585jOV46FN2pMi/8Kdpy/Gg7cf3+j5dQfkmOHHBH0V8ErvVROvu6IOyUtHMluN9YhQKQppTvPOg1uej9VVfqpjIM/w+43Lb5DjlaDHTXGvhc/72vT+lY2OVjiuLlqkgOFVNeKorZ3uj9jA62sewzTTNbygIQjoiwSczwHHUH4V3GHuvmepIg/JgLx1YGD5QhX0P+MvTJZLyjSY6X9QikWk/SnPTbtQIPj0BXyUfU2Yg/cgsoiBkFcU7D9JzrpKaImi1naHBaqL1tH8mcIS2Z85Q/7Q5ilvLZECKo6WScK/FKUEuYW4pkaizzey7CIKQHGTGcAZU7/bn8tqLSc8Xr2wHHfFE+U4pNVUZlKx6kP4uE+WlkXctrjZR1zVE/2A3j5uZMlvoL3dVYrZHzkkW9JKnfUHITqoP2LBwmAZfENxkQMgKdh2JFbym+QoqRcH+g1FosumOMepoHz1TfFsEQUg3ZMZwJuilaJgJMdPE3EN50MDtvHAG8FmKZVXU126npkLzSwwvfF/yoonh0YMURyiFJQhClhOUY7DOdgy1upf6ikqUCIEjkdFWOXYdCT/unKgVBCFNkBnDdKa3j+ZIJa02+SMKNT9D2Mt+n1+is71Rq15SZUYNNjgjzUwGvUqipbYQBCFN8fsBailitNUFXzWUCjv1p4P8lst20BEoT1cZZxnNUPx+yrql9qzmKKX04px1FAQhpciMYRrjvHCGuocfCZpN9JfWO6Btb2+k5pSF1qZmDrU/Ej0FRIyZSWd7IyXnEiheEIQkEGlWTycjgZ9IKx5VZtQjEf4fRvWBPtQDkbcV7zyIujNu4YIgpCnGeJIpAoyPj8dsMzY2prvNO28TXM+UkzxnhvrTK0LLTtVqZescLZXUnPIbe6X0F7XQVn2Q8nN2tpgOplr8vCQZ/Qi0RNqx2oiW2Wlxu92QHz1lhDB/8Hg8uvdWut27okW0zFaLUVGUqPluvF4vLpeL3Nxc3WSIHo8Hj8dDXl6eroB5mcdwNvT2ccJ2gKYygLAn/F4bJdhQj/iDTTbTNLoba1ElDZho3R3heLrlrYJoirSjEC9Go3HO+xFoOazy8/N1t09MTCSlT2ezFr02wvwkx5Az5d5K13tXtIiW2WoxAuTk5OgKVRQFl8uFwWCIWsbF4/FEzeg9fw3DKGlqoizZUGWmQy/iucqMOmVblOWjGZe3EqZDMvqR/1ix2oiWudEizE8Upt5bmXbvihbREq8WCT4RBEHIRnptKHu6caZahyAIGYUYhoIgCIJmSAZVc3K2N84oclkQhMxGopIFQRAymJBaxRHQ8y22HA8upaeV7KyzHYsjv6EgCNmMGIapwFeEfn9cSWYFQRCiU2c7Fj1dVQgjtO3ZTn/wR70/paEL6NqOEuKObI9Y4i7UqBQEIZsQwzAjOIm1yAz+wVgMS0EQfFQf6KMDfy7S3XHUOw8PiJucLQw2LuM/niAI2YQRtNBlvSgZf/7BaJEy/jbRchWqqqq7LVtxtjdGrSjSWXQ44udTB+ijNNdaGJYn9LQmGf0ItL4Uq41omZ2WzBuvtOT3dAXP8O2lZ7QSe5GZKYvJTbaAwedsb6Fhkw017hnH+YfK1HsrXe9d0SJaZqvFqKoqbrdbS+gaBZfLFXU7wO3bt3W3Zd5AmyCCBuB4cLRUcijkk5M8Z7YD9im+QhENy2meT0gcyehHoHXmWG1Ey+y0eDyemHrSit6f0oCF4VFfdaNeG8oz/rJ1JlpPHwzUUg+vclS88yDzdHSOG6/Hq3tvpdu9K1pEy2y1GBVFiZrQVVVVxsfHKSgo0LU+PR4PLpeLgoICXQGxcu5kI4EB1zdIRytJ58e/LOQnMFsYvK8sJacleXl5c96PQEukXVhYqLt9fHw8KX06m7UYjan3sgmsOMR82DuJddthLMf7AmOE88IZ2FQZc7zxu6nop76P7GMYbmxmOwaDYcq9la73rmgRLbPVMv+stRTgsB/WKo8Eisk30jY4QtueCIXmg/OODXbzuPkeeuIwKAVByCb8KwWAtS+QQiYSzvajNAPN2yqx9oJ/WdliimflQEuMrwa9epo0dxbt/TFaa7VgEzWk3fwxCgVhviGG4Vwz2M0h6156/APqaQt13EO5b1ANGXCP7w3dt2wHHTIrKAjzkM18zmbS/ttUqT8GDHbz+Ismhkf7UEdtsK0SZU8LHV17Mc3IJ3mE/lMzU5zN5P+b5HMU5g9iGM6EwW7qiypDksFGZoS2J5vB9sjkwD40RGet3/cnOo6WCDOKRZUoFc10cpiaSNuKKqlvH5ntNxQEIcUU7zyoPTBGW0Yu20FHYEVhM02jx2jFHjrm+Om1oRRVUmK2U7dRb7pvkP4uE/XVEojiR7k1TsFLr0FlJVgs8OabqZYkCHNK6h1pMhDH0WY6ATiMvddMtd6TeVBusHq0SGOH/TB1Dx+La2m4+kAf6oHg44X6Kko6CUEQgnG2t2hBKJEijOOoma75NJsYjrpMfBJrUR+mebKaoS4o4Jr1sxQu+D3o6oI//VMoLYVPfhJ+//chhm99Xl5ezHMUF0f/i5CXlyf1u4WkITOGM6B6t4U6AKIt15zEug3fEvIx6l/cjrKnkUPWmT+NOy+cmZlgQRCyn14bJXH6JDta/P6I4ftD69Pi0xyRO++EJ56A//xP+MIXUP7zPynYuhXle9/T3UVRlLgCL3Nzc6Nuz8nJEcNQSBoyYzgTynbQMbojRqPNNI36Z/K0hLLlLZXUbLLREf40PthNfYVvFrLJpjso95+zU/fwARm0BUEIQYtgvoeeuGbxfH6Epsn3bXu209Cl+TzHDCoZHOJE8O7zkYceQv293+P2xYvk/+IXiMkmZBNiGCaLXhs11r30jEZY9o3H0Bzs1mYbT0efbXS0VGI3SbkqQZgvONsbKXnRNJnDMITNmJrs1FRU0hDy+V56jjD5UNpkQz0SySVlBeWboGFbZWhKmyZbSFqt+Yq6ejU8/HDgvfOH9ZTs6vS9q6N1oINda1OjTRBminFgYABFUaJOU3s8Ht18OKDlxFFVNeqUuTo+PiuhGc1gN/XbztB6+mDMp3lneyOPcyCs7ulJrBXNYDsmKSLSFNXrpb+/f877EWg5qs6dO6e73Z/xXrTMXIt6bZTC1ZkRgFG88yDqTv3tU3yVg4njoTTq/vOEGzduRLy3PB4PixYtorS01GcUbqFH7aAan5G4zkq52pQwX8zf/OY33LhxI+K2dOxHoiUztRjXrVuXlKSMl96LnrAxa+m1ofiMwniMuv5zdtg4OQqHJLmNWbIqfIlISBZKTg7l5eVJSW46MDDAunXrdLcnM9Fqtmq57CqKei5hfrFo0SKKN24M+Sz4fgEHz+3qpK7t2YARWPzYs7R2lXDoh5+j47HEOACtWbOGNWvWTPk8XfuRaMlMLRJ8Mpf02lC2QU/EZLArMD1sonlbaKqZmkBwipYAW/MbipyyonjDPWA1B+2/nYYZ5y8TBEEQZsSlfk5QR/3vBBuAxZhq6+jssk8WLYiB84f1KJ9qw/HD+sCMj6LU03ZpLkQLQmTEx3AuqTKjjupvjr4EpAWs7DoS6/jR008IgiAIc8ylfjrZwv5I/oQv9NMP8QcNvtBAzX09qGoH4KTtUyU0fKUN0/O7JPBQSAoyYygIgpCFONsbQ0tsChmChZ6vBxak2fUVC7zQgV1mDYUkIYahIAiCEIbmyiJVlFLAo+VxVcYShLlCDENBEARBEAQBEB9DQRCEDGYyOXVk7JR0NUfcYjneRxM2lG2H9Q/ftR0lohuzKe5MC/OCteXU0UH/JagO9zNM5Azg5cuwalWijiYIETGqqorb7cbj8URsoKoqABMTE7oh1v7cOxMTE7onUr3e2avNBqaZvmY6OFoqqTllCdRSDuUk1iIzJ2zHwnIkzgTtWByXRNrBJKMfgZbSIGpfS1KfzmYtXtWI1+uOer70QC9ITeujzfgMQN1+6gtgG+ymvsJOfZRxydFSSQ22eVebXfW4UBXjlHvLf7+43W5y15azhU46XnayK5Caxom9q5O62mcTFjSifvvbqMPDeB95BO8nPjFFS7r1I9GSmVpyJkPiI7/8iRb9tRpn+kLqPALgsB+GWhOmBBuFzvZGaqymOalz6mipRGk5meCjZh/J6Ef+Tjyb/UVLbC3G/GW4J24m9f5JJM72o5yoNUGtiRPbbDhi7VC2g/1Ndjocej6FJ7FbwWKaX0YhgNt1E0P+Mt37Rbv3qvlcWx2dux4PpJZx/vBxGl6wsD9BOQwBvFYr6h/+ITk/+Qm5W7di+Iu/IOf06bTtR6IlM7UYAQwGQ9REiG63G6PRGBAUjsfjwev1Ri0ErrfvvKLXRo0VoFl3eWdGSzS9NkrM9vjqnApzRjL6kf880dr4M9qLlplrKSwqY3QgQx+GBrt53HwP+49D5zOl7LfZqWk5GXOmr3q3BSp+imNnhHrLvX0011oYnocrBBPj11iw5v4p95b/fvHfT8WPdTBMPSXrFF/5wTpaB4KrnjiwKjXgUGnaqn3i/GE9JV31DMeZisZgMEB9vfbq78fQ1QX79kFJCerHP47x0UdRFiyIuO9879OiJX4tEnySNE5i3XZYq2Ay2hf5dXzvtI/qbG9E2XaYOtsxWdYVhASRX3QH4zdSm+jF2d6oJa6f1mz9CG1PNrPl+KRxV77zAK2nzFh7Y+xatoP9TYepmXI+beyy7Ev8akQmMHb9NxQUxeclWPxYR2A5UFXD6yRX06ROGoWB9kFGYfh7ALY2RTgWUF4OX/kKvPwy6he+QE5PD8qWLfC1r8Grr077ewqCHzEMk4SjxUwze+mJ8tTuvHAGuIfyOGf9HC2VgZnCeP0GO83btT82kt9MEHQx5i0BxYjr9vUUKTjJc2a79l9rX+ylYB/O9hYaNtnCHhJXsOuIDbY10jYYff/qAzYs1lAj0tFiprnWwufm4YOnxz2Gx3Ob3MI0D/j4vd/D9Vd/hfrv/64ZjP/jf8Af/AF873tw5Uqq1QkZhhiGScDRopW6az0dYYkmiP5zdmiqjF1wfbCb+qJKaqyxHMunUmc7ps1OPg2P+0rpSa4yQZjKojUf5vrI2RSdfTOfs/mKnsczJuCrq/6iieGID5+baTptoqMilr/hZppOWzjhMyI13+W99EQMaMt+rl85y+LVGWQRr14Nf/qn0N0N3/gG/PrXUFMDX/oSit2eanVChiCG4UzwGWZKUaxBVksSW2Pdq9VLxrdfpKWhwW4OxXTuPom1qBKlohlsFiyz+Q5lO+jwLWHvP7d9BktWgpDdLCn9Ha5dPpOy8xfvPKg9xMUTBdxr0+qqRzPgynbQcRxqYo1bZTvoOG2io6KSEjMxH2izmfcun6Go9COpljEztm6FlhZ4/XXYuhXl7/+evIcegu9+F86fT7U6IY0Rw3AGOI420wnAYexR/HYcLdtp2GRDHfUPrFU8O3qM1lNmzRArqgws2Tgddjp1lmsCvka+dDPqaB8dO0sT9n2qD2gG4vDGoxGM3RH6TyXsVIKQMeQtLCFvYRnXr6Rq1jA+nO2NKM+UMjxqprrXFhhblG2HoauZEv/7Pd04q8yox6GmKNqy8kmsFc101pqoI1qkcnZz4923MeQto6Bow4yP4fF4uH37dsx2Q0NDUbffvn1bN/VITBYsgIYGvM8/j+uv/gquX4faWvjsZ+FnP5vZMYWsRgzDGVC920IdAHsxRVllqD4Q9rRftoJiX94xf7BJ8zZt0C4x26c4dzta/Nug9XSfzyCcbQ5CfbQZivDZgUH6u6BuY3yOj872RlmaFrKGFRvruHLp56mWoU+vjZJzu1H9M4VV5tBgtloLw/73wW1Om+iomGocamOO7wH0yEE6AisKsf0Ts40rAz9nWfknZ30cf864aMQy+uI5Rlxa7r1XW2L+f/8PPvlJ6OyED30ILBZ4882EnEPIfIzxJFMEGB8fj9lmbGxMd5s3mxJcl+2gY3TH7I9TZUYdrQwkng73FdQMy9mfZlb09tGMidbqOAzSwW4eN9vBlmrRqSEZ/Qi0hLqx2oiWBGnJLSZ/2X1cvuhg1fo0XFCtMqPOxAUuZAybTIatZU0IXbrWxiGfG8s8qXgyculVchdvxLDgjpj3VNreu7G0fOxj8LGPoZw/j+FnP8PwxS+iFhdT8JGPMPYnfwIFBcnTokPWjy9pqsWoKErUfDderxeXy0Vubm4gKWI4Ho8Hj8dDXl6ergDJYxiBwW7qK5rpbLKhzuFM4MwZoe0ZLcVOzD8Eaf9d5h6j0Tjn/Qi0HFb5+fm62ycmJpLSp+eLluJNn+GC479TuGg1i5ZvjKoh4+i1BdJdRe+3m2ka7aPJ5zetdGWvgXjzvfNcu/JrSistGOZDn37/++GrX4WvfpWc48cpOHqUwsOHUT/5SdRPfhJ+67eSpyWM+TC+pKMWI2jZr/WEKoqCy+XCYDDoGneqquLxeHSP4T+OMIkWqUwcA3LqcLa30NBlovXp6M7vzvZGSsx2bbZhnpXLCiYZ/ch/rFhtREtitZTev4+BXitluQsoXFwS9RxpQ5UZdUqpvAhtRiMWQ9ZBrwRfdnD75mWGf/0Sa7c0gpKTFffutLQ89BDv3XMPiwsKULq6UJ56SqtaVlurvVauTJ4W0ui6zDMt4mOYVHzLMUW+msZz7DM4G/zGnuV4lFkBu23SP/J4nNGTgpCB5C9aR+n9X2LwrX/i1ug8c7abJ4zfcDJw+ieU3PdfKVhyZ6rlpJZVq+CLX4R/+ZcpaW9y/u3fUq1OmGPEMEwKvuWXIjMcD3MET0tO8pwv4CVajsRm62QlF6m6ImQ7C5bfS/Hm/8bQ2X/h2ju/TLUcIYGMXj7NpTP/RMnmL7Fw5f2plpNehKW9MfzjP5Lz0Y9K2pssxphqAfODuVh+0Xx+5qb9ZppGD8Y8VtM0zi4I2UDh0vdRsuUbXP3V97k1Osyq9TUY8xamWpYwQzyuMS5f7GFiYpwNW/8nuYWrUy0pffGlvXHV15P31lsoP/sZNDVBYSF8+tPwu7+baoVCghDDUBAEYRoY8pexrvJJ3r34EudP/pAlqytYVnw/xrxFqZYmxInbdYt3h1/n2jtvsvzORyje8PuplpRRqB/4ANzvm1l9/nn45jehq0tbdl62LLXihFkjhqEgCMIMWLb+IZau/ShXL/wzF97sIL9wOYuWrmfBknXkFS5PtTwhjImxd7k1eokb717g9q3LKEWV3PmRvybHoB/dKcTBpz6lvQ4ehJ074dln4Y47Uq1KmAVG0EKX9aJk/PkHo0XK+NtEy1WYqASdgpCuJKMfgdaXYrURLcnSksOyDZ9g2YZPMPbuGW5eeZ1rb7/M7Zu/wZibj8FYCEqkY6lAjEwNqqpFhEZvFPM4Xq+HnJzIaSuyXovqxeMex+u5TW7hKgqXvp+l5TtZsLyCS5cugZIb9Z7J7ns3wVr270cpKYH/+l9RfvQjPFHSssyr65KBWoyqquJ2u3G73VFP4nK5om4Hopb+EcMwiF4byjbomVJlRMhkktGPIL4yW6Il+VpyFpSzeH05i9eD0+lk9aqleN23QJ1hKbMEcfnyZZavWpVSDX6SrkUxkGNcQI4hNFmzv8Sc3LsJ1rJzJ8YLFzC2tOB6+unUagki5dclw7QYFUUhNzdXNxGiqqqMj49TUFCga316PB5cLhcFUTKlx8q5I8SPs72RkhdNDKd1ZPP8Iy8vb877EWiJtAsLC3W3j4+PJ6VPi5boWhYuWgZE9rdKppb3bigsXrZOd7tfi9fr5ezZs9x9990hCXZToWU+3i9Zo+XAAdQPf5iCwUGUu+5KrZZ0ui4ZpEWsNUHIMJYvj+6/Fi2zPmjJTXNzcyXpvBCC1+vlypUrMev2CkJUjEY8n/gEvPRSqpUIM0SCT+YQf3UTPWqKDkf8vM52jI6dg5P1SyNip6Qr8lZt//RMnJ21JNFVYuHC6OlR9J4SgzEapesLgjA3qFu2oPyf/5NqGcIMkb8Oc4hWfD780xHa9mynoSuWAbciqDbpdjoejtJWfBZTztKfvEnOU9u0aLwNGyZf/vdxGGuCIAjZgFpcDO+8k2oZwgwRwzDZ9P6UBkzUAbzYQlt1rEL0K9i1by8Nz/Ti3BnZp9Bh1yqQiFGYOt575F6Wf2k/hkuX4MIF7fXyy4H/K2Vl5K1di3LnnaEG44YNEKUYuoYDq1IzOXv8VA/q1+XXFhJLfn4+Dz74YFwzzoIQlZycpK6iCIlFDMOkchLrtjO0HjfR0TXE/n1Q82Q3plhBJFWP0Mp2nuvdEaH03EnsVhOtp6VOcUrJUeDOO+HuuyNuVs+fx/2rX5EzPIxy4QK8+uqkAblqFWzYQM769RjWroW77tIMxve/H3JexarUcKJtGPWxYvxGYv1dw3Q8JqFHQmIRFwMhIVy9KomuMxgZBWbCYDf1Fc10snday7eOFjMnbMdoKu2lA6DKTM+mSh5vr4rhE6jNGirbbJjCzudoMdPcZEONOusopJwNG/CuWQMFBVNzsPlmGdX+fpS339YqCFy4AE8/jfOtQzRjoSdgBFbT5LCgVD+H47EmmSUWBCHtyPn1r1HLy2NlpBTSFIlKngGOo810AnAYe2+cO/XaqDll4dkwA7D6wDHqX9yONdZxqsz0NB2mpuVk6DGtJlp3y2xhRrN2LTz4IOpjj+FubIR/+Afo7oYtW+j/dSc8ZQo1ALeasNCMSfIyZgAAIABJREFU/ZV4T+DAqihYX9H+VfyvbzoS/12EjEVVVW7evBkzca4gxEJ5/XX44AdTLUOYIcaBgYHAHwo9PB5PVL8TVVVRVTVqigx1fHxWQtOJ6t0W6qzajKFpytJuBALBIZGWjFew64gNa1Ejbaej+xtWHzhG657t1Lcfo6O6l/pth7Ec74vhoygkA9Xrpb+/P6H9qKzMSP8bUFdbHrH9iX4nbI1/Obm5+hCtAyrqWuAVK0p1DdaHVL66ZYKBgYGoWvQYHx/n3Llzutv92ffnenwRLbPX4vV6GR4epri4eMqS8ny+LqJl+lrWvvoql77wBTw6x5mv1yVTtBjXrVsXSIR469YtxsbGAhuLioowGo2BRIhXr14NbMvNzaWoqChwguvXr4fkvyoqKiI3Nzfwvv9yFjk0l+2gY3RHfG0Hu6nfdobW0wejLPttpum0ifqKRohqHK5g15FjsGc7ilmLap7qcyikAiUnh/LycgwGA2NjY9y6dSuwLVo/MhqNLFmyBJjaj4zGMRJJXduz7Frre7P1c7Q+2kzDSw6aNt3L2uFhbq1ahXflSmAyJY4/0erIyEhEzQMDA6xcuXLK9/X3/fHxca5fvx4Y6IL3Bbh16xbXrl0L5FUMHzdGRkbwer243W4WLFgQsm/4db5+/Tp3BNVoDdecn58fGOsS9RuFf1//ea9cucLSpUunfF//eScmJjAajSxdunTKvjBZ8mrVqlWBwT1cc6J/I4/Hw/DwMMuWLWP16tXyG6Xhb5QR/ejcOdSVK9nwW78lv1G6/kYx+lHIY+GVK1e4ePFi4P19990XMP4ATp8+Hfj/kiVLuO+++wLvr169ytDQUMi+4V9s3hGYKTxI9WA39UX+JWiNzkAeQ81XseM01FdU0n+8T9fgc7Rsp6HLRF2tnc4X9SOVhdRx5coVLly4EHj/gQ98IKQvnDlzJlAiMrwfvfvuuwwODgKwefOahOraUq5zp4yN4X36aXLffpuciQnGi4tRKiowbNwIGzfChg28/c473PYl1g7XHOn7Ll26NPD+7Nmzge9bVFTE5s2Trg8jIyNR9w2+VuH7hp832JiJtO/73ve+qJr1fqPw8wb/RnqavV4vly9fjqk5fN+33norsJS7aNEiVgWVjwvfd9OmTSxYsCDivtM9b/BvNDQ0FHItY/1G0zlv+G8Uvm/wbzQyMsL58+dDzhv8G0U7b6zf6K233sLj8UT8jSKdN97fKHzfioqKkLyj0TTHOu+vfvWrqPvO9DcKP+9sfqN7772Xpa+9hveBBzDEOG/4b3TvvfeyLChgZTq/UaR9/edduHDhnP1G4eeN9htdvXo1bs2LFy/m/vvv1z1vtN9o8eLFvP/974+qWe/e8J9XGRsbU5NRxuXSa3/JyrL7KVi4WrdNVjHYTf2T8GykiOPBbuorhtgfMXDlJNYiM4Qbh702lG2HodYyWQrP95kktE49v+r7Hnd+5NkE9yMnbZ8qoaM2PALZEYhUji8yWWuPQ6Vpq/8z7dgN94WlvhkdhQsX8Pb343n7bXKHhiajp0dHQ3M0btjAO4WFrK6q0vwkI5DMMlEDAwOsW5ce5dYyUYuqqpw/f54NGzaEzGTM9+siWqanha98hYkHHiB39+6Ua0mn65JJWiQqea4o20HHkZnsuJmm0b7Au8nqKXvpGe0LNSSrzKijZhwtlShFUvEk+yim/D7o/HU/RJgX1p0BnA1FRXDffaibNuFxucgNHqBu3pw0Ei9cgDfeYNGpU/Ctb8HIyBSjkQ0bUIqLtVlHIe0xGo3cpVPbVhDi5rXX8JrNqVYhzAIxDNMWbeawudbCcMSglUn8FVac7Y0oRXYxELOI8rvqYJcdx9erJx8KXrFrKWy2RttzDli4EDZt0l4+RgYGWLBuHYyPhxqNb70Fx46R299PjtM5tSKMP8n3+vVJ/hKCIMwZg4MwNoYqD4MZjRiGqaBsBx2jsRpt9pXEi5/inQdRd85Cl5B2FD+2H8uuGmq+afIt+TqwVjdT1zacXjkMCwq0hNxBvi0AE+Pj5EJoRZi334Z//VetIsyFC+SvW4dSXj61jOCGDRC0pCkIQprz2mvwoQ+lWoUwS8QwFIS0ppomtQeUGpRv+D56qsdXBUXD+cN6SrrqGX5+l29mOZJPYQrJzdWquURYplQ9HibOniXf6dQqwly4AP/3/04akSUl5Kxfj3HdukAgTOAVww9HmB4ul4uzZ89y9913k5eXl2o5Qiby2muoYhhmPEZVVXG73SFh48H4I9UmJiZ0HSb9uXcmJiZ0T6RK0lQhy0l0P/KnNdCMQ1V39rj4sQ7Ux4I/0drrvwcoZtfzKrt853W5XFG16OHxeKL3+zjGF/WOO5i4806UBx+csl25eFGrCnPhAp6BAZRXXtFmGi9ehBUrUNevR92wAXX9evIWLcL1wAOo69dry94z0AKzH+sgMdcl2VpcLhdXrlyZ4tQ+36+LaIlfi7G3F/fHP54WWvzbRcv0tRgDVRB0hPoTn8ZKuBgrmeKUMmDzCGd7IyXndqMeSGSFEp3o5UwjEKH9CP17ttO/L3O/T1L60RwR6ZzxaonWZtbji8/o8z74IEpYhJ0yOAgXL6L4DMUFDgfGH/1Im2lcvBh1wwYIMhzVtWtR7rgDJSjlybS0hH2nWMzpdZlDLeHHlOsiWuLSMjqK0t+P8sAD4HbLdclgLUYAg8EQNazZ7XZjNBqjhlh7vd6QFAfT+RLZzUmeM9upsx2Y8rm1yExzpF2abJoRGTWtTebhaKmk5lRQuh2Ash3sb6rkUPsjdOzbi/JMN5+LlOInA0hGP5oLFEWZcs54tRgMhqht/Nn15+S63HGH9vLx3sAAi/2zXU4nyvnzk0vSL71ETn8/ysWLKAUFEYNh1PXrcRcWJuQ3Sul1maEW/yyC0Wickq4m2VrS6bqIlji1/OIXUFmJ0WhMvRYfwdfliSe+wpXL70RqpBlJUSqSgJaLubCwUHe71+PRDC09W0cFr9dDTo4B3SLSaaJFfAznGGf7Uc34M2vVSsCfVsYXXBJIgq0Zf9rsom/nsh08a2ukpKiR1hjl8iITxfjUwRIyAznN/f0GbSQGuzlkhTpb1RSjr3q3BSp+imP0EVppwT64Q8r8CbOjuFh7bZ10spzw5/YaGQmNoD5+XFuePn+efEVB8Ruc4VHUvqow2Up+fj4PPvhg1JJdgqBLugeeqCqmyrtZuWxp7LbzHDEM5xRttjBgbPmTXgelknFeOANNuwMzgv3n7NRtnJxdLN55EHWDDeXJbkz7hijZdjj0FNsqQwy30FQ104hsHuymviLcBJx+ZLQejqO+qi9BBnI4nXtKGT5yMCNnC5PJlStXWBnFSPGXidJbJvD7FE76MM4zVq/WXlWhPguqqjIxNKQFwvh8G3n5ZTh6VPu/203O+vXkrl07NRBmTWKr1KSK8BrJghA3r70G+/alWkVMPvHQ76RaQtqTtFFAyclD9bhiN8wiHC2+2bYw462zq1kzFku7edwMraf9s2wj9J+CLaawHIRVZlRfsmx11G9VhfsYjtC2ZzsdMxU7NEQnJupLZ3qAKPTaqLGGz0YGo2lv2FSasUZhMs2rWOUlvV5vYFlQD4/Hk/Ql60xAXb4cSksjz3y89x5qfz+ec+cwDA/Dq6/C88/D+fMwNhZiKC5YtAi2bNHel85FpxKENMLrhb6+9J4xFOImaYahIa8Ij3se1Use7OYQFlprm7WACmwo9krUA2W07dlOPyexVtip9y0Rh1Q4OULS/QudF84A91Ce6CXcwW7qfWX79INKBunvgrqHM3P92OtxoeRIeo+sZ+lS1M2b8VZUTE2Vc/16yPJ03htvwH/8h/b+2rUpy9I5JSWTs45pgqqq3Lp1i8LCwpgO8oIQQl8f3HcfFBZCjIdSIf1JmmGYW7gK1+0Ijp/ZStkOOg6M0LZHr8FmmkYPBt75q5cE7z87/8Lp0X/OHrKkDT5/R7N9GkcxhWk9ibWimc4mG2q0Siy9fTRjorU6M6u1uG6PYixYnmoZQipZvBg+8AHtRVggzK1boT6Nb76J4cUXyRkYgMuXI5YSTMXy9MTEBH19fXz4wx+O6tguCFNId/9CYVokzTDMW1jKjaG3knW6ucXnj9fJ3kDQSDSag5aSFav2r2Ufkz6HR0p5rugo5WEGYIh/4ZxG6p7EboU6W6j1Oa1KKoPd1FfYw977jMIYaXoc9sNQa8GUmROGTIyNkLtAlgsFHRYsgIoK7eXD5Q+EcbtDjcazZ+Gll1AuXKDg0iUtECa8jKD//4KQLrz2GtTXp1qFkCCM8SRTBBgfH4/ZJqrvU14xYzd+Mx1taUsgkILD2HvNVMfIu2c5Hmkp+f9n7/3j26ru+//nleRfIQkkJokt4wSHBEw33CZ2oHb7oZuBJin1CHHLwOazbmYjnzn9lGYQs81uC629jcCargPvG/ZFG21iaIuDO3eLU4rbss0GIpnWMEhowSEmkkJiCAmJHUlX9/PHlRT9uleyI/vqx3k+Hnokvvfcc1/3SPfqpfc5533APTzI3mcH2ftsoODVNTQD3BqW0iU0vjAwDu/ZqMqjxi/y7HqktxKbsQhSELFzDw+yl0ruKyNkCtc+b6c3UU7CwGzlzuczM0UNwORH75E3/2Nzcx+hJtJOVEZoySAt5eXq69Ofjq5ETa8TeJl++1ukwcHz2y67jLzly/EtX67megz8qyxfDmErlySrJahH6/pz+j0SWnS1FBw4gOfrX0cJOy7d2sXn8yUsJ1CxSJKkmwfI7/eHZjBqjTuRZRlZlnWXUSooKMPlPYtf9mIyZ/ag99o7O9ncpUYM62ecjHmUJ1pgzxt2mspG6YoTMQwSSpD9pJ2mwCQUDtiQbuiONJEz1NF1Qze02y6gu3qCwf6wruiyDfSe2pDUcT1/3cHeWzt5LEOTWgNMnnKy2HoLFotl1u8jUHN7FRQUaO73eDxzck8LLbOsBbBcdRWmsEhjEEVR8L/9Nv7Dh8k7elSNNh44cH5VmGXL1ATfK1Zw8cKFFH7846G/ieomDtditVqZN29exMSktGsXoSW9tLzxBtKSJeRfdpnxWqII1yLSMCWPBcBkMmm+gZIk4fV6MZvNusu4yMGEinonm38lH33wNgsvveoCZRtM0sZHJX5XcuQYQ22CKW/Cy07Q82g3nc/bqR+sYesz68JS1EwPdeZ0K0MXsirLgR/T/Gw9e/5menW4n3lIPe6NzI0Wyt5JZN8UefNK5uw+kiQpYRmhJQe0rFyJv7xcTdgdzfi4uvb04cOYR0eRnn32/FrUixZFdEubSksxr1yJaeVKVq9ePTMt6dQuQsvcahkZgZoapMDfmdYugljmNGmVacE1nH7/xcw3hklzlLFnoydkTJyflRydPDrYlRw+dvGAnY5bO3GFRdSGH1pP88dsKOuAdTbWLlxP14rpLiUX7JpObpyk9iWen3U8nYhjcBZ25/P2jE5mfWriEPOXZXC4U5CdhHVPnxof5+Lw9Y+dTjXFTsAoml95BWl8HI4cUdeYjh7XuHw5UklJ7ExsgQDU8YVx1jkXZC5zagzN869i8theZO9ZzHnz5vLUxnDATset9bjiGp/w5NFaXcmByOCX7aGImvuZtsCyclXn63mjk8ar2+hJcvZyaLbxrZ24Tl1AtC7YnZ1o1nE4oYk70YY5Mzl1/E1KrmlFJGgQZAxWq/qqqwPCJsKYzXDsWIRpZP9+pMOHyT98GKmgIP6KMCtWgMb604IcwOGAr3zFaBXZjWuAxgfgsV2x39fDO9sYu30HTaWpO92cp7m/pPxGPnCPcmn5JxMXznCGB7vZ3LB/xsbL/cxDNBOMFgYifMQZU1i2gd43oPHqGsY0k0iHRyjrA2MbZ6IqchKMdtLqSM7naVRXZ0naSKYxZz88gilvPgULViQ10FogSGe8Xi9vnjjB6jVryL/uutB2RVE4NzVF4Ucfne+Ofucd+PnPQ/83KQr55eWwcmWsaVyyxMCrEswq4+Pg86nvuyAphnfW8EjFfno3FTO8s4a6h8/v6+y30x7K+jNKlzWyV3Fvv/rX5u793Df2EGO376Aiqn53XxtbuZ/eTVHfsQ4b0gs1KNsSD/mac2O4eMVG3v7PbSy2Vmf8JBRdjg7wSFcr950KvjnhhiqQxFoXdUJH55d3UBK2yomiZcLKNtB7ykrXwhoaw5bFC89FOFNDFp3PcLNtP8qTSdYTPknmQqKTaciE81csqrjVaBkCQUrw+/2cOHGClVpf8pdeqpq8mprYY0+cQH7rLfJdLtUs/vd/Q0+PGn30ekMmccHFF8PHP37eNJZk0xMhBxGrnUyL4Z011GFD2VQMTDB2sJ49DjXa5+5r44noAxo6ce3aQEl4xNBho3Fc+xxjY9B4+8wDL8M7a+beGJosRSxavp4T777E0hWfTnxAplK2gd5T4RuKaQqfVRxBvIkoavnz++3RB2nUE1luWrkINbigOta1hC3jlz2cfv+3YMpn/pJPGC1FIDCeRYvwf/zjEBZpDPHhh6HIovKrX6mzp595RjWNZ85ERBfNVivSypVQUQFlGT7OJBcQia2Txt3XxiMV+1E2HaXLaqPeWcNYfyX1u6IKugZofNpK77Yq2ndVMbyzhtJAVHFv/yB7HDvorYbhnfHOMsHYwUoqZtitPLyzhrqDnaox9Pv9mjN2/H4/gO4MomCZ4L9aKIqC3+9nUcUtHP7ve1mw+AqKFqSwY1wgmCOOv/PflFTdE/GZn+v7SA+hRWiZrpbg+tp+vz/mc31BWsJWhTn98Y9zcSCtCQAffaSm2HnnHThyBGl0FP7939WJMB98oOZkDDOO/vJypLIy5IqKnHyP0k2LZLejfPGL6lrJBmvRO48sywnXj59tSjbtoBcY3rmekW4bFVtaoN8eMfGzo0HNYLK5e39oW+02O8rt2mMMIznKGFbqQe06buiOKSE9zPlIZMSeCcYOwuaN69QE1z6fL2HyR6/Xq7sf4Ny5c7r7ZVkOlblkZRPusR9QUXVHwnoFgnTCPfYLipbUIhVYIz7zRtxHWggtQst0tQCsXbsWSZLilp8VLXl5sGqV+opmclJN7B1M6P3qq0j//u/kHzmC9N57oWTeocTeK1agXHMNSmAiTDa+R+mkRT5+nPzxcc5deSXM1edFQ0sy7SLLckI9s47DRt3DrQw5q6jdFNW7t2kHyqbY8uHmTh1jqHY/R48tBMDlZKTSqk5qrW5BcYb11iUcY1hM/cZ6mlvXqwmu9ZI/KorC1NQUhYWFmq5clmW8Xi+FCdIZWCyW0BqcRWXrkM++jfvtQUpW1useJxCkCyePvYr33CTlUT9opsJndsZhtu6jeAgtQktWaCkqgsWL4RPnh2uEtJhMmI4cUdPtvPMOuN3w/PNgt6PU1eH9gz8gP8ESbRnbLumi5fXXYd26mLLp2i4WyyyPnHMN0Fjdwd640TiAUboauoFW4k0sCbHddt68Bc1dnFnJw7NwCao5HZ37MYbhLFn9hxx95e+ZePdlii+71kgpAkFCzpw8zMRRBys+2Wm0FIEgt8nPh9Wr1Vc4ioLS34/5e9+D3l544AG48kpjNGY7YuLJNJigZ0sL9NvobLADVbQ7bbDFyV1hZk+dURwcW5tgVvKsaa1CP6X4HFC25l7OnH6P950Oo6UIBJqc/XAc129/Rtmae7EUiJxtguxDURTOnDmTcExXWiNJKDffjHf3bvjsZ+GLX1QNjCD1iIknkZRuoNdpR4kbLSymaVd4KhqAKu7aOMgTIeszyhOtldwXSjNTRbvTjhLnFZOKRgN3XxuStUZ9xRlvGMkoXVYbw2C8MQQor/lrPvrQzYnxF42WIhDEcHrit7x7aB9la++lcOHlRssRCGYFj8eD3W5POKYrY/jjP4ZvfhO2bYPTp41Wk114vcIYpoCSTfdT8XgbPa5gRDFyFbIIYxd62bS7kUutrD3oxA3gGmDrvnpcQUPp6GTzwy1I1hq64sbhqqjf3k3dztH0MIaSKY/l136dqalzuH77HIh1JARpwvtHD3DiXTsFK+6m6OI4A+QFAkH6csstcNNN8J3vGK0kq5AcDlizBgoKjJaS4RTTdHclzdXraa60RUUUVTr7w6OF+9nToG6v3RZvtZMyKnAyFu9UTid7t9tQnDZoaKPHFVukdpudIVrSwxgGufRjrVgWXMnbv9rNmZPvGC1HkMN4z53i3UP/zpTHy+V1f4upYKnRkgQCwUz4P/8Hvv99NWeiIDWMjMRNdC5IEtcAjcEI4As1qum73h6KCoZH9DoawqOF62nuj6yj7uHwvIXFVFQeZMwFlG7gsY2DlIa6kmFoWxVqF7X2Enq12+zGTj6Jx+KKW5hf/DscO/gkpyd+S/Fl68grWGi0LEEOMfHuy3zgHmXJlbdzcdlnjJYjEMwJZrOZsrKy2Z+9OdcsXQr/63/BL34BN99stJqsQHI4oKnJaBkZSBXtTnXGca9zQ+Su6PQyaKSwCVK6IbYO1EhisDta93gd0ipiGKRo0VVcXvs3FCxewzuv/Qj32z/n3JnjRssSZDGyd5KJd1/mt/Z/RjYtYOX13xGmUJBTWCwWVq1aRV5eFi5VWl0Nr75qtIrsQYwvzGos4+PjagZzjXxDoOYc0soTBOpsNkVRNLOcB5mamuKtt97S3B/Kph7SshKp/F5Of2jn9KHnMZvhkktXcdGiyymYd6nuuQSCRPg8H3Hm5GFOnnibcx8dQ1pYjamsldPmizh9+N2IstP/7MZi3H0ktAgtua1lXkEB8157jRNh5xbtMjMtloMHWXLJJbhOnoSTJw3VMp12OXXqQ+AS3fMJVCzl5eVzljhzfHyc8vJyzf3aySqvAP6QqdNHOOl8kdOHh/CePUb+vEspKFqEJW8eZkshkkn7gyjIbRTFj18+h88ziWfqQ86deQ9T3jyKFv0OFy/fxCWla3SPn/lnN3j+dLiPhBahJUe1uN3wi19w8RVXGK8lDpmkxfvzn2P59Ke5IqwtjdIynXZZuFCkGUuWjBpMUjC/nIuXL6Hwyi+qyzZ99C6eMy58597H5/kIRfaqBsDvx2zWv7TTp0+xYIH22EVZ9mEymZAkrV80Cj6fjMViBuJ/+I3Ucsn//handrTiLy02XEtMCQO0SJIFU8FSChdewoJ5yyiYX47JnB96QAkEuY7P5+PQoUOsXr2a/Px8o+WkHoPXys0WTCMjKPX1Gk93wazhsCE9bg1bVWWUri1O7rrbydbxW5LMbThBz5b1jN0dnVMxkowyhtEUzL+MgvmXRWxL9pfI1Pg4S9LkF9qsaCn8J4ov/7y6+LzRWqJIJy0CgUBFlmVOnDjBypUrjZaSehQFxDMgJUgjIyj3zd66G9nM8M4a6h7WL7O5e38ckzdBz+PdbN64Pyx5dhV3bdzNE9xP474fM7wpMgdi/POraXGUMFPo7mujtLWSIef54zPaGAp0kCTxC1kgEAhAGMNUcfiw2o6BgINgutSzx6GdKgaHjcbxeNt/rKap6V+P1Bq7e49jRwJTqEYKm+nEtasqYk/Jph0o16mpb4LrPAtjmK2YTMIYCgQCAQhjmCocDpS1a41WkWOo0UK221C2RZo6XAM0VjvD8hjGI7DmcrzjgwRT3zhsSFabMIZZi4gYCgSCaVBQUEBdXV325TEEYQxThcOBf82a9Mxzl6UM7wxE+uKYOvdLg+zdfie9cY8MRAn7AVoDya0TUN2C4kzTPIaCFCCMoUAgmCZ5eXnZOR5XGMPUYLfjFxHD+ARXM9kyoK5VnALcfW3UPdzKUGjCSTgTDO4bpPP6OFHEwCopvRv3ozhtdE7zvBZFUfD5fMiyHLeAEjAXHo9H84ERzEnk8Xh0TybLsm4ZoSU+kiQhyzJ+v1/zPCaTCa/XG9JiXr0av8mEEphxqygKkiQlnIGbSe0itAgtQovQkowWk9eLSVHwhW0T7TJNLRMT5Lnd+K++2ngtYfUkq8WvUSZtcdgo3VePyxnPFKKOO6QTV9hEEnVySz17HHZ6Q93LR6d9akswOaTWGyhJEn6/P2EiykRJJsPLJapDaInEYrEkPE8M//RP0w4HB2+iTGkXoUVoEVpSpwVgcnKSoqKiiPJZ0y5xtmXae2SkFmlkBGXt2rTQEl1HUlqSONcFobFE3YypbkHZpbHPNUBjw0H2OFoiTGPtNjvKtgs/tQXUNTL1Un74fD4sFotm4wejWYmWUjKbzbplghnKhZZItCKFqUaSpIxqF6FFaBFaUqfF5/Pxq1/9imuvvZaioiJDtaS8XUwmMJsxhW3LxPfIUC2//jWsWxcqk2ntMu3gSrrisCE1dNPZb9ee3XxBTIjJJwKBQCDIcsQYwwvHboe2NqNVZDiDNFfX0KxTYnP3LXG3q/kGB4FWhpz2hDkLp03AcIKYfJJhDNMVFjqXvjU8/Sre7aExvI7Aq+vF1KsVCASCtEAYwwtjakqNGNbUGK0ko6ndZkdx6r9ikls7bEjWmsB4QzuKM3Ei6+kwvLMGyVqD1ABDAQ0iYpgxDNMl1THS40K5oyT0d+MqF713xB2aGp93x9hLJ0NKe+p/cQgEgozFbDZTVlaWnelqBBeGwwHV1WCxgM9ntJrcoroFxdlyARVU0e7UTlUTb1yiiBhmCO6nHqGDTu4LmcBa2oc72dv0BNOJG7rHRuCLFVTMhkiBQJCxWCwWVq1alXDcV0YiIoYXRtAYCnICYQwzhLHf7oVv1kdG+T5ZTycdDE6jG3jst3vZfGt9/OnvAoFAkI0IY3hhCGOYUwhjmBG4GXsVNq+KH+cbGUs2neYwg1+HvU2lYnyhQCDIHYQxvDDsdmEMcwhLMkkmAaamphKWmZyc1N3v8/kSlhFaYikoSHiK5Hh3jBGAbw6hfC0Qe3yxC6lWgmGFv7rWn1HtIrQILUJL6rT4fD4OHz7MihUr4nYnZ3K7mKemMMky3rBtmfgeGaHF9OqrWC67DE9hIQS2Z2LT94s0AAAgAElEQVS7+NJ+bGRwCbt69jh2zFIqmuSwBHPXaeUB8vv9eL1e8vLyNPMAybKMLMvk5+frnsxsNlOg43I8Ho/QMptc1kSv0hS57ZPtDH2zg7pv93DXD5syql2EFqFFaEmdFkmSeP/991m5cmVE+WxoF8liAYsFU9i5M/E9MkKL9OqrsG5daFumtotWGSNw97XxRPkO2qvP/711rJLGu+0ou0bp6ZuATcXAKF3WFjo0a2plKHyWsmuAxuoO9iY4/+bu/bGzn8OwAJhMJs03UJLUZdSCD454KIqCLMtJZTpPVEZoiWW281tXrNoMXx9jDLgsg9pFaBFahJbUaQkm0o/WlRXtIklgMiFFXVemvUeGaBkZgZtuimi7bGqXdKCkvBKogcdrkAIRQ5Uq2p122uMc4+5rYyu3xGYX2W5D2aY9C1k9Th8xxjAjKKHiGtj727G4e9dWiKkkAoFAoIkYYzhzxMSTlDM2BhXWsA1WK4xB0y47ijOZbuRRnmiFxuu0o34XgjCGGYIa1RuMTE3z4iAddFL/ySQrebELSWqk593IzXFnPAsEgpwiPz+furo6CgsLjZaSeoQxnBlvvw35+VBebrSSLGKCsYOVVFzAGEJ3325Guu+f0TjEsbFB1pbrG0phDDOEkjvuo5MO6kKrnQzTVdvB5p67kjd0n7yLPV/cS/Nf9BCcx+x+qpG6r29mz58IWygQ5DKSJJGXl5fWXW4zRhjDmSFmIyePa4BGaw3SlgH084QcZQxrZC7h0nU0HrQnl5PYYaN0Xz2PxRsjWLqBXp1uZNWU1odFK0fpsgZWPgl7CWOYMdTSrgzR+fW6QJqZOjq+ORSx6on7qUak23rCPpTqEnrn09GU0PRDF3topjSQqqa0CfaM99J02dxejUAgEMwZwhjODNGNnHLcfbsZ2bguKpdwMRWV3Qw6EhzsGqAxsJ7xzDjKWH94tFIdwxi9LJ8whhlFLe2KghJ8fS0yyldyRy/KD5vCPnBq+faIruYSmn4YVociTKFAIFAnBJw5cyY0CSWrEMZwZghjmDylG+h12lF2bdBZQGKCwX3xxwbWXt9Kxwuj2vW7BmisdnKf045yt5NSq21aq54BDO9sYaQ7zoSVKCygTunW6j4IPiT0ZhAFyyR6oCiKkrCM0GIsmdYuQovQIrSkRovX68Vut1NTU0NRUZGhWlLdLlLg/0rYtkx8j+ZUy3vvYZqYwH/VVTGpMTKxXRRF0a1nLnD3PURz5Z0o8cYGVt/CnscfoscVO/nE3ddGaWvl+dQ01S0o/TYka1vSOQ+Hd9ZQ93ArQ87EE1YsiqLg8/kSJn/0er0JKzt37pzuflmWE5YRWmKZkxyHqDdRJrWL0CK0CC2p0xJMFOzxeOJ+oWdyu5g9Hkx+P96wbZn4Hs2lFvOLL2L6xCci2swoLXokq0WW5YR6ZhXXAFtbKxlyao0BLKbp7kqkBwaoD0UdA3kMt9tQoo8LmsPqNtAxh6ohBBo6cTn1opnnsQQHHGslf1QUhampKQoLCzVduSzLeL3ehLPZLBZLxC/RaKampoSWOPj9fhRF0R0ULstypFaHA1auhEWLQnoVRdHNCWUymTKqXYJaDh06pKnF4/GQn5+v+4vS6/UmNN9ut1s3A/+5c+d0E7oKLUJLumvx+Xy88847LFy4MKLOeFo+9rGPRdSR9s/dvDzIy8MSdu5MfNbNqZZXX4XrrotoM8O0aDAdLRaLRfdcs8sEPQ8M0ujYod+NW93CUGUNTzg20I4NqQGGnHY0Y51BcxhhJgGHDSkwFnFz936UJKKE4RjZUoIk8Xg8CT/8Ho8n8kZ85BG45x74pDrAMPglko2pKF599VW+++0dcfclM7RIARKNPvL7/bqmOpk6hBahJd21yLKMyWyOqTNcy5at98QYQ0EW4nBAe7zUyoLpU0zTrvjfUdHUbrMHzGMLijOJA6pbUHbF2eZsmZ7EMIQxzFYkSX2a5whVV6/in/62zWgZAkFW89Vv7DRawswQk0+mx9mz8D//Iyae5ChiVnK2kmPGUCAQCDQRxnB6OBxQUwMJlqMTZCfiXc9WhDEUCAQCFWEMp4dIbJ3TCGOYrQhjKBAIBCrCGE4Pkb8wpxHGMFsRxlAgEAhUhDGcHsIY5jTCGGYrwhgKBAKBijCGSZP/2mtwxRWwcKHRUgQGYRkfHw+svTuNHHlRJJMjD9ScQ2+99Zbm/mAGc6HlwrUs/egjTh89ymSg3mxul2PHjuFX0mPlGIEgm/ErCu+9917MfZnuz5f5bjf5J0/yfti5M/FZNxdaig4c4IOVKyPayigtqWyXU6c+BC7RPZ9AxVJeXj5nySrHx8cpLy/X3D+XiTOzXsvChSwoLVV/+RmtJYpUa1m2bBlvSCL4LRDMNiZJYunSpVwReK4ESfvny9KlMDHBojDdmfismwstH/3mN8y/7baItjJKSyrbZeHCi/F5Zf7/PX2658xELjl2gpPLLk1ZfSKPYbYiupIFAoFARXQlJ03+6Cg89JDRMlKOJS+fN49NxWxXFD9+vx+zWd8OffTRaebPX6C5X5Z9mEwmJM0ghRIWSY3/WZyJlvX/9V8UnzxJz+c/nzItwhhmK8IYCgQCgYowhsnxm9+gzJsHVqvRSlLOjh3xVx7JxKju+Pg45WVl8OUvq5OEHn2UT6RQi+h/y1aEMRRkNBP0bLExbLQMQXYgjGFyOBx4rrnGaBWCBJjefx/uuAOWLIFHH019/SmvUZAeCGOYJozSZW2jx2XAqV0DNG4ZwG3AqS8Yx4/p3XhLYM3QCXq21CBZo147R5OryzVA485R3H1tdDlmUXOKGN5p0OclmxHGMDkcDjxVVUarEOhx6BDFX/4y1NXBgw/OyimEMcxWhDGcPg5brPnQeiVlSibo2dLCSPf9NJXqn7exb0Jzt7uvTVeL3rGzQ8CoJWvMANUgJxcBdPe1ITXAfZuKcfe10dgHTbvsKP2tbO7ej+K0ozg62ZzsqUs3cB+7GbzuTng8YJQDZjEuDlvMtSV6D0KvMCOubfAm6NkyPfM3vLMm1tRO8xpyGmEMk8NuFxHDdGZ4GO64g7Nf+ALcc8+snUYYw2xFGMPpU92img7dl41O6tlze6Jf1aN0WdfTXGmjd1Nx1L7pdZOWbNqho6WV+2Lqn22Kadplx1WxO3lj6nIysr2GWnRMVsDIlGy6k04OMuYa5Yl99TwWuD73+EHWlutfq1bddQfrqS+ton3XBkoAnE72alVS3cIQuyOMW9z3wNHJZloZCt8WrJ8Jxg7qtN8D9fQ+HW7czkdF6x4epLk60mjWbrNBQ5Q5nOY15DTiWZgYlwtOn8a3cqXRSgTx+MlPoLkZOjs5sznpn8UzwqIoCj6fD1mW4xZQAjeUx+PRHDAZzEnk8Xh0TybLsm4ZoSV1WiyKgt/jwR+oN5vbxefz6daTSoZ3tjDSvZ92vQiga4DG6g7o3o8yi6bN3bebju13ovuV199BaX8HbLehbEttF1HJph0om9RolrQzQf1OJ1SsizhOmyranXfSZd1NRX89W3eO0htdt9PJXgID5APtvRcCEcXYQebuvjZKt4ArZNxgc0WZpoLa2+t55OlRmjSvaZSuaif3OVsC3d3xqKRC63NSuoH7aKPHtSMQTVbNdtOuUbq2OLkrTKdKFe1OmzoswbEjFIG+sGuYPgrg8/li7st0f76YfD4kvx85bFsmPutmU4vppZcwrVmTFlqCCC0qpt27MT/2GL7vfQ/l2muRnc5Z1WIKJofUegUTUKpTn/XLJnoBF3S80JK8FmZYbya2y1zh7muj7mBnKIIVyyhd1hqk6g72NuiVSwWjPNFayVCiL/2GTlxOO8r19umNy5sGtdvssaYwanxjMtG+cNx9u6F/B03VVtYedNKzs4bS1kE6GgKRtIZueLhFvZ7SDfQGInax0VmVkk07GKrs4AnHeT26lK6j8aBdM6o7vLMF+vVM4VHG+vVPUXt9Jb0vRUVbXU5GKq1RpjDYLV1Fu+N8pPFCr2GmpNuzLqmXelB6aEmndgl/jYygrF2bHlrSqV0M1mL+7ncxP/008u7dcN11c6LF8md/ehcmSUIyaXzBKgqy34/ZZNIco6H4FfyKgtms3zM9OTlJUVGR5n5Z9oe0XHTRfB7r/qcoKaoLtlgsocaJrUPG7/eTl5enq8VsNuuWCeb40ZvundZazGZMZjME6s3mdrFYUpt1yd3XRunYnZFmx2GjtLWSIWd0JEfdJzV0A9DZb0exDtD4QEolRaGOXaTfrmNMoqhuQXG2BLpaB+nst9MeWArV3ddGaetgggrq2RMWqUqo74EO1t5tD7XV2BhUXJec1OGdNdQ9DFBDBwCtDO2yM0QbY7cHNDhsSC/UTCsKWlFRn3RZKKaisptBRwu1MUvGjjJ4sJO7tk2junhYrfD4Adybzn+m3C8Nsvb6+Gk1ANUEJ31evWuYGRLx78u0f76YTGA2Yw7blonPulnV8sorcMst6aElQM5r6eiAt9+Gp5/GsnjxnGmxfPGmGs3KjeLMmUn+67Vxo2VkNpIYYzhTSjbtwNXXhmStZMjZQkVfW8AURkeIJujZsp7mfnWcWWhfwnFdajSpYpd2CXdfG1u5P24EbHjnepr7ofPu6VyVitqNG5j88IBqshJ37U6P4Z3q2EpFy4y4Bmh82hrbPRxAjUCqUbKQEYSYyJdeN2o8xsYGIZCGrKS8EsIeMe6+Np4o3xEyywC117fyyPgEVEe9B4GoXrvu2cqoaLCH/R2ni7h0HY38mDEIbFOjwPXO5K7ngq4h1xCTT/Q5fRp+8xs1J964+O41HL9fzVFoMkFPz5yf3vIHn71+zk+aiKee3W+0hMxHGMMLomTTDpRydZay2h0bJ1IYGhc2zcpdTkYarNyluX+Ara2V3OeMZwpreKRiP4oTerbU0Lhxv2b3qTbFNO3SiUrNmIBRrtQfbzj89CCNt+ucP2Ac7wPOG6p1jB3UGbOXCIeNuoOduILRtuoa1oaiddqGbO/YUSBO+x504qYqzmciSDH1Gw/yhANqq9Wu8ZGN98cxkwcZc0FtaaBMd7DMKF3WlkDEFKCePbdHHXqh15BLCGOoj8OhmkKB4UgnTsC990Jl5aylo0mEmJWcrQhjeOFUt6gzT/sHGUzh7M7hpztYe3c8o0lgIsUgjY7o6KQ6fvGRiqARLKZp134a961Pj7QkrgEardqmsKICxkKmZTB2bF04TieEooFlVOBkbKa6gimIGmAoYkJHFfWBMYeqIbsltlveao2fEqd0HY0k/kyUXFfPyOMDuAOmLXb2eDEVlYH/ugbYGpqBPUHPlt1UOM7Pdh7aHpipHJGX8gKuIdcQxlAfYQzTgzffJO9LX5rVHIXJIIxhtiKMYWoo3UBvfyXN1alZhcPd10YdtojuvvB9UvUgjVFj+dRxgapRiIwOquZwz8EWw8zh8M7AZJDqQRodcSahhDEyrprB2m0BQ6uRA3D4hYM0Xhe8zmKadrVQy1HGsFKRQE9MuprHrerkmzizh4MpYErDUuJEULpBo7s7kG6mOk5uwajjH9s4SKlVe6JK7bbAe126gd6YmchBJhg7WM8ehx3lbielYe/1zK8hxxDGUB9hDI1neBhTczNyc/Os5ihMBrFWcrYijGHqqG7B1d1G6ZaBiHQn08Zhi53UEmBv63r2brehOMP3qV2zvRv3o8TpVlZRzSFb1tPlsMc1nKknrJszRnN8Sq6rh6eDXZr6XfAl23ZQS9iYwrB0NB39HWElu2kksit9euMlq2h32hOMFdSgdAO9Tqs6Cz24raEz5vMxs/GbqvFsrK6hObBlc/d+ekuB0paosZsXcA25hDCG2igK2O3w+ONGK8ldfvIT+MpXUL77XeQbb0R/GszsI4xhtiKMYUqZ1hd86QZ645me6ugv9bDtzpY4OwIGKuEJ1XJJ67hgZmBGpjWbVqU2YBBhA73ODdM7eE6YRVNWmq7XnKEIY6iNwwFXXw3z5xutJDf53vfgu9+Fp55CqakBr9doRelrDGXZx+TkZNx9U1NTCY/XOjaIz6ddf5BECS/TWUueLOOfmkKOqjcb2yUZPQKB4MJRUJPvat2X6fp8sXg84PPhC9uWic+62dBiefFFqKoKtY1ol7nTYvnHf8T83HN4/uVfUFatgsDxRrdL2hpDk8lMQUFBxDa/34/X6yUvLy+UoDEaWZaRZZn8/Hzd+s3m2PrD8Xg8unmA0l2LZLFgtliwBOrN5nZJdR5DgUAQHwmJvLy8mPsy3Z8vUiCnqzns3Jn4rJsNLdKvf63mLwycX7TL3GiRvvY1ePttlKeeIj+QozBd2iVtv1HDs3OHb/N6vZjNZs0EkYqiIMuy5odAr/5oTCaTZpm01xJISC4FjsnFdhEIBKkn3n2ZEc8Xkyn0PDRcS5y6DNMyMgLf+laobUS7zLIWSUIK5ih86inCVaVLu4hv1GxFjDEUCAQCFTHGMD4HD8Ill0DJjKfUCaaBdOIEUlMTLFkCjz5qtBxNhDHMVoQxFAgEAhVhDOMj0tTMHYcOkf+lL6HU1hqaozAZhDHMVoQxFAgEAoEewhjODcPDSE1N+O680/AchckgjGG2IoyhYBYY3tlGTwpXgREI5gQRMYyPMIazz09+As3NKN/6FvIddxitJimEMcxWhDGcRUbpsqZmJRRNHLao5c+mo2OCni3TMHCuARrDVgtp7Itcrs7d1xbYNsrgwXrq9dYrdtgCZSfo2aJqc/e1BVYISdxu58tmMK4BGhO+d8JkzynCGMZy9ChMTcGqVUYryV6+9z144AF46in43OeMVpM0aTsrWVEU/H5/xLbg33qzdoJloo9Npv54dWnNZEp3LZK6ASVKQza2S6IyKcdhp2N7Dfq2W121pLlfa389e6KWvos49vFuNm/cr7/KisvJyPaa1CRY3h5/jWOYYHAfND5QDI4f09HfHbX6CERcS3UNax8/gHvTutiqHHZGum9JUULoUbq2OLkrmZVoHDakF2p0l+sL4u5ro7R1MPHpNdsLKLWytt/O2C6mvUrO8M4aBq+PWsHGNUDj09b4S9tN49pShd6zOV2fL5LfD2Zz6HlopJZ4GKFFOnAA1q6NaBOjtGiRyVqk73wHBgZQ9uyB1avxy7JhWrTOo6UlbY2h3y9z7ty5uPu8SWQG1zo2iCxr1x/E5/Ph8/l0y6Srljy/H7/XixxVby62S2oZpauhGwDp4di9nf3BL3WdZd8CX+bxTSHg+LFqKPvXI7VG72xlKLjur9MJFXEMWCpxHaCXeh4rheGnu+nst1P/Qhtjt8ea2nBT1RE0xP3dgf/UqEvo0Y3UGjSSYUvrRVATuS3OUnPTwT1+kM7rW9Az68H3Le4KNw6buuayhgZNM2ntDv13c3dw6b4oDQ8Hlr0LXGPtNhuD1hq6+sPModPJXqzxL666haEX2uhxaf3ISC0KCl6vV/O+TNfniyVQ3he2LRufddPRkvfyy/irqmK+I3K9XVKhJe/BB5Hefhvvv/wLyuLFEHZcJrTLtIyhu6+NrdwfsTYpMCu/Ws1mC0VFRRHbFEVhamqKwsJCTScsyzJer5fCwkLd+i2W2PrDmZqaIi8vTzNBZNprycsDiwUC9WZzuyRKBppK3H276YhrVCbo2fIQWt/fEeUe76bz7jhL2IXtjxuRcg3Q+ABUBLWMH2RtuY7h6VdNR2f/zNdQHn66g7V32ylhlCcOdnLXNhh7IX7Z86ZqlC6rnfqggUXn2RFudAPlnijfEaZXjQxeCGNjUHEdJFqjOS6uARqDpjAQuXusYneERi0z2Th+S5zrDWrQinhW0e600WVtoycsory5okxTYu3t9Tzy9ChNcxA1lJDIz8+PuS/T/vlisUB+Pnlh587EZ11Ktfz613DbbaHvCEO1aJBxWsxmzPfco+Yo/OEPCVeVSe1iUh+8icfDgPqAbbwu+kEnSEvEGMPU47BR2gp7HogXOTrKWH8lFYmiNo4f01xp0zRqwzvX00wnrjhf8u6XBtlbaQ2de2wMKqwQNBuKM/jaz56GevY41L9nagpxDfBIICrq7tsNdweve5Dm6vNjEkNjIUNjFVvooJu6sHGLpa2D7G1dH1l+Tphg7GAS74sGw08P0hh8v0s3cB+7GbzuTng8eA0T9GwJa4vgq6H7/PVaa5Cix1a6nIyEvZeh8+1so8dVRbujnt6nRwH1B4AupetoPGif3TGvmY4YYxjJhx+qD5BPfMJoJVmDdOIEpubmtM9RmAzTiBhe2ANWMMcIY5haHDakhm46+/fDAzVI/VFjBJMZd+gaoLEBhpzxIzvuvjbqHm5lyBnPeKpj/fY8MHdjyYaf7oCGemCUJ/bVc1co0qYxPrJ0A73ODZF17Izf7Tx3HGUMK/UzOdQ1wCMH1W70ILXbdqjRzV3B90E7CqkdJVVN/trrd2ifu3QDvduSFVpMRWU3g44WasUE0/gIYxiJ3Q41NUaryB4OHSKvtRXl859H2pb0jZu2TGNWsvqArQD1SzLq1zEPtxgQDRBoIoxhChmlq+Egexx22quD0bn7VYNorUHaaVP3365n2kbpqu5gr9Zuh43SffW4wrpVw3H3PUQzCWYEpxKHjTpsPLYRoIr2pMb4xUbP6h6Oii7GzHqOjSx2NISXjzcGceZMa9az0xkRodUlama3ei3AvofizDwe5YnWSuqTNHEl5ZURf8e7htrrWxkZj5xNLghDGMNIRJqa1DE8DHfcgdzcjPKVrxitJiUkbwzDuz6qW8K6rewo/a3qmCinHeUCBokLUogwhimkinZndNQraBD3s+dgNyPd9+tExUbpsu6mwmFHcVh5xBonTUl1i/a94xpgq2YXdvg5gqZEbzZ0klS36IwZ1uhKjunStjO0/XyXdvAVGUFrZShsn6u7ns7+8PI2Oi/wUs4TiHwm+31otbI5mXKuARqrndznjLxOxXk/jQzS+1J0+p/djHTfEvgBEP6+1VAXZ0IT1TWs3Xcg0MbapnLv2NEkLywHEcYwEmEMU0MgRyGdnchNTUarSRkij2G2IozhHDBKl3U9vRv3x+0uBALR9d1UBLteSzfQ66int7omqciVu68NqbqDtf2x3bEVFTAWmJcxvLMF+sMNWcC8zUoEP8rsBQzt8M7YsXbxIoaSNXjtVbRrREjPk2y0UosyKnAyFvyzf5DBZHMHllpZ+/DuhLkG3S8NQsjohaMa5YjPhmuArfvqeSw0Qznwg0H3fauivrKDJxzRpjKMZE1sriKMIZIkqZMR/H41d+G6Wc5okO08+WRG5ihMBmEMsxVhDGePULeh+qUe3xQGulUft+KKjjaWbqDX0clIg7Y5dPe1BbojKxnSmEBSUl6p0X04wdhB1by5Ng5SunN0Bhc5fWq3hUf51PMHI4bRkcAZT4iZEQcZcwEEJnXEMarRSb1Vqmjvr6Q5gYkvua4eWn+c3OSP0g30ahrd8++bcrcz4n2r3WaDhhpKQ6YyTr1zmMsw4xDGEJPJRF5enjpjtqsLCgqMlpS57NwJPT2qKbzuOqPVpJwZ5zGMyd213ZYKPYJUIYzhLBBMC6N2f/ZqFXMN0Fg9SKPDjqLVvVy6gV4HNFbbGA6PmgUmudDQicu5Qz9SZrXCC0eB4lD+u+BX3+bu/fSWApt2JEjEzTQnOmgRnjKnlSGnOkkjaJZKNu2gfmcNUoP690xT6AzvDOtubejkroRHFFO/EZ5wAsGIbdQEGV2qW1CcNWp3b3BbdCqh0g30OtQfC3HHkGomwy6m6YF6GqsDuQwJe99KW1Ai2qeKdqc9RcnBsxtJkmKT9l5xBVx8sTGCBNlFRwe8/bZqChcvNlrNrCApTpuS3AoCYXm3AvnUHgse4xqgMTCw/kJypgV56tn97Bt+nW888GDMPlmWNXPzgJqfR1EUzcziQYI5fLQIZg3XyjeU7loWPfYY8tKlnPriFw3XEk2qtfzHf/wH/+P4T3b93V/q1icQCC6Mr3z92yy/ag233nprxPZ0eb4sW7aM+fPnax47OTmJ0+mcEy1gXLvk5eWxfPnyiP3D35J4ZJWL3jvUb3qn08nk5OSsa4lHunxepqXl7FnKH3oIRZI48cADxmqZ5XaZRsSwjArsjBFnmSenk73bbSjbiEnMOlMWLFjAFVdcEbEtlQkix8fHKS8v19w/l4kzZ0XL7/wOLF7MkkAb+v1+vF4vBQm6DzKxXZYtW8YbkhgVIRDMNiZJYunSpTHP5nR67upRVFQU0p6Jz7qZanE/1Ujd12Fzz/ltVmv8bPy51C5JazlxgrPbtjFvzRp48EHixZ6zqV1MyaeDKKaiMjBWp3QDj20cpDSUrgaGtlURf/amYK6IeIPvugvCftWbTKaEv0IEAoEgq3i3h0apK4eTf7vpuU2itEkzUZYgEYcOwR134KmuhgdjezGzEYvi1FqaK5ZQclc0loESCAQCgSAtGKarvJm9dHKf0VIMwU3PbaU0/6iTIaWeQamOEaMlZRpDQ/DlL8Nf/AWnP/MZLjFazxwhQkgCgUAgyC5e7EKS6lKaHD3zKKHphwqK0p4gJZQgLj/5Cdx5J3R2qv/mEMIYZjM5340iEAhyjhe7kGo72NzjwtUjsjsKZkAW5yhMBmEMs5ZgN4pAIBDkEJ9sR1GU0OxbgWBaZHmOwmSYcR5DQRoT+MUsEAgEAoEgSXIgR2EypK0x9PtlPB5PxDYlkLDZ4/FoTvcO5gGKPjYaWY6tP7oen8+HLMua+9NNCxDRjfIYWymNWr4xG9vF5/Pp1iMQCFKDAvh8vrjP5nR47losFt3sC36/P/S8yMRnXbJaJElSVznRwefz4ff7Z12LVpl0+LyEtMgy/i1bUMxm5H/9VwIHGaMlDdolbY2hRGxyRkmS8Pv9CdOuJErsGF4uUR1aZdJRCxDoRlHXR3A/Nb3zpFLLXLaLQCCYO7Tuu3R67iaqfy61GNEuyT4X9epLlZZE9cxUY8q0nDhB/j33wOon2gUAACAASURBVFVX4f/GN9BTlCvtkr7GMLiuYxhBF2yxWHQTRPr9/oS/lsxms26ZYFZwvQSR6aYlGbKxXSwWC1PnPPzJX3TG6kFB0r3V1VIkKJP4hk5cx0y0/N5bh/nFFZenhZZ4CC3ZpEXB55MxW8wx5w3XEu++TKfnrh7hkbRMfNalsl0slvhf/znVLocOoWzdim/jRvLuvVd30kUutYtFstYA9exx3MlYdXSy61aGwtdxBXX5u6etoQXb3X1tbOV+7htbz+D1F74cnkAwXQoLC9l0+x/HbFcUBa/XS15enuaNGOxays/P1z3HiRMnuPTSSzX3ezwe3W6smWhZ/vzzWH/7LsWbbkcOy4RvhBYthJbs0RIeRQg/ZzJaBIKMI5CjUPnqV5Fvuw19K5ZbRCa4jlikfZQu6/l97r42SlsHQ39LDwMNnQxtVP+u3WZjcMsA7oRrLgsEqeWWW26Juz2TliCK0bJvn/rg+sEP+HzU8mNps0yU0CK0CDKEWtrDx6LnOj/5CXzlK/Dooyjr14PXa7SitCIQMYTN3fvp3VSsWTC00klMxDBoFqto31U1y3IFghxgZER9aD35JESZQoFAIBBcAE8+Cf/4j+fT0WhM0MhlklwSb4KeLetp7j+/RXo4fP8gUmvgv9ttKNuEQRQIZoLkdMI998BDD0FdndFyBDmEoiicPXuWoqKirFlXveSOXpQ7jFYhSBt27oSBAdUUrl5ttJq0xSRZa5CsNoaB4Z01qH/XIFnDxxsW03R3K539dhRHJ5u321CcNjobOnH1t7K5ez+K087Qdui8XphCgWBGyDKWe++FpibYLFZsEMwtHo8Hu93OuXPnjJYiEKSejg44cECYwiSIiBgOU88exw6aSuMX7mioCZnF4BjDu6xWeOEocJTBh1up3zbbkgWC7MT01a8if+xj8Od/brQUgUCQLRw4AOfOoXzqU8iyrDkbOWvx+5FaW8FsVlc0ESQkMMZQnX2ciM5+O+3W4BhD6NrihFIrax+201NxkJHu+8Mmr1wYsuxjcnIy7r6pqamEx2sdG8Tn064/SKIkk+mmJZp43Si52C6ZoMXyt3+L5PHg7ejAK9pFaDFAS1CP1jkzoV3y8/M1J9GAOpM7GBHNxPdoJlryv/tdfLfdhj+wz5tgokU2tYt04gT527bhu/JKvF/7GujUZfRnN520REUM9YkbMaSK+u0t1LW2MuTUnrwyXUwmMwUFBRHb/H5/KG2C1hgYWZaRZTlhCgezObb+cDwej24eoHTUkgx650mllnRql3TXIv3zP8PoKL49e5AkSbSL0GKYltLSUubNmxeRIy2T2iWYckdRlIj90ssvw9KlSJdfHjp/pr5H09Vi+tWvkL79bWSLxXAtQeakXQ4dQvq//xffhg1IX/0qBWn8HqWblrA8hjuoiN7rsNE4fos6W7m6BcXZEjMrGWAMYHtNZL7DC0SSpNgvUEnC6/ViNpt1l5SRZTmp7OKJyphMJs0y6aglGXKxXdJay7/9G/zrv8IPfoCpsBDZ6xXtIrQYosVsNnPllVemhZYLaZfgl15EGp8f/Qhqa5EqKkLHZeJ7NG0tr74KZWWYlixBCZiOdHiPZr1dgjkKt23D94UvUJjO71EaarEozv30bHlI9wTas5Lr6dwOHQc72VPZQpfDTv0LNtjWklKTKJgBR46ouZkC6U6CazAK0oiXXoKvfhV+8ANYvlykTRAIZgtFgVzMwehwQHWOrToRlqOQjRshia5bQSQmyXre8FVUQHN12Mzkhm7WlhcDxTTtsqM4w2cl21Gc91NxsJKhXRto2rafisdrqDtojY08CuaECOO3b5/6KzmA3++Pu2C6wCDeeUdNS/MP/wDr1hmtRiDIboQxzA2efBIeeECdefy5zxmtJmOJzGMYTGKtR+kGekMzj4tp2tUS9n87TanXKJgJkqQ+DAXpx9SU+ov2T/8UGhqMViMQAOqA9jfffJNVq1YlHOOUceSyMbzvPqNVzA0iR2HKyI4spoJYhDFMX+65R40S/umfGq1EIAghyzLHjx9HzsYhDbloDMfGwGSCFSuMVjL7iByFKSXHEhrlEMIYpiXSN74B+fnqg0wgEMwNuWgMc6Eb2e/H9OUvixyFKSZtjaGiKDFj4oJ/683aCZZJNJ4uXv3x6tKb+ZbOWiR1B0qUhlxvFyO1WHbtQnn9dZSnn4Y4deVquwgt6aElOEY5ejxyNrSL5PeDooSeh0ZqicesfAfY7bBmTfZ+B5w4Qd7WrShXXYXyzW/qPlPT9T1KVy1pawz9fllzaaZkUrMkWtZJlrXrD+Lz+fD5fLpl0lWL2edD8nrxRdWb6+1ilBZzXx+WZ57h3Pe/j5JATy61i9CSPloA1qxZgyRJcctncrvk+Xz4fT7ksG2Z+B5NR0vBgQN4v/hF/Fn4HSC9+Sb527bh/9zn8G3dCgnqSdf3KF21pK0xNJstFBUVRWxTFIWpqSkKCws1nbAsy7E5rOJgscTWH87U1BR5eXmaCSKnq0X2nEZRNEwDZ8kzaU+pPzd1DkueRVfLualzFBQWhLSYzD7AixSoV5ZlfF4fBYUJElzPgpZock2LNPQipq9/jckn/om80ouRpPj1TFeLJFkw5y+I2Z/qz64ec30fCS2zqyVeuVRrKSzMR/Z+BEpsxGO27mkTPiSzD1PYPZwtz5e4Wk5MIB0/hvl3V2Imu74DpBdfxvTVNvxfacWz+RYsyhk1H58pH3PeRTFacv2enomWtDWGmYzn7DHOHH+FMxOvMnXqHVB8mPPmIZniN7dflnnXpb2MU2isoN4YmagxNEVnD+O7aj5ex98mX8csaZlRHVmkJf/Ie5j/fA2T5p/CyHMp06L4fcjeSSSTmcIFKygq/l3mL1kDpkt0jxcI5pLJD9/izPFXmPzgDSZPvcvbb1kw5xWBFKc7bZbu6aIrPoC3fsSkwxHali3Pl3ha8sY/IL+xgjPB57+BWmZch4aWgkNOTHeuZvKqt+C1vz9fpd+L7JvCZJlH0cUrmVdcxUVL1gI61yKIizCGKeSU+0VOHhnA7z3N/EUrWbzsKoquuF7TEM4q18z9KQUazPJ7ofh9TH10jDOn3sb5yvNgnscl5eu5pOxTs3tiQVahKAqTk5MUFhYmXFUhGd5/Zx8njzxHXv5FzF+0nKXl6yi4yKDccrn2PLwG+BwsMVrHbJDgvZR9k0yednP2fQcnfvM0+QtWsrjiZi5afPXc6MsChDFMAWcmXuP4mz3kF1zEksuqKVpgNVqSIIeQTBaKFpZRtLCMSy/7JJOnXXzg/gUn3/kJS668g4surUpciSDn8Xg8HDhwgGuvvVa3myoRJ9/9OSd+80MWXnoV5ZWfJ6/w4hSqFAj0MVuKmL+ogvmLKlh6+fWcnvgNE29+n5MFi1lyZTP5F5UaLTHtEcbwAnnv0PeZfP81lq74FPMWXma0HIGAogWlFC0oZfLUUd57cw9nTrzC0sovGS1LkOXI3tO8+/p3MeFlxTW3kVew0GhJAgELilezoHg1p46/wZGXH6T4ikYWLb/JaFlpjUhwPUP8vineG30Yyfs+l1/zh8IUCtKOooVlrLjmNvCd5MjL38TvO2u0JEGWMvXh27gcDzB/wRKsqzcIUyhIOxYuuZqKT/xvzr43zLHXnzBaTlojjOEM8PvOMn7gmyxcZGXp5f/LaDkCgS5LV3yahYsu48jLD6qzQQWCOJjNZqxWKxbL9DqSJj84hOvXf4911Y1cUiKGLQjSF7OlkLKrbgbfh7hGHzVaTtoijOEMeNexg0uWrGZR6RqjpQgESXFJyce5ZGkl747sMFqKIE2xWCysXr2avLy8pI/xnHFx9FffoezKzzHv4uWzqE4gSB3LKj6DiXMicqiBpDjtabdu2lPP7mff8Ot844EHY/bJsqyZmwfUmXWKoiScVRfM4aNFMGt4dI4f5fiPWTjfwtIVYsZnJuF+po3SlkqGTrVQa7QYAzl+ZJgPT0/hX/wHht5H4Rh9TwstM9fif/f/o2TFWhYUX6mrQSBIR468/m9MWa5CWrhO3NNhWJ546sdxd5S9+TZHr1ypK242WbBgAVdccUXEtlQmiBwfH6e8vFxzf7wEkafdL3LyxAcsXbFpGleSLUzQ86X1NH/MhnK/Ad1FRwdovLoDbPvp/ULxtI/d2jLIZtv9OW0KAZYsr2XqjX+jqMBJ8fLPGHIfhWP0PS20zFzLe4f2IBWXC1OYLAdsSI9acT25gZKoXe5n2ijtr4+7T2WUroUtJLPC+uaZPCNzlLIrP8vYr77PspWfYsGiFbplc+GeDmJ57ciHmEymCIdaeO4ca19wsOaZAd5csYI3yi/jrYoK/BonCa6tmWhsyunTH7FgwXzN/T6fL6Rl3rx5unUZwXuHeris8majZRjD0QP0PgudX07WFCb/IKM9sdl0Dw+yl1aGpv3AG6Xr6g72ArSsR2qJ3l/Pnjd20FQ2zWozmGWXf5ojr/+I4uWfMVqKII3w+Xy8+eabrFq1ivz8fN2y504f4aNjL7NyzR/NkTpBMs+q4YdqeGTuBGU8ZkshS1Z8ipNv/5AF1duNlpM2WP727x7SdpbvvcfSn/6UuoEBzP+xDz77WbjpJvUVludqrlyukbz/zj7mL6qgYN6lRksxgAl6/lo1V3tvqNE2exEGr4r2U3ba9aoNRAHX1icwm4GIHwxSt7Bbs1jn83ba14VvCZjTWzvj/BJXI6C9DffnlCkEyC9azMLi1bx/+N8prvi80XIEaYIsyxw/fpyKioqEZSfe2sul5dfOgarMZ/ihGuq6zv9d+mwHM/tBOkjz1TU0Jyi12TZ9jbnMxUs+xslj/8PZDw4xb9FVRstJC/RDfEuXQnMznsZGCs+eRfrZz+Df/g22bTtvEG+6CS66SLeabOCDd/ax/GO3Gi3DENzPPETzs3oPskA38zTrHd7dwd5bO3lsnV6pgCmNa+4CBLuZIwiYQo1opPuZh2imE1eOdrkstq7hndd+JIyhYNp4zh7j3OnDWK8QGRmSofZ+O8r95/92P9NG6Vt3TtMUJvFDWzBjFpd+gpPv7BPGMEDyeQkWL4Y//EP1dfo0PPec+mprw/SZz2D+/d+Hm29Wy2UZZ068SuG8JbmZmys0Pm+/zoPsKGPPwuaGaTzpjg7wSBd0Pq81pkblvCnVKed0spd6GoMLzgSNYnsrm7taaLwiaszNAVtgIor+ubMZS/58CueX8NHxXzF/ySeMliPIIE45/5OLl1QaLSMzOTrA1hbY80YZPV+qofnZ8J2DgWhigLAftdFRR31ac36S3XRZULyaY4d/id93FpMl/YaxzTUzW/lkwQLYvFl9TU6i7N+P6ac/ha4uuO6685HEZctSLNcYPnrvZRYsTty9knUEDNbedhuKXmTtqJMR6mmsTTb6FogCttvo1YkWqjOJB+l83q4/rmawG27tpL4M1DGFgzS+ETjmTiuNV6+nkYA5PDpA4w0H2fPGjpx/cC5YvJKPjr0sjKEAgPz8fOrq6hKPFT/2MpddtWGOVGUT6njntcHn2ZN2mp5U9ySefEJSY7HVZ7YzhZpzhwXFqzn9noOLrSISfuF5DIuKUBoa8H772/Daa3D77TAyAjfcAM3N8K//CkePpkCqcZyZeI2LLrncaBlzywEbUmAWsHJ/FcMP1SAtbKMnzlupdgnXB4xZYtQoYCtDOg851RTCnjeixw1GM8pgF2xuWBd4oFbRfiqsy7tsA71vdKoTTx6yBUxjbk020eKiS1Zw9v3/MVqGIE2QJIm8vDz9FBee0yjyOfIKxPrH0yM4Ga+eCmvi0nHpakFaWKP/Ck60E0ybixZextmJUaNlpAUWRVHw+XzIshy3gKKoaQ49Ho/mAyOYe8fj96uG8IYb4O/+DtPzzyP97GeYvvMdlFWrmFdTg7exEWVF/GnhKdXi8eheuCzLumWCWnyeSRTZgzlv5ovKZxyhqFowUjdBxZ12lHobUnDwc2jMn2rMEnUJhzhgC0QBtSN2oV/PSXT1up/ZTUei2cplG+h93ol0A9SfEpHCIGZLIYriZ+rsh5gskZ/vVN9H6XRPCy0z1zL1wW8onJ+rAzBmSHBoy6318Kw6gWQsZqJcEoiI4axStKCU9468pHmvZOs9HTddTTAJopZQSZLw+/0JEy7GTQZ9440oN96IH5B++Usszz6L5Y47UC67LLRPCctVOJtatMolqsM7dYz8eTk2QaFsA72nwruKiikpA8paUE61EJxsUrowMB7m1k5cyTzkjg7QeEM3m2+tp+OGGtB4OJZ8YQfKF5KrL5n8hMEuaUB7VnMyD90spKBoMb6p9yhYEBsRT+V9lE73tNCiXUe83GbhWryTxygoEtHCpAkYtftO2al4po29dOJ60soTC20MT3ccYFcLUlLjDFu5b2Zqcxpz3jz8vjMJ7xW9fel2T89UiwXUNTL1EiH6fD4sFotuUka/36+/lNKNN3Lqqqu4uLwc6b/+S5240tICxcWhMYlyRcXcaAlcs16ZYFZwr3wGS172z7qeHsU0PWmnviGwmojeuJggB2xIN3SfTynzZRvSDTWMzDgZayA/4a16M4sDs6WfbWVIJ1KozhKcgYQswJJ/EchnYu6FVN9H6XRPCy3xtfh8Pl555RWuvfZaisLSkYVrUXynyMsXz8OkKdtA7yn1v+7QxiraT83gR6iIGM46JnMBZskX04MCmXlPz1TLzCafXCif/rT6evBBeOkl1SRu2UJ+YaGaK3H9erjmGkOkReP3ezCZjWmmdEadJVfPnjcS/+oNHy8YGtu3rgXleZBuCJsYkjR6+QmjzmlrhWfjFBAAIJnyUORzRssQZAiKfA7JkvxayoIUIiKGs47JnKd+55NDQ8fiYLzjue469dXRgW94GMvPfw5f/SpI0vnZzWvXGqcv7VaSNpjgTOWkUiKER+zilF3XgvKGOmtYeiu5rtxQ2gbNX8+qaRyx7Uc5VQwHbNPOrygQCATpRCgX4tEBGmMm0AWT9Yul8FKC+M5PA2MYhn/NGpRrr4W//msYHVUjiX/1V3DunGoQb7wRqnJvHFg6ED5Or/N5u26aGSDUdbzZth/lyQQTQ96AxqtbkNA3e+qIxkSGVE0EKxAIpofZbMZqtSZMVyOYeyKfv/upj9pf/zc2xq5Wl/wUayULLpT0fQJUVamve++F11+H555D+ta3KJiYQFq/XjWKn/qU0Sqzn4DB49ZOXKd2JDXzePihGupe78R1yp7cTOWQOdxNz52xv4Sbn1Ufdrq5FHXp1l1KD4D2O2dYt0CQHVgsFlavXm20jBxAax35qATX1LPnjfvhrxONky6mpKw4tDKKmlos3hKhAkFySJOTk4re+sSKosSdqRbOXK2VrCgK5157jYIXXkB67jlwuc53N3/mM7Oi5eyJVzh77Jcsq/g93fqyhSPvuvn0TXcZLSN1eM4wfhyWlV1EvkYRefIkTt9FLF+Yzzuv/2RO5RnNsbEXmLe0jgUl10Vsn8t7Op2eL0KLvpbjh75PYYGFhZeKpcOSYXvHP/CD3p8acu7Skkt56edPGnLuTOXw6FNcVvM1LHHydGbrPZ0+k08uAGXVKvjd34WtW2FsTO1ufvTR0PrN0g03wPXXGy0zo/nj5gajJQgEAkHG86lPfpyiwgJDzr1woZg9LpgZ0tmzZ+dsqKXb7aakZHaSo0pHj2J6/nnMzz+P9Prr+G+4AX99PfINN0Ac15yslrMnXsH7/hAlK39/NmQLBIZybOyXWC5Zx7wlNTM6fjbv6ekitMQnWS0+n4/Dhw+zYsUKzVQYH7z1FPMvKhQRQ0FWMvbrp1hyzXbM+Qtj9mXiPT1TLJIk6ea78fv9eL1e8vLyNJMhyrKMLMvk52t11qmYzWYKCrR/PXk8nplrWbkSVq5EbmnB73SS/8tfYn7mGfL/8i9RbrwRbroJ5aabIHD+ZLXk5VnwkTjZpECQmUhY8vJi7oW0uKeFljnVIkkS77//PitXrowoH65FS69AkA1IEuQX5GPJj71fMvGenqkWC4DJZNIUKkkSXq839OCIh6IoyLKcVEbvRGVSomXZMqQ/+iP4oz+CiQmkn/4U+vqQ7r03NCbRdPXVSWmRJBPCFwqyGVOc+zLt7mmhZda1+P3+uLqS0SIQZAsmKf59mYn39Ey16NecDRQXwx13gM0GdjvU18PAACWf/Sz82Z/BD38IJ08arVIgEAgEAoHAcLLfGIZz8cXwhS/Arl24f/YzuPlm+OUv4dpr4U/+BHp64Phxo1UKBALBnJOfn09tbW3CGZECgSC7ybhZyalCKSqCTZvUl8ejzm5+7jno6oI1azD/3u/Bhg0gVn8SCAQ5gCRJCcc2CQSC7CdnjWEE+flq9PDmm0FR4Kc/RRoYwPSP/0hRxTJ8DVdAjuQxFAgEAoFAkLsIYxiNJMH69fg+8xmkvDw8fY/jWX3WaFUCgUAwqyiKwuTkJEVFRWKSiUCQw1hAnbqs9SAIzlTTmykTLBP8VwtFURKWSTctvk9Vw7H/1C0nEGQy/jj3Qjbf00JL/Lq8Xi8HDhygpqaGoqKiuFoUZc7S3goEhuBX/HHvl0y8p2eqxaIoCj6fD5/Pp3sSr9erux/g3LlzuvtlWU5YJt20eL0+FMTDUJCtKPi8Xs17IRvvaaElvhaPxwOoOdDifVl4vV5kWUYMvBZkK4oCnnMeZCX2fsnEe3qmWiySJM3Z+n4WiyXil2g0c7nWYLJafPn5+ES3iiBrUSccRN8L2XxPCy3xtQTNYGFhYUT5cC0Wixh9JMheJEn9/FsKYu+XTLynZ6olt9LVCAQCgSAuZrMZq9UqzJ9AkOOIJ4BAIBAIsFgsrF692mgZAoHAYETEUCAQCAQCgUAACGMoEAgEAoFAIAggjKFAIBAI8Pl8vP7666HZyQKBIDcRxlAgEAgEyLLM8ePHAylpBAJBriKMoUAgEAgEAoEAAMv4+DiSJOkugSTLsmY+HFBz4iiKopnNO8jU1BRvvfWW5v5gpu500qKccTNf0c8wLhBkKorix33sGO+deStqe/be00JLfC3B1RCOHDkSk7ImqOX/tXf2sW2c+Z3/Djmk5DfFiRyblKw4WiXZyN1oG4fKhur1cKVv1z6guZ5ekt1IRo1l/mmVFIcLXAtYclMgSy4gI9j7o4n+uCI8+M6S7xJRwjbYq42tib6KbqQ6PW3P8q7jVby2JMaOEltJLJmc4XN/DIcakvNCUhSHpH4fgEg083DmOzSfH3/P2/dhd++ifm+j7v0IoloRxSQ+vv4xOOvOnHPVWKeL1cK3tLSUzZTxxo0baGlp0TxfToPIfLXc+/QO7n3yS91rEUS1wnEWOPbuwy5HW8bxWq7TpEVdi8ViwaOPPgqbzZZxT6WW24kHdO9FENWM1WrB/gOPgq/L/Z5XY50uVgv5GBIEQRDgOGkXHIIgtjY0x5CoAWYRbHChd3zZbCEEQRDAdAhcw0mMLZgthCAKhxJDQsLkQBYddoFrCCFa1Hu98GMQJ/po7hNBFAtjDPfu3QNjzGwplcd0CFyDK/3Sb4TOInh4BPAdQ39z2RQSRMmgoWQCABCNjADdAXjyDGSx8ZNweiN5lPRgdO6UQYCcRSQI9IT+AO78bp+hoysIACPoahjJLeALgQ11FHhVgth6xONxTE9P49lnn8W2bdvMllNmljF2/AgGJjVO+0JgKzN5XscLPwAEveCCuSUCF2bg6yxeKUFsNpQYEsB0KJVc+eGc9GsUykzwHH2nwPr0LxsddqHrsscw2ZR6/AB4j4DzahTqDmDp9FE4FIfk5FQ10E6HwB0GpigpJAgiT3JiycI59LYv4kRecUROLgcxteLNaeRGh13oQoiSQqLiocRwyyMPe+j0rE2HwB2+UthlF87hzSAQuJCZzKlduyuo34qWEszMY1JSCIzOzaj0RkrPFLgwU3APJEEQRCZXML8AuHUbuKmkEAEsrajEvOkQuoKDmFqhhipR+fCMMQiCoOl2L883icfjmkusZe8do62URFHULVOJWgRBQC1PuZHn5+n1rMWuXwHwJFoLmC8TPePHRHcAb+u2jteTUu1W9DLmLwM42JQOttFhF7qCgwj4RjDQHkJrRutcGsq5FDqPMLXM80D6nmfXhVqu07Wuhef5jPc4nc6MeYPyvdW07Nu3D8lkMuOaSi2SXupPyGQWwQYv/L5BBIJ+OA82ZTayF86h9/AVjM6dooZqhcMYkEjEkeRy6+5Wii+8bIKoJVQ2PjUyXDQyU1SWM7pGZWkxvEzVIiVYHozO5Q57KJm/FgF8x/IPatOh1HX1egtTwbQ7gCW9YZqFaYQngcCrUpnY+El0IQS20gHACw9c6GpAeugmOnwEAwdDYLQQJX806kvt1una16I8lm1WnX1evobNZkNbW5tqWVlLPs9dzfgPu6A2mWai3YWBjCPy1BqpIYoLM2CdAIZcQIMXHOQRmFkE2/04dEFtZIOoODj9+r1V4gsPAFarVdcIURCEnFaoElEUkUwmYbPZdB/EarXqlpGduPWcwa1Wq+4Hm69zeFNTU55a+OpJDhfOobfdjwmoz3FZJ2suzMI59Db4MaE2nJweEs53CETqBewJndcJhHIL23hhSCwawQQGcSLV++foOwVlB657aAZTcKGr4QoCPsAPWmxSGBx4lXop74Kx0XpktVoNAx1jrCLiSyXFulJqyUZOAovRYvR9qCxScSavBXASuVNapFgZfv48wqqNzUb0n1YuSumAbyUkJYeXBxHACECLTaoGDgDP28Cr1KlKqtObraWaajkA4x8qjuPyCl61aOQaPePHBABgBJFpnXJyr1o6eezE2yvnMXrZm7ZjCKbeH4tGMNEdwMt5BbbUirzuAN7W7LGTgjUuzOSRwM3iHW/EcLWye+g8RrsjuNQ2RElhCSlFPdoKvUwVz80x9HLBoqygqpnY+JlU718E4WixHqeNaD0ITFwrxMerA765AHomr6D1YsTMTwAAIABJREFUx5QUEtVH1SWGhDbuYwH0AAAG4dEJRu6hrKSsuRGOVMuXrcyAXRiE/7CUIDq9EQReNVhAkiI6fAQD8KBn0g/n8XOIqZbqgG8lv2CZnz/hLIINks3EhPdIhtfY+ouMZomtShTBloFUg1EfQRBw+fJlw/lN1YKj7xgCAAAPet3FTy1xewaB4Ez+ifV0CFy7HxOIYKBdLR65wGnGR4IwnypKDGMYe3F93Jx7cYwqVjbNRxFemVH0BBZJpxdsJYQAgJ7Q+TySuGWMHXeh63IAS6dPIbxyHqPww1mkYTWw7k8YuKDzLNMhcA3SQhO2MqPxCqV+HIhiiZ3tVcxZ6cXYTbMVEXlxMQiO61KdM6eGKIq4ffu25oT16kNqhLKV/IaRNel0IWAwCiMTHXaBO3wFo3Na8UhqeBNEJVMliWEMYy86MfDUVGoO4RJGMQDnj7ba4EiZWDiH3tQcQPV5NUpSPXYHQ2Bpn8FG9J8+j9HuEXQVkRzq+hOm7+kCF2nCaHeBFycKIna2F87+Q5hKzd1dGgMGWrbesGTVcTEIzu1Hz9gSlsZ6zFZT5XTg5ZAH/reUvXyzCCpjW2pnlEibPGpDENVLdSSGF9/BwHs9GP2+3HfkQP9PRtHz+pvUe1FiosMucO1+IHTeeL6esscup6w0ND3lG0FXvkO5C+fQ2+BK+xOqJYWx8ZPgGmbgWZkBG6LJO5tLFO/0T6Bn7OV0r63jpbcx+oIfb56l/vqK5jkfGGMIv5TPJBDCCEffEEbhxyvyVngLi7gEQB4t4SIusJUZ+MiPhqgBqiIxjM1fAl7ohWe/4uB+D3pfmED47/P9gZKGonvPRmlIOodUD1xDajh4ZcagpzAVDA8DUwZl3UMzmPJFMNCunRxKyZ4iIdUZ+nH0ndr4UDmRHzfncQk96P1dZXLhgKe7BxOTkbzrTexsL7gXxxClIemKxm63w+12o76+3mwp5pK1L7K0h7s0CtL7/hFpYd7iIia6m9Aqz82mRW9EDcHnY6YIAGtra4ZlVldXdc8LgmBYJluLxWLB/EcTwFMnVBdATHw0D+S1NCJVvr8Lh6IM7F1Iq/VaBvDKWQ/e++5e3L9/P0dLPB6v4U3l1/cHDcg+XEakLHEOXZgBO53fXdKWMmdm0a8MoNMhcIdHAAxiaqV489cJva30AAAejBZ57dpHqv/Z9dJisaDu5jwmcAgn9qu87b15FFTz3htA11NTYCyM9NSQ18bgebcfD8G8+KJGtWux2+26ll/JZFI11slozTFcW1uTjLHraszgOh2HAEy6JBst1X2RpSQwOuyS9kD2hTS+/9KikwHVcym6aeZzJcKY9D23JnPdFrZSfOE5jtP1u0kmk0gkErDZbJr2FaIoQhRFQ+sKq9WKuro6zfPxeNzQx3DDvDEF33Op/9/fjxNvDKBrMoJPvvcS9im0yVpsNh4CatVuQwp0/XkmeABSC1yOFnwn99AMctLrTi/Yim5Glxc9IS2PMUDqDT2z4XvULhx4my2nXso+hqUjgKkfKqaCvBbAgDuMyM1+9O1FRcSXSop1G9FiZA/EcVyGtkK0bGpsNosC45Dk6qBXwsA3cToE7q1CBBLlguMAe50dvD237m6l+MLbf+d3dA1oLQAsBm7dHGOw5mEq7YjHYdF5YHsymaulrQ34Ld3LFkTPY62qx7l/+idY/uRPcrTsEO4hfqoX+FrpNBClIpXY6pbpgG/lVJn0VB+W2yvY+YdeWGw7Mo5zLhdwXK2rsEheaIV6zQNsf/Zn4P76rzXfuqnxRYHpsa5UWoJB4Dvf0X7fP/8zuD/+Y1UtarshKLU8lPgcq5NvaF57y5NPw7nTm/doC1F+LJxFtd7l45Fssai/V35/IpFIm/6rwRiDKIol8WveiBY+8Zd/CZ7ndR2y4/fvo66uTvNhkqIIQRB0M1gAuL2wgOZmbd+AxP37uVqsVuCt/6173ZLwzDPAX/1VjpbVz34Bdntq8+9PEGZgs2J17L9i595nMg4zqxXcL0fKIkH40z8F/9pr5sQXBabHulJp2bVLVxu++U3VWCeKImZmZnDo0KGMeYZKLXc/ehe1tzUAQRBKeNbYCNhsUgKmBmNga2tAfT0094YTRbBEQiqjQ3J1FdizR/M8W1tT1dL6WA8wOY8Y3DlzOrR6AAvGZsvQJmth2I1kYofOG2sJadi1NWMYRHtLqOiwC2+26Q3jEpVOcvcOsId259bLZBLY34oehDF/E3Bndx7q9AAWCtu5U6p/JsWX9QLmx7rN0JKDVqwTBCQeeACssRHYtk1VS3LZIOkkCKLqqYpVyY7WQ8B7YUSUqxhvRhB+L3vFJJEXqqvuAKADHl8EA2dm18suTCM8qbL7yHQIXZeztr7LuS7tPlLV7G/FIWSv/I8hMjmBnm5PAUu+CIIgiGqhKhJDPPcyRl+YwMBrsrVMDGOvDWDijRPoL+E0qC1DpzfLjX/d/sV9LIAexfZPsWgEEz6XYsVwytrm8BWM/vgoHKm/5b2VkVrRx+YC6OmWrG9o95FqxY2Xx3ow0f9K2lomdvYVDLwXwAnyx6saHC+FwZjPcNW/1WpFU1MTeL7GVh0bkrLf0mzUKuLbJhEbP6nYJi8rphJEmamSCOBA/7tLwItOOLmUCcALo1j6oSLU3RxDb0sYvTfC6WQx+iMOXZgC+yG53q0zi2CDN2ebrMCF82h9S7KuAYCJBuX8sohkz9AdwNLpo/BdGIT/8BUAqf2MfSHJ6oYCWc3heCmMJfTC2cKl7Dd6MHpDmWREEeS6gChLr/aPne2Fc7IXS+/2U69iFcHzPB5//HGzZZiHL2SaH6Gj7xRYnym3JogceEBauqw5wTllW6G3UkYuY2RxwRgzLKOmRbqvA/3vMu0VqPv7EWaZZ90/ZAqLFPX3y2UYY0hm+RUmk0kwlkSuz0o1I+0f6lM7pbCuiY2fhPN9D5bS29wp6PSCXQiBa3dB8iAkc9dqJqlSL5WrUx0vhcFe0nq3G76sepNdXvX9z/kgvy0eNze+ZN+n2rXorXaWtWV7s+arpXY9XQlCIsmSqnV3K8UXnjEGQRAk41IdEomE7nkAOaap2YiiaFgmW4vFYjFcAVgKGGM52gRBQCIhgNVWZphp6AqkewIL6t3pdCEAD1rnvGgdP4leDCF8oNRCic2HQUgkcr77FoulrEOKZsWXWtRiZHCtFevy0SKZX9sMNdUq0WEXuhDCFLzoCspHBzG14gWGXevHsnsfUxsDTCiupdwLXrchTpQNxoD4/ThEllt3t1J84TmO0zUuZYxhbW0N9fX1mtmnKIpIJBKGWynxPI9tytVuWaytrZlmomqxWDK0yVoEux2CgWFs1aFq6Lq+C8o6ETgn5UHnTNPW6LAX8A1ioN0lHej2IPbq5somNgMOdrs9p16W3uBan0qIL5UU60qp5caNG2hpaUn/rRXrGGO4evUq2traMgx2lVq23vxDFYJevBk6D7bSmE74uhpG0JNxzIte2bFBsVtUWJkIHj6Z5QBBmA3HSbGIr8utu5VUpzdbS3UsPiHyY+EcejNWGWuQvXr4+DnE5D0/UwtSlkIeqScxvUAlFcBS9+gKAv7gSGqxSQiByUXMA0DQm973eGLSD2eDC5zKnEaCICoLURRx69YtzS3xqg95D/g8HRHk2JXzyo6nCpeG5k70dgPoVjg0pI5NXJNuGotGMNEdwMuKLUcdbg96EMH84safkiBKTVUlhnKWqzfPJZ8uVgBYXKy9Ghk9Iw9VjCCitxAke1VyIcMXzUcRViaPAKR5i6mVzbQquSZQG25Uw6ge3b9/XzfRyGeuDEEUQ2z8TKpBGkE4umz8Bjl25by8mSu6u5sUHp6NaD0I4GCTZgx19J1Kx9jY+Mn1hnORz0UQm01VJYYA8pr8nE+Z2mkVr+M+FkAPAGAQnk6DwhsgNn4SvePLmn8TtUEp6lGp6itBFIqj71iqQepBr9tEE/70SI4LTm8EgQuphrN5ighCF5owUkvks08nUvNbvBHFkUGMhq5gIOMYkDnHEOlFKvPXIjjkOQVclw47DjyJicgCQItPCKJqsdvtcLvdsNlqZXGJjgNDGYme8WMie4Efmf0TFUzV9RgSpUGaKL3ecm3tO5UxfJI7x1Aecl7G/GUPWpsUF2tqQs/lRcS0bkYQRMXDcdJCJD2rG6JQljF/Geh5vjNjqDkWjdBQMlGxUGJIFMbCNMLwwKNcSdd8FGGyWSAIgshCmoM44f3p+gKWhXN4JTU6c+k6TcEhKg8aSt6iTHiPgEs71gziRL5vbD6KsGyCrXY+6JV2SZHvo7S7KUInQRDlgTGG1dVVbNu2bWv2GmbFrgw2sCuKe+g8Ri8fQVd6NykPRudCONTuhf/aAgAT5z8ShArcr371K2bklC+KoqFhKmNM081bRvbN0UJ26q4kLeyrK9jJ5uBs82iWrTZi4yfxCoYkjy2dMkaGq7Hxk3BeO7YeMKdD4CIulQA6i2DDGfLsqkBiv/4bfIHHYdn5WxnHa7lOkxZ1LclkEktLS3A4HDl+hbIW9un/wd69jWjY83XdexJENXLtw1Ewx3Fw1p0556qxTherhVtdXWVmGa1mY6bpq5aWe59+iHuf/C32tf473esRRDXyyfzfYfveLuxyfCvjeC3XadKirkUQBFy8eBHPPvtshnmuUsvtX/5P1NfxlBgSNcnHs2ex3/VD8HUP5JyrxjpNBtcEQRAEQRDEhqDEkCAIgoDVakVTUxNte0cQWxyKAARBEAR4nsfjjz9utgyCIEyGegwJgiAIgiAIAJQYEjXBLIINLtqWjyCITSc6LG1vxw3Pmi2l5Eh7OYfWPRcByW3i+DnEMItgw0mM0a4tNQ8NJW9VpkPgDo8YlwMQuDADX8bey7MINnjh13qDGhvwATNkegZ+eDCa736oG3p2gqhNBEHA1atX0dbWBrvdbrYc01C36kpZbl3wYL7tPNhKI2LjIYwtdEgWXBuKKcsYO34EA5OFqBzE1IoX7kLeUiydf4BRHME70zN4OQS8El1Gv47VGVH98IwxCIIAURRVC8gb3Mfjcc0l1rL3Tjwe172ZKIq6ZSpRiyAISN22tuj0gq14dYtIeyo/CU9OYlQZe5BKzCKYCsgD7S4MaJTqCZ1f923c0LPXGtL3PLsu1HKdJi3qWhKJBG7duoXm5uac87IWSS/1J+RQgpiSEaMMr1OMyGJphOd5D5yRWfiOeYD2nyLaV6aktMwwBiQScSS53PpSjXW6WC28bIKoJVQ2PjUyXDQyU1SWM7pGZWkxvEyNMot3vBH0hIYqOgBEh73w67aepd7NSwVdtTqevWRo1JfardOkRU9L9jWVWrbCjijz1yLAwWNZxv7NaO2OYB6n4LnmAtcAaRSkL9+rVndMcfSdgpRKdCC8YrKYzYTTr1PVWqcL1cIDkk2BnhGiIAjgeV7XlDGZTMJms+k+iNVq1S0jO3FXlhZ+SyaHsfEzUsJVyUMG0yF0BYHABZ3W68IiLgE4dCD/56iKZy8ZHHiVulDbdZq0qGmRexF4ns8or9Ri9KNWK/S0aW/R5B6aARsq7HrVFVNG0tv3bbWpNBwAnreBV6kv1Vini9WyNWo5URipTd7VEy5poQdXzKuUk7VTc3p6Quf1A9fiIiYwmP+QsO6zE0TtYrfb4Xa7DXddqG2WMX9ZrSHZiNaDwKXrRSxw24yY0t2E1lJdK4dBTK3MgK3MwBOR43fWghSipqHEsJZYOIfeDVfiZYz9wI8JX0gj4ZLmFzLVVwgBSHNlVM+XaPFJbPwkuMMjCFyYQbgPGDuu9czLGHtrBPC58gzIRs9OELULx3Gw2+01NFwsN2ILWEm7MI3wpAetTbmnWts8mHh/GrGCNOQTUxrRf3omr/mFgDzU3aS5h30pcQ+lYvdcE95MNfCD02W4MWEqlBjWENEzfkwAAEYQKbLyRoePYGByEFObtYIYsiVCYb2N6WA0HYLT+ySmVtaHODw/nsFS6Aq6snsmU0F+9Fh+z1KOZycIojxIw7cAEEE4ml9PXywawUS3Bx6VkWSH24OeyUXMF6Ch9DFF6tFUDnVvKJ7mS/NRhFONfxwma7Bah5aX1RDuYwH0BP2FDZ0qiI2fRFfQg57uEXQ1oGg7BKP5fI6+UwVM2s6i0wuWMfm5EY5mAOlrSotNuGDqtC+EsPZ0oTSlenaCqFYYY1hdXcW2bdtqotfQ0XcMAW8EfnjQm5eV1TIi70fQ8/yQem9ccyd6u48gMu2FO4/4uikxZWEa4Ung0Kvrz7OheFow0ogRUdtQj2EtkW7VFR6AosOuVE/cKYRPz2DKN4KuQs1Mp2fgLzIpLR1S4JryAegOYCmPlnpJnp0gqpx4PI7p6Wmsra2ZLaVEyNNeTkleg0ZM/xQDk3pJpGTb4n/rnOFw8mbFlOgZPya6A3iZproQmwj1GG55UuaqCGBpZd3Q1T00gym40NV+EpjLJ7Cm/AR9IZN72mSz2EFMrRw1mIdTqmcnCKK6keYj94TO69Z3qRfSi3dePaoxZ3DzYkp02IWuoAejc0ZxjSA2Bp+PmSKAvFqRq6uruucFQTAsU2la4vF42sah5lg4h952aWK02sIQ99AMltpOwtnuwryubYG8E4rJ8/Pk3Qe6M4OyKiV79mpHqv9adaEW6zRpUdci69G659raGgRBAOpqrz8hNj4sNSZPGw05d+DlkAfOt87h5dNZMWbTYoocXz0YpYbqpsKY9D23JnN3/qnGOl2sFp7jOF2/m2QyiUQiAZvNpulhJYoiRFE03EbJarWirq5O83w8Hq84LTYbDwHVP98mm/XW54zuHDxH3yks4SSch12ASjCTrgMpGcsOlGUirQHS8xgFzlI9e23AgbfZcupCLddp0qKtxel0Yvv27RkeaUotWnqrmukQnF5gdC6/KThyr6HzYFM6AdyMmCLtcBKR/tjMLUWJNBwH2Ovs4O259aVa63QxWngAsFgsmkI5jkMikYDVatXdxkUUxbwcvY3KVJoWjrOgtvLC1E4gIWm/z3xIB7OMVnKqFZtP79wmkQ6cvhDYSj5Bs1TPXltYVOpCLddp0qKuxWq14oknnihKS/Uyi+DhKwX2xHXANxfApfYZRIeASAljSkYy2B3A0sqpmow5lYyFU6+X1Vini9VSe2MChAHFrSrLXflm/n7Jha/GK9WzEwRRG3TAt3Kq8Lc1H01vDecuYUwxO9aYfX+iMqBVyQRBEARBEAQASgwJgiAISBPa5+bm8pq0ThBE7UKJIUEQBAFRFHHr1i2Iomi2FIIgTIQSQ4IgCIIoCcsYO26wZdzCOfRuaD97gthceEBauqy1SiaZTAKA7koZuYz8Xy0YY4ZlKk0LY0mg1mwMZb+/NIOp7Zpkc2hl4VzvrIyVczI5dgrSCuDatXmpHZIqdaGW6zRpUb+W7NeaTCYzyiu11KynKwDZnDr8/HmE+xrXfQmzSgWyYppqPJw8As4r/+HB6NwQ8IMjmH91Br6mTXwEYsMkWVK1vlRjnS5WC88YgyAIknGpDolEQvc8ANy/f1/3vCiKhmUqTUsiIYDVWmbY6QVb8WqeXg98swg2nMk5v9GVa+u+g9kMlmeP4lTAP6SRtEaHXei6LPsyqiXLCrIT4ukQuILtL8yEQUgkNOtCLdZp0qKuhTGGp59+GhzHqZZPJBKpYWZb7gVqgOhwaseSPqXtjDImSbFgXuW9PaFUMgkpfrzZJv+tHkNVWTiH3vZFnFDEQLVYmZ2YasfTXG2G5HQaKND0qpUNuJVkx/LUZ/dqZXcUMAbE78chstzvfzXW6WK18BzH6RqXMsawtraG+vp6zexTFEUkEgnU19friuB5Htu2bdM8v7a2VnFaBLsdQk15d6knOlLwyOf9akEAKDipUwkysfGTcDacrMykSs1gduEcetu96G0rIPBWHBzsdntOXajlOk1aitfC87XocKbYxk4ZkxYXMQHghMa7osMuRDwz8PWdQjg1hLweV6Uew8CFmZQdzjLGjDT8QGqsKpPQ7K31pJjjQm92slfSDQbUdliR9DiPI+M+cm9p4MIMWHay2jCiSGIb0f/jAHrbQ4iWo/FfJBwH6Xtel1tfarVOq2mhOYYGcFYbWLKWJmM3ov/0DNhK5ksKMguYn/SgVXWoYxbBhhCi6Y3ps18br+yOvlOY8kUw8APjTeorguajeDvkwYT3p1U7X4gxAZylNnuAiNLDWWxgSf1eiGojNj6MgYMhsNNH4Vg4h96GkxhbAKKREfSE/iDPuLYeV6d8UkObreTfOxYbH8YAAnhZLr8wjfCkB6M/zkr2TIs5UmLXMxlBZCF1KL1jTO5zuoekz8H/liKWNx/FCd8I3tSbf2kyLCmAs9Ri46cwKDE0gLftgpDQ35Ow6lg4h94GF7j0S5oIHRs/A7/vmGFvXWz8pOK90qt3fDnruNSr6D+sKDc8ayjNfSyAnkk/3plWHp1FUEWv7jMdL09y6TjwJIArmF8wLFqRiIk1WO27zJZBVACMMdy7d093HqHVvhti4l4ZVW0+jr5TqdEAqdduwncM/YshdF0O4O2MkYBGtB5cj2ldQbkRLfUWyrGnKwhMeI8UEPeWEXk/gp7nO3N6KzX1mtbrFsH8ovR/0cgIoPN74fYMoudgU86xSm5Ii8IarLYdZsswHUqNDbBt34v42udmyygtzUcRXjmadXAWQe+TmMrYWq4DHl8EXe0uDADScAX05hgqjxe5+KS5CYcAXLq+DHQ2qm5MLw1TYH3oOjUvJnBhBuHUvaLDrpxhj80gdv0KgCfRWmlD33kSX/sc9u37zJZBVADxeBzT09N49tlnNYep7Nv34su7/1pmZeUhNj6MgclBTJ3uANABdjq3jHtoBmwo+6jUW9ifKp85x1BGb5Wy1DvY+2NF+U4XAhjBQLsL4ULmCG4mi4uYgAe9TQAwi0gQCFzQ2Yq005uOx+vHXAjAi8i0F+4Km2uYFOOwWLX3H95KUI+hAVbbTjAxgWQ1DJ+ke82KsULogE+lFeoeUgwXl2Wv4Ga0dq//FT3jx0R3AEuK+X3uoRACWB+SkFquoYwE1D1UBr0L5/CKN1LAcFNlwZgIMbEKq73BbClElVDXcABrX94yW0aeyCMN0tCwLtMhaWVxdxNaISV32aMima88rpknsWgEEzmNyw74VkIIIKv3USu2T/rh3FSdswgeHgG6PfA0A1hYxKWiriPF90vXK284ee3LT1DXcMBsGRUBJYZ5sP2hdty7c91sGYZEz8jWCiOITOsUVB1KzhwOyX2tByStoeTSs4z5ywAONmUleB3w+ICJ96cRS7Vce9o2ucsu6M39TNr9QKW05ovg3p3fYPtDT5otg6gibPV7IIr3IQprZksxJDZ+JrVILoJw1MBXMGslrjxHTp4rmPG6MAjlKEF2EpkzlGzQUJ+/tp6QZqKYz31hMHVsBF1qw9PdASypzv0uZiFfBAPt2fHfC78vZNjYVvttCGb8FknD8RPXKm/uzVd3b2D7Q0+ZLaMioMQwD3bu7cQXn6uZFFQW7mMB9AAABuHR66ZvPopwzsKRRvSfPo/RbmklnTK4LIU8gM+V7hWT5rioLV4pBQuYz14xnUfSd+hAiZOz7GTUF1I8r9SSR3f2HKTq4ovP57Fzb4WN5xCmYbVa4XQ6DVce79r7DL5YvlomVcXj6Dsm1VN40OvWqqfrq4GXQp6MM+5jAcA7nNXjtoyxtzIXpWSMqmzSwjzJYmx9cQuCZ0rWY5mLB6NzKs+hdGVITfnJJuO3YU7+PVLh8mLFLTD88rNfY+fDT5stoyKgxDAPdjm+ha8+/xjJpLH/kKmkEz79QJTbqpNbtI3wPO/JXEmGWbzjjSDgWQ8KqsMseSwsyYuFRVzKCuSarUtF8lbQ0IRGUJNI9VLq0gHfnLRIxlmq5y4zLCniy8+uocHZZbYUokLgeR5PPPEEbDb9VeoNzt/F3du/LJOqjSD3uOn1mknzA1XnQTcfxdshZLgkyPMQT2TNH9QbbQnqjd4UgdQBsL4IxBykIWF/pMj4lzMKZC737t4AX98I27Y9ZkupCPgbN26A4zhNXx1A8tbR8sMBpNVsjDFNN2+ZtbU1XLt2TfO87NRdiVrYzm/is4VL2NPyLd3rVg3yYo6UqaqMo+8Upq654BxuAhvqQHQ4NYSQFTizDV1LlV7IcwrfbgbkYQepddmhCCSp4eOQFO1buwH/tQUA+fbeSUEtLC9wyUDqsQy8qjOpGkj9aEQw4fUi6Kls01Y1Plu6BLajQ7MObIU6TVqK15IULPjq7m+w44FHdO9d7Tj6hjD6vuTfN/V8BF1eYHROreGt7f0njTVJCSgAIKud29rmAYKLmD+NdIzLNNlXQ8tWrFw0ov/VQQwcPoOxY4UMV0sN757nK2u13qeL/4L7dc/o1pNar9NK+JaWlrKZMt64cQMtLS2a58tpEFmoluQBJ37996/hQWcHrLy2sWQt4B46j9HjR8A1IGWcapAklYjY+El0BT0YnVsPhu5jAfS0++E82KRYleyFH4OYSiWmUoDKTNAk49UnNUy35aB2BMEDyqRuGWPHvfB3B7CUR6In/WhEMHA4BE8Fm7ZmkxTu47Olf0Hr75wCr7HwZCvUadJSvJavHvgelj/6XzWfGEoJXQjzDV50TUrTbEptvu9we6QewAXAnbq2WtyTiZ6RXBrCZudWnV4shU7CqbJyOr1NYHcAb2fEUqnhfejVypmC89Wd60iKAh7/5vO65Wq9Tishu5o8sfDb0fi1/4RbH/8jnI/9e7PlbJygF1x6G6XBdXd/xZZIPd0eTEyqB6cJr3IvUAC+Au8/6YdzMnv/FJXdU5qPIrzShGCDQm931m4AnV6wuSb0trvA6V1Liep7oL7DiSaS6Wt40o+u402K1r00eXsgu3hJdyconlvX/wEN+/8DrDbyLyTWEQQBV69eRVtbG+x2u27ZHXuewt3Fv8HnSx/iQWeNzsvzNzbHAAANxElEQVRSxsLQebC+BWmVs2rvoEadBxB41eA+zZ3o7fYjHF1Gv5xcNR9FeKUTY3IDXXm9rF1GAGjE0xTpuFP6/esl67JZBBuyfg9S8xRzkujpGalRX0EjLLeu/yMefOwPzZZRUVBiWAAPHjiKm59+iDufzGL3vvL0om0aqnv8jkBKqGbWE6rTqXMN3oz3FLT/ZhbqXmB6SHOFdHNPVW9GA/J6T8qjLN9rGOxDbTZ3b/0rEokE9uz/jtlSiApDFEXcunULjz76aF7l97V/H/P/8KfYtsuJ+p1mN3dKiOydmpPcNKbiUMoGJ6PxaTSUjMx9iH0hhLF+Xc/zHgy8P41Yn7LhmOmPqEX+8bQDvguD0NlWORW/8rlW1nWN4nMKaTeZ8xUzuvLJ/N9i+55nUL/762ZLqSgoMSwQ51Ov4OOoDzb7Lux4MNdgoBpw9J1Czt4GeglN1jn30IwiqGkhBQuicvjqznV8euMDPPJcAIL25hYEkRdW2044Owax8K//DQe+0QfevtNsSRtCadyv32DMToQa0X/6lEo5xbxCQDfGynMZ35k+uqnzlaORK2g9tnnX12XhHN4MDuLESmUMI3+2OINEIg7nb30XiUSFLywtM7QquUCs9gY0P30CS9cu4KsqsLAhCEBKCpc++jmaD50AX7fbbDlEjbCj8Snsefy7uDH3UyTuF9zVRKSRpqVcOlzM5gT5MovI5ZRBddmRbYEqYy7254uX8MXnN9H89AnjwlsQ6jEsgvqGA9j/zBBuXnoTe/Z/Uf3DykRNc+eTX2D55gz2P3MS9Q2tunvhElsXu90Ot9ttaFeTzQNN/waMAdd/cQZNjx/F9ge0J8UTOjQfRXhTc+sO+Mq0kDCXrN5TE7l1/R9wf/ULPNL5Q3AWHhBFsyVVHNRjWCR1uw7Aceh1fHn3Eyx99POa21ieqH5EYRVLH/01vriziAPuIOobqnPqA1EeOI6D3W7XtbjQYpfDjYcPvorY/N/i0xsXN0EdQWyMtS8/wW/+XxjM0oCWTj84q/4Cq60MzxiDIAgQNbJmuXchHo9rBgzZeycej+veTBRF3TLVpsVq24WHv/FfsLJwAfP/dxS793XgoaanYaEvHGEiSTGOz5c+xOexWTzwyO+jseU7SALp73ul1SPSUhta7A1t2P+tYSxfHcWvPzyNxuZn8MDeb+hqI4jNJr76OT5b+hfcu7uABx/7HnbseTqjPlRaPaoELbxsgqgllOM4JJNJQ8NFIzNFZTmja1Sblt0t30ZD0+/izvWf4dcf/g9sf+AR7HqoFTt2H6AkkSgLSTGOr+7+Bl9+No+v7nyMnc5/i5bnhmHht+eUrdR6RFrM1QJA1dusUC17njiG+Fce3P3Nz3B75i+wa8/XsevBVhpiJsqGEP8SX935GCvLv0Z8bQUPPHIULQf/s2b5Wq3TxWrhAWmPTD0jREEQwPO8riljMpk0nJtitVp1y8hO3FWpxWbDvq9/D/u+/j188ck0vrw1g1vXpwAw2Lc9CN62HRynfq0kS8LCaX9ZGFjKa0/7iyCV0fsyMTDAoIz5WixfrAIMSDZsM12LkkrUwpgIIXEPibU7YIxh+0Pt2NnkwYPtHYbmphVbj0iLaVoEQcCHH36IZ599Ftu2rZv4F6PFtvsAduweRFJYxUrsIj6/9c9YvHoenLUOddsehJWvB6dSnzarHvHXPkHy4V1INqw3lCqxTpOW4rUkkwkIia8Qv7cMq70BOxq/gYce+y4s21oNTaVrtU4Xq4UWn2wCu/Z1Yte+ToiiiPtrX8CaXIEQXwFLCqrlP719G3sefljzeol4HFae125pMIZ4Ig67zQ5ofOGSySREQYDNwLjWbC22vzgLiCISf/QfTdeipBK1cBYevH0XbNv2wqLYjWdtbU33/QRRLiz8Nuze/3vYvf/3AAC/mZ/DnofqICa+BGPJnPKbVY/qf/QDJLwvQmz/7fSxSqzTpKV4LRarHXzdbti2O9KNDnmHD6IwKDHcZCzWetTt2I06nTKfr93Azoc3tr2NtURb7ZiuZeffAaKIuod/23wtCqpJC0FUKhy/E/U6Q8qbVo8+WwXf/m+Bh7+WPlRNdZq0FKeFKA5alUwQBEHAarXC6XSC52uwv2BpCXA6zVZBEFVBDUYAgiAIolB4nscTTzxhtozS8+mnwI4dgGLeJEEQ2lCPIUEQBFG7LC0BTU1mqyCIqoESQ4IgCKJ2oWFkgigIPh8zRSC/lY6rq6u65wVBMCxDWmpfS11dHerqNJbj/NEfpf/X6XQimcxduShjT61o0ypz//59Qy0ylfC5kBbSYqYWQRBw/fp1PPLII6pWGNX6uVivX4fl4YeRyLpvNf4bkRbSUg4tPMdxun43yWQSiUQCNptNc3m6KIoQRTH9Q62F1WrVTgggPQhpqX0tugafCn0bnQRvs9mq6nMhLaTFTC0cx2F5eRmtra0Z5SvpcwFg6AWXTCaRTCbX44fTCbS1wZq1ArahoUFzVazcYVJp/0akhbSUQwsPSD/UWkI5jkMikUgHDjUYYxBFMS9Hb6MypKX2tZQLq9VaVZ8LaSEtZmqRe96zdVXS5wIgrx/NjB/E3/991XKNjY26Oo20VNLnQlpISym10BxDwjwuBjO27gleNFsQQRAEQWxtKDEkzOFiEJz7EkZvSJuGs2gAfncvxm6aLYwgtiZ2ux1ut9vQdLgyiCKoaFRyP4qaLYggagZKDAkTiGHsJ37gjRPo35869JwPU29MYOC/U4AnCDPgOA52u930KSDGRBHkunBpbElqVLIpBF7vQu/ZmNnCCKImoMSQMIF5zL8HBL7tzjjq/nYAeD2CvFPDi0FwXBBRGpImiC1D7Oyb8COAEy85Ukfc8EUDmOh/J//YQRCEJpQYEuXn5jwuoQet+9VOXsJ8QcPJfnT9pBVLTBqSnnoD8LuD9ANBEAXCGMPq6ioYY2ZL0WX+owngDQ8ympXPeRCAH5G8G4XSUHTwIg1JE0Q2PCAtXdZb+g9Ad6WMXEbPcw6QAo9RGdJS+1pK2xrpwehP+pHuO/j+KHpeH0Dkog+dLtFQSyV9LqSFtJipJZFI4IMPPoDL5cI2xfZxlfS5WCy3MP8LoKe7VfX8pfkY8JxD9Zwafveb0jzn/UjNe+5C8NsMP/gWM9RSSZ8LaSEtpdTCM8YgCAIEQdC9SSKR0D0PrBsKayGKomEZ0lL7Wkq7Y+kh1Z5HxlhaQ7V8LqSFtJipRTbEjcfjqj8WlfC5lHq7456xtxXznF/G6At+DPw8iiFXJ+i3kbRsVS08x3Gw2WyaRoiMMaytraG+vl4z+xRFEYlEwnA1G8/zGS3RbNbW1kjLFtBSDjiOQ319fVV9LqSFtJipRU4G6+vrM8pX0ucC3NW9fqEcalXvXeR5HoIgVNy/EWkhLeXQQnMMifKzvxWHMKExl1C9B5AgiM3FarXC6XRueMchgiCqG0oMCRNoResLgP/nmRO9oz/3504qJwiiLPA8jyeeeEJ1n+TKwYHWp4CJj+ZVz2r1ABIEkT+UGBIm4ED/awHg9a51a5mLQXS93oPR71NaSBCENq2P9eTaWl2MwI8APM+ZpYogagdKDAlzeM6X2u0kZRPh9iMQDa9PBAcQ/VGmfUTsbC+4F8dANrYEsXVxvHQCAfjRlY4NUQTdfvSMvUyjDQRRAmgyCWEez/nAmE/ztPuHDEpHNcdLYbCXst+f9ab9/QizfgDIPUcQhCaCIODq1atoa2uD3W43W44ObvjYFMB1gXs9deiNKbCX1oeRY2d74ZzsxdK7KSurm2PobQmj90Zm45MgiFwoMSQIgiAgiiJu3bqFRx991GwpeeCGjzFoNStzGpGKBqPy/VnvQv+7DP0giK0NDSUTBEEQBEEQAADuV7/6FZO3A9JCFEUdXymkNjJnmm7eMrJvjhayUzdpqW0tX/va1zbd4zCZTGJ+fr6qPhfSQlrM1JJMJrG0tASHw5FjWVMJn4vFYkFrq/qOJ6Xmzp07uH37dsX9G5EW0lIOLdzq6iorlynjjRs30NLSonm+nAaRpMVcLaIoqs9jGh8HRBH47ncRi8XgcGjbT9y/fx88z9fU50JaSItZWiwWCxKJBGw2W8Y9K+lzKSeV+G9EWkhLObTQUDJhCpr7PC4uSi8Ybx3EaHUJQZQMjuNgt9tN3bEoH4y2+ZK3ssPPfgZ8/LFmuZWVlVJLI4iagBJDgiAIoiqQ90DXaxQmk0kpMfzzPwdWVzXL3b1b2u31CKJWoMSQIAiCAGMMq6urtdMTv7QEOJ1mqyCIqoMSQ4IgCALxeBwffPAB1tbWzJaycb78UpqrvHu32UoIouqgxJAgCIKoKbhYjHoLCaJIKDEkCIIgagpuaQloajJbBkFUJby8gksURdUC8nyTeDyuuVpN9t6Jx+O6NxNFUbcMaSEtVlEEBAFiPG66FiWkhbRsBS379u1DMpnMKF+Nnwu3tARx716IOveq1n8j0kJaNlsLL5sgagmVjU+NDBeNzBSV5YyuQVq2sBaOAxTn6HMhLaSlPFpsNhva2toqQstGPxdLaijZSE+1/RuRFtJSDi08AFitVl0jREEQwPO85k1EUUQymYTNZtN9EKvVqltGduImLVtYi8UCWK2wpsw56XMhLaSFtBSqhS0twep2w6pzr634uZAW0pKPFppjSBAEQdQUtPiEIIqHEkOCIAgCgiBgbm7OcH5TNUCLTwiieP4/16La4RbTNDkAAAAASUVORK5CYII=;" vertex="1" parent="1">
                    <mxGeometry x="1300" y="1300" width="646" height="446" as="geometry"/>
                </mxCell>
                <mxCell id="71" value="&lt;span style=&quot;font-size: 18px;&quot;&gt;タイトル&lt;/span&gt;" style="text;html=1;strokeColor=none;fillColor=none;align=left;verticalAlign=middle;whiteSpace=wrap;rounded=0;fontStyle=1" vertex="1" parent="1">
                    <mxGeometry x="730" y="1320" width="160" height="30" as="geometry"/>
                </mxCell>
                <mxCell id="72" value="&lt;span style=&quot;font-size: 18px;&quot;&gt;宛先&lt;/span&gt;" style="text;html=1;strokeColor=none;fillColor=none;align=left;verticalAlign=middle;whiteSpace=wrap;rounded=0;fontStyle=1" vertex="1" parent="1">
                    <mxGeometry x="730" y="1410" width="160" height="30" as="geometry"/>
                </mxCell>
                <mxCell id="73" value="&lt;span style=&quot;font-size: 18px;&quot;&gt;タスク&lt;/span&gt;" style="text;html=1;strokeColor=none;fillColor=none;align=left;verticalAlign=middle;whiteSpace=wrap;rounded=0;fontStyle=1" vertex="1" parent="1">
                    <mxGeometry x="940" y="1410" width="160" height="30" as="geometry"/>
                </mxCell>
                <mxCell id="74" value="&lt;span style=&quot;font-size: 18px;&quot;&gt;本文&lt;/span&gt;" style="text;html=1;strokeColor=none;fillColor=none;align=left;verticalAlign=middle;whiteSpace=wrap;rounded=0;fontStyle=1" vertex="1" parent="1">
                    <mxGeometry x="730" y="1525" width="160" height="30" as="geometry"/>
                </mxCell>
                <mxCell id="76" value="&lt;span style=&quot;font-size: 18px; font-weight: 700; text-align: left;&quot;&gt;【～～調査】▼&lt;/span&gt;&lt;span style=&quot;font-size: 18px;&quot;&gt;&lt;br&gt;&lt;/span&gt;" style="rounded=1;whiteSpace=wrap;html=1;fontSize=14;fillColor=#FFFFFF;" vertex="1" parent="1">
                    <mxGeometry x="960" y="1440" width="150" height="40" as="geometry"/>
                </mxCell>
                <mxCell id="77" value="&lt;span style=&quot;font-size: 14px;&quot;&gt;&lt;font color=&quot;#ff0000&quot;&gt;タスク詳細からリンクしたら自動選択&lt;br&gt;（他タスクも選択可能）&lt;/font&gt;&lt;br&gt;&lt;/span&gt;" style="text;html=1;strokeColor=none;fillColor=none;align=left;verticalAlign=middle;whiteSpace=wrap;rounded=0;fontStyle=0" vertex="1" parent="1">
                    <mxGeometry x="1008.5" y="1390" width="240" height="50" as="geometry"/>
                </mxCell>
                <mxCell id="78" value="&lt;span style=&quot;font-size: 18px; font-weight: 700; text-align: left;&quot;&gt;鈴木さん▼&lt;/span&gt;&lt;span style=&quot;font-size: 18px;&quot;&gt;&lt;br&gt;&lt;/span&gt;" style="rounded=1;whiteSpace=wrap;html=1;fontSize=14;fillColor=#FFFFFF;" vertex="1" parent="1">
                    <mxGeometry x="750" y="1440" width="150" height="40" as="geometry"/>
                </mxCell>
                <mxCell id="79" value="&lt;span style=&quot;font-size: 14px;&quot;&gt;&lt;font color=&quot;#ff0000&quot;&gt;プロジェクトに参加している&lt;br&gt;SEからプルダウン選択できる&lt;/font&gt;&lt;br&gt;&lt;/span&gt;" style="text;html=1;strokeColor=none;fillColor=none;align=left;verticalAlign=middle;whiteSpace=wrap;rounded=0;fontStyle=0" vertex="1" parent="1">
                    <mxGeometry x="780" y="1485" width="240" height="50" as="geometry"/>
                </mxCell>
                <mxCell id="80" value="&lt;span style=&quot;font-size: 18px;&quot;&gt;～～はXXの理解でよろしいでしょうか？&lt;br&gt;&lt;/span&gt;" style="rounded=1;whiteSpace=wrap;html=1;fontSize=14;fillColor=#FFFFFF;" vertex="1" parent="1">
                    <mxGeometry x="750" y="1555" width="440" height="105" as="geometry"/>
                </mxCell>
                <mxCell id="81" value="&lt;span style=&quot;font-size: 18px;&quot;&gt;～～について確認&lt;br&gt;&lt;/span&gt;" style="rounded=1;whiteSpace=wrap;html=1;fontSize=14;fillColor=#FFFFFF;" vertex="1" parent="1">
                    <mxGeometry x="740" y="1350" width="440" height="40" as="geometry"/>
                </mxCell>
                <mxCell id="82" value="&lt;font style=&quot;font-size: 18px;&quot;&gt;（５）スレッド&lt;/font&gt;" style="text;html=1;strokeColor=none;fillColor=none;align=left;verticalAlign=middle;whiteSpace=wrap;rounded=0;fontStyle=1" vertex="1" parent="1">
                    <mxGeometry x="680" y="1790" width="620" height="30" as="geometry"/>
                </mxCell>
                <mxCell id="83" value="" style="rounded=1;whiteSpace=wrap;html=1;fontSize=14;fillColor=#E6E6E6;strokeColor=none;" vertex="1" parent="1">
                    <mxGeometry x="690" y="1840" width="540" height="520" as="geometry"/>
                </mxCell>
                <mxCell id="84" value="&lt;span style=&quot;font-size: 18px;&quot;&gt;スレッド作成&lt;/span&gt;" style="rounded=1;whiteSpace=wrap;html=1;fontSize=14;fillColor=#FFCC99;" vertex="1" parent="1">
                    <mxGeometry x="1030" y="1680" width="150" height="30" as="geometry"/>
                </mxCell>
                <mxCell id="85" value="&lt;span style=&quot;font-size: 18px;&quot;&gt;～～について確認（タスク：～～調査）&lt;/span&gt;" style="text;html=1;strokeColor=none;fillColor=none;align=left;verticalAlign=middle;whiteSpace=wrap;rounded=0;fontStyle=5" vertex="1" parent="1">
                    <mxGeometry x="730" y="1870" width="380" height="30" as="geometry"/>
                </mxCell>
                <mxCell id="86" value="&lt;span style=&quot;font-size: 18px;&quot;&gt;～～はXXの理解でよろしいでしょうか？&lt;/span&gt;&lt;span style=&quot;font-size: 18px;&quot;&gt;&lt;br&gt;&lt;/span&gt;" style="rounded=1;whiteSpace=wrap;html=1;fontSize=14;fillColor=#FFFFFF;" vertex="1" parent="1">
                    <mxGeometry x="730" y="1910" width="480" height="90" as="geometry"/>
                </mxCell>
                <mxCell id="89" style="edgeStyle=none;html=1;exitX=0;exitY=0.25;exitDx=0;exitDy=0;entryX=1;entryY=0.25;entryDx=0;entryDy=0;strokeColor=#1A1A1A;fontSize=14;fontColor=#000000;shape=link;" edge="1" parent="1">
                    <mxGeometry relative="1" as="geometry">
                        <mxPoint x="730" y="1936.5" as="sourcePoint"/>
                        <mxPoint x="1210" y="1936.5" as="targetPoint"/>
                    </mxGeometry>
                </mxCell>
                <mxCell id="90" value="&lt;span style=&quot;font-size: 14px;&quot;&gt;田中太郎　to 鈴木　30minutes ago&lt;br&gt;&lt;/span&gt;" style="text;html=1;strokeColor=none;fillColor=none;align=left;verticalAlign=middle;whiteSpace=wrap;rounded=0;fontStyle=0" vertex="1" parent="1">
                    <mxGeometry x="764" y="1915" width="230" height="20" as="geometry"/>
                </mxCell>
                <mxCell id="94" value="&lt;span style=&quot;font-size: 18px;&quot;&gt;OOは検討しましたか？&lt;br&gt;&lt;/span&gt;" style="rounded=1;whiteSpace=wrap;html=1;fontSize=14;fillColor=#FFFFFF;" vertex="1" parent="1">
                    <mxGeometry x="870" y="2030" width="340" height="105" as="geometry"/>
                </mxCell>
                <mxCell id="95" style="edgeStyle=none;html=1;exitX=0;exitY=0.25;exitDx=0;exitDy=0;entryX=1;entryY=0.25;entryDx=0;entryDy=0;strokeColor=#1A1A1A;fontSize=14;fontColor=#000000;shape=link;" edge="1" parent="1" source="94" target="94">
                    <mxGeometry relative="1" as="geometry"/>
                </mxCell>
                <mxCell id="96" value="&lt;span style=&quot;font-size: 14px;&quot;&gt;鈴木　to 田中　30minutes ago&lt;br&gt;&lt;/span&gt;" style="text;html=1;strokeColor=none;fillColor=none;align=left;verticalAlign=middle;whiteSpace=wrap;rounded=0;fontStyle=0" vertex="1" parent="1">
                    <mxGeometry x="884" y="2035" width="230" height="20" as="geometry"/>
                </mxCell>
                <mxCell id="97" value="&lt;span style=&quot;font-size: 18px;&quot;&gt;OOは検討しましたか？&lt;br&gt;&lt;/span&gt;" style="rounded=1;whiteSpace=wrap;html=1;fontSize=14;fillColor=#FFFFFF;" vertex="1" parent="1">
                    <mxGeometry x="730" y="2150" width="340" height="105" as="geometry"/>
                </mxCell>
                <mxCell id="98" value="&lt;span style=&quot;font-size: 14px;&quot;&gt;田中太郎　to 鈴木　30minutes ago&lt;br&gt;&lt;/span&gt;" style="text;html=1;strokeColor=none;fillColor=none;align=left;verticalAlign=middle;whiteSpace=wrap;rounded=0;fontStyle=0" vertex="1" parent="1">
                    <mxGeometry x="744" y="2155" width="230" height="20" as="geometry"/>
                </mxCell>
                <mxCell id="99" style="edgeStyle=none;html=1;exitX=0;exitY=0.25;exitDx=0;exitDy=0;entryX=1;entryY=0.25;entryDx=0;entryDy=0;strokeColor=#1A1A1A;fontSize=14;fontColor=#000000;shape=link;" edge="1" parent="1">
                    <mxGeometry relative="1" as="geometry">
                        <mxPoint x="730" y="2176" as="sourcePoint"/>
                        <mxPoint x="1070" y="2176" as="targetPoint"/>
                    </mxGeometry>
                </mxCell>
                <mxCell id="100" value="&lt;span style=&quot;font-size: 18px;&quot;&gt;&lt;br&gt;&lt;/span&gt;" style="rounded=1;whiteSpace=wrap;html=1;fontSize=14;fillColor=#FFFFFF;" vertex="1" parent="1">
                    <mxGeometry x="750" y="2290" width="340" height="35" as="geometry"/>
                </mxCell>
                <mxCell id="101" value="&lt;span style=&quot;font-size: 18px;&quot;&gt;送信&lt;/span&gt;" style="rounded=1;whiteSpace=wrap;html=1;fontSize=14;fillColor=#FFCC99;" vertex="1" parent="1">
                    <mxGeometry x="1100" y="2292.5" width="110" height="30" as="geometry"/>
                </mxCell>
                <mxCell id="102" value="&lt;span style=&quot;font-size: 18px;&quot;&gt;解決する&lt;/span&gt;" style="rounded=1;whiteSpace=wrap;html=1;fontSize=14;fillColor=#FFCC99;" vertex="1" parent="1">
                    <mxGeometry x="1080" y="1870" width="110" height="30" as="geometry"/>
                </mxCell>
                <mxCell id="103" value="スレッド&lt;br&gt;一覧ページ" style="rounded=1;whiteSpace=wrap;html=1;fontSize=18;fillColor=#CCFFFF;" vertex="1" parent="1">
                    <mxGeometry x="600" y="360" width="120" height="60" as="geometry"/>
                </mxCell>
                <mxCell id="105" style="edgeStyle=none;html=1;strokeColor=#FF0000;fontSize=14;exitX=1;exitY=0.5;exitDx=0;exitDy=0;entryX=0.5;entryY=1;entryDx=0;entryDy=0;" edge="1" parent="1" source="103" target="16">
                    <mxGeometry relative="1" as="geometry">
                        <mxPoint x="730" y="320" as="sourcePoint"/>
                        <mxPoint x="790" y="320" as="targetPoint"/>
                        <Array as="points">
                            <mxPoint x="840" y="390"/>
                        </Array>
                    </mxGeometry>
                </mxCell>
                <mxCell id="106" style="edgeStyle=none;html=1;strokeColor=#FF0000;fontSize=14;exitX=0.5;exitY=1;exitDx=0;exitDy=0;entryX=0;entryY=0.5;entryDx=0;entryDy=0;" edge="1" parent="1" source="5" target="103">
                    <mxGeometry relative="1" as="geometry">
                        <mxPoint x="730" y="400" as="sourcePoint"/>
                        <mxPoint x="850" y="350" as="targetPoint"/>
                        <Array as="points">
                            <mxPoint x="120" y="390"/>
                        </Array>
                    </mxGeometry>
                </mxCell>
                <mxCell id="107" value="&lt;span style=&quot;font-size: 14px;&quot;&gt;&lt;font color=&quot;#ff0000&quot;&gt;プルダウンで&lt;br&gt;ステータス変更可能&lt;/font&gt;&lt;br&gt;&lt;/span&gt;" style="text;html=1;strokeColor=none;fillColor=none;align=left;verticalAlign=middle;whiteSpace=wrap;rounded=0;fontStyle=0" vertex="1" parent="1">
                    <mxGeometry x="470" y="1530" width="240" height="50" as="geometry"/>
                </mxCell>
                <mxCell id="109" value="" style="endArrow=none;html=1;strokeColor=#1A1A1A;fontSize=14;fontColor=#000000;shape=link;exitX=1.003;exitY=0.343;exitDx=0;exitDy=0;exitPerimeter=0;entryX=-0.001;entryY=0.335;entryDx=0;entryDy=0;entryPerimeter=0;" edge="1" parent="1" source="83" target="83">
                    <mxGeometry width="50" height="50" relative="1" as="geometry">
                        <mxPoint x="1474.27" y="2035" as="sourcePoint"/>
                        <mxPoint x="690.0032356770834" y="2025" as="targetPoint"/>
                    </mxGeometry>
                </mxCell>
                <mxCell id="110" value="&lt;span style=&quot;font-size: 14px;&quot;&gt;&lt;font color=&quot;#ff0000&quot;&gt;スクロール時はここから下だけ動く&lt;/font&gt;&lt;br&gt;&lt;/span&gt;" style="text;html=1;strokeColor=none;fillColor=none;align=left;verticalAlign=middle;whiteSpace=wrap;rounded=0;fontStyle=0" vertex="1" parent="1">
                    <mxGeometry x="1240" y="2035" width="240" height="50" as="geometry"/>
                </mxCell>
                <mxCell id="111" value="&lt;font style=&quot;font-size: 18px;&quot;&gt;（６）スレッド一覧&lt;/font&gt;" style="text;html=1;strokeColor=none;fillColor=none;align=left;verticalAlign=middle;whiteSpace=wrap;rounded=0;fontStyle=1" vertex="1" parent="1">
                    <mxGeometry x="680" y="2410" width="620" height="30" as="geometry"/>
                </mxCell>
                <mxCell id="112" value="" style="rounded=1;whiteSpace=wrap;html=1;fontSize=14;fillColor=#E6E6E6;strokeColor=none;" vertex="1" parent="1">
                    <mxGeometry x="700" y="2480" width="540" height="420" as="geometry"/>
                </mxCell>
                <mxCell id="113" value="&lt;span style=&quot;font-size: 18px;&quot;&gt;▶ 未読あり&lt;/span&gt;" style="text;html=1;strokeColor=none;fillColor=none;align=center;verticalAlign=middle;whiteSpace=wrap;rounded=0;fontStyle=1" vertex="1" parent="1">
                    <mxGeometry x="724" y="2580" width="160" height="30" as="geometry"/>
                </mxCell>
                <mxCell id="114" value="&lt;span style=&quot;font-size: 18px;&quot;&gt;▶ 未読なし&lt;/span&gt;" style="text;html=1;strokeColor=none;fillColor=none;align=center;verticalAlign=middle;whiteSpace=wrap;rounded=0;fontStyle=1" vertex="1" parent="1">
                    <mxGeometry x="730" y="2710" width="160" height="30" as="geometry"/>
                </mxCell>
                <mxCell id="116" value="&lt;span style=&quot;font-size: 18px;&quot;&gt;&lt;br&gt;&lt;/span&gt;" style="rounded=1;whiteSpace=wrap;html=1;fontSize=14;fillColor=#FFFFFF;" vertex="1" parent="1">
                    <mxGeometry x="750" y="2510" width="340" height="35" as="geometry"/>
                </mxCell>
                <mxCell id="117" value="&lt;span style=&quot;font-size: 18px;&quot;&gt;検索&lt;/span&gt;" style="rounded=1;whiteSpace=wrap;html=1;fontSize=14;fillColor=#FFCC99;" vertex="1" parent="1">
                    <mxGeometry x="1100" y="2515" width="110" height="30" as="geometry"/>
                </mxCell>
                <mxCell id="118" value="&lt;span style=&quot;font-size: 14px;&quot;&gt;・~~についての質問&lt;/span&gt;&lt;br style=&quot;border-color: var(--border-color); font-size: 14px;&quot;&gt;&lt;span style=&quot;font-size: 14px;&quot;&gt;・XXの詳細確認&lt;/span&gt;&lt;span style=&quot;font-size: 14px;&quot;&gt;&lt;br&gt;&lt;/span&gt;" style="text;html=1;strokeColor=none;fillColor=none;align=left;verticalAlign=middle;whiteSpace=wrap;rounded=0;fontStyle=0" vertex="1" parent="1">
                    <mxGeometry x="764" y="2630" width="230" height="30" as="geometry"/>
                </mxCell>
                <mxCell id="119" value="&lt;span style=&quot;font-size: 14px;&quot;&gt;・~~についての質問&lt;/span&gt;&lt;br style=&quot;border-color: var(--border-color); font-size: 14px;&quot;&gt;&lt;span style=&quot;font-size: 14px;&quot;&gt;・XXの詳細確認&lt;/span&gt;&lt;span style=&quot;font-size: 14px;&quot;&gt;&lt;br&gt;&lt;/span&gt;" style="text;html=1;strokeColor=none;fillColor=none;align=left;verticalAlign=middle;whiteSpace=wrap;rounded=0;fontStyle=0" vertex="1" parent="1">
                    <mxGeometry x="764" y="2760" width="230" height="30" as="geometry"/>
                </mxCell>
                <mxCell id="120" value="&lt;span style=&quot;font-size: 18px;&quot;&gt;✓&lt;br&gt;&lt;/span&gt;" style="rounded=1;whiteSpace=wrap;html=1;fontSize=14;fillColor=#FFFFFF;arcSize=0;" vertex="1" parent="1">
                    <mxGeometry x="964" y="2560" width="30" height="35" as="geometry"/>
                </mxCell>
                <mxCell id="121" value="&lt;span style=&quot;font-size: 14px;&quot;&gt;解決済みを含む&lt;br&gt;&lt;/span&gt;" style="text;html=1;strokeColor=none;fillColor=none;align=left;verticalAlign=middle;whiteSpace=wrap;rounded=0;fontStyle=0" vertex="1" parent="1">
                    <mxGeometry x="1013.5" y="2562.5" width="230" height="30" as="geometry"/>
                </mxCell>
                <mxCell id="122" value="&lt;span style=&quot;font-size: 14px;&quot;&gt;&lt;font color=&quot;#ff0000&quot;&gt;デフォルトでは&lt;br&gt;「未解決のスレッド」を表示&lt;/font&gt;&lt;br&gt;&lt;/span&gt;" style="text;html=1;strokeColor=none;fillColor=none;align=left;verticalAlign=middle;whiteSpace=wrap;rounded=0;fontStyle=0" vertex="1" parent="1">
                    <mxGeometry x="970" y="2600" width="240" height="50" as="geometry"/>
                </mxCell>
            </root>
        </mxGraphModel>
    </diagram>
</mxfile>